<svg xmlns="http://www.w3.org/2000/svg" xmlns:xlink="http://www.w3.org/1999/xlink" width="388.956" height="421.638" viewBox="0 0 388.956 421.638"><defs><style>.a{fill:url(#a);}.b{fill:#2ca59f;}.c{fill:#0b0b0b;}.d{fill:#f6bf28;}.e{fill:#ff805a;}.f{fill:#0eb3bf;}.g{fill:#fff;}.h{fill:#527c9d;}.i{fill:#ffe1cc;}.j{fill:#e0572d;}.k{fill:#efefef;}.l{fill:#253f59;}.m{fill:#ccc;mix-blend-mode:multiply;isolation:isolate;}.n{fill:#fc8663;}.o{fill:#9e280d;opacity:0.44;}.p{fill:#ff6d3a;}.q{fill:#ffd95f;opacity:0.47;}.r{fill:#d64113;}.s{fill:#e25c52;}.t{fill:#fa7464;}.u{fill:#fca8a2;}.v{fill:#4a4f53;}.w{fill:#17c5cc;}.x{fill:#73777a;}.y{fill:#142635;}.z{fill:#172a3a;}.aa{fill:#c1c1c1;}.ab{fill:#f5f5f5;}.ac{fill:#14546d;}.ad{fill:#e8c5ac;}.ae{fill:#d7e9f7;}.af{fill:#fff1cb;}.ag{fill:#5df2ff;}</style><linearGradient id="a" x1="0.172" y1="0.146" x2="0.917" y2="0.779" gradientUnits="objectBoundingBox"><stop offset="0" stop-color="#c1faff"/><stop offset="0.685" stop-color="#fff1cb"/><stop offset="1" stop-color="#ffcebf"/></linearGradient></defs><g transform="translate(-923.068 -378)"><circle class="a" cx="189" cy="189" r="189" transform="translate(929 386)"/><g transform="translate(827.136 306.377)"><g transform="translate(117.839 95.865)"><path class="b" d="M304.874,456.79q-.881,0-1.761-.008l.03-2.992c1.19.012,2.383.012,3.571,0l.032,2.992Q305.811,456.79,304.874,456.79Zm-5.392-.082q-1.819-.056-3.629-.15l.153-2.988q1.779.092,3.568.147Zm10.892,0-.093-2.991q1.788-.056,3.567-.15l.157,2.989Q312.193,456.648,310.374,456.7Zm-18.147-.372q-1.815-.131-3.62-.3l.278-2.979q1.775.165,3.559.3Zm25.4-.008-.22-2.984q1.785-.131,3.559-.3l.281,2.979Q319.444,456.192,317.629,456.326Zm-32.636-.67q-1.808-.207-3.6-.452l.4-2.965q1.765.241,3.542.445Zm39.869-.012-.345-2.972q1.777-.2,3.542-.446l.406,2.964Q326.67,455.435,324.862,455.644Zm-47.068-.969q-1.8-.284-3.582-.6l.528-2.945q1.754.316,3.52.594Zm54.266-.017-.469-2.955q1.766-.28,3.52-.6l.531,2.944Q333.858,454.373,332.06,454.658Zm-61.417-1.267q-1.783-.359-3.554-.756l.653-2.919q1.739.389,3.491.743Zm68.566-.021-.591-2.932q1.753-.354,3.49-.744l.655,2.919Q340.994,453.008,339.209,453.37ZM263.552,451.8q-1.765-.436-3.518-.906l.776-2.889q1.722.461,3.458.89Zm82.747-.026-.716-2.9q1.736-.43,3.456-.893l.779,2.889Q348.066,451.345,346.3,451.779Zm-89.763-1.86q-1.747-.509-3.477-1.054l.9-2.854q1.7.537,3.416,1.036Zm96.78-.03-.84-2.872q1.715-.5,3.416-1.038l.9,2.852Q355.061,449.379,353.316,449.888Zm-103.724-2.157q-1.728-.585-3.441-1.2l1.019-2.813q1.682.608,3.381,1.184Zm110.654-.03-.962-2.833q1.691-.573,3.368-1.181l1.021,2.812Q361.968,447.117,360.245,447.7Zm-117.508-2.453q-1.7-.659-3.385-1.351l1.138-2.767q1.654.682,3.326,1.328Zm124.337-.026-1.08-2.791q1.667-.644,3.316-1.323l1.139,2.766Q368.771,444.566,367.075,445.223ZM236,442.475q-1.67-.729-3.322-1.492l1.254-2.716q1.624.75,3.266,1.467Zm137.785-.013-1.2-2.742q1.632-.714,3.246-1.459l1.255,2.716Q375.443,441.735,373.782,442.462Zm6.573-3.039-1.311-2.69q1.6-.782,3.182-1.595l1.369,2.661Q381.985,438.628,380.355,439.424Zm-150.97,0q-1.638-.8-3.255-1.632l1.368-2.66q1.59.817,3.2,1.6ZM386.8,436.11l-1.425-2.631q1.566-.848,3.113-1.729l1.48,2.6Q388.393,435.246,386.8,436.11Zm-163.888-.022q-1.6-.865-3.182-1.767l1.48-2.6q1.553.883,3.126,1.737ZM393.1,432.525l-1.534-2.569q1.53-.913,3.04-1.858l1.587,2.536Q394.656,431.594,393.1,432.525Zm-176.514-.037q-1.563-.934-3.1-1.9l1.589-2.535q1.514.948,3.049,1.866Zm182.66-3.81-1.641-2.5q1.491-.977,2.96-1.985l1.692,2.467Q400.762,427.682,399.245,428.678Zm-188.826-.055q-1.52-1-3.02-2.029l1.7-2.465q1.47,1.012,2.966,1.993Zm194.806-4.05-1.744-2.431q1.45-1.039,2.875-2.109l1.794,2.393Q406.7,423.514,405.226,424.573Zm-200.8-.069q-1.477-1.063-2.931-2.153l1.8-2.392q1.428,1.074,2.879,2.115Zm206.607-4.284-1.845-2.355q1.4-1.1,2.785-2.228l1.893,2.316Q412.462,419.1,411.032,420.22Zm-212.422-.082q-1.431-1.122-2.836-2.273l1.894-2.315q1.382,1.131,2.788,2.235Zm218.042-4.511-1.941-2.277q1.356-1.157,2.69-2.344l1.989,2.236Q418.032,414.448,416.652,415.627Zm-223.666-.093q-1.381-1.18-2.738-2.39l1.991-2.234q1.332,1.189,2.69,2.348Zm229.09-4.734-2.036-2.192q1.308-1.214,2.591-2.456l2.08,2.151Q423.406,409.563,422.076,410.8Zm-234.515-.1q-1.33-1.236-2.635-2.5l2.082-2.148q1.282,1.243,2.589,2.458Zm239.735-4.95-2.127-2.1q1.257-1.269,2.486-2.563l2.169,2.06Q428.574,404.457,427.3,405.748Zm-244.95-.107q-1.276-1.291-2.526-2.609l2.171-2.059q1.228,1.3,2.483,2.564ZM432.3,400.482l-2.211-2.017q1.2-1.318,2.377-2.665l2.253,1.968Q433.522,399.139,432.3,400.482Zm-254.951-.111q-1.221-1.343-2.414-2.711l2.255-1.966q1.172,1.346,2.373,2.665Zm259.732-5.363-2.294-1.92q1.146-1.369,2.264-2.763l2.334,1.871Q438.246,393.614,437.08,395.007Zm-264.5-.108q-1.163-1.392-2.3-2.81l2.335-1.87q1.115,1.392,2.258,2.761Zm269.052-5.562-2.372-1.823q1.089-1.416,2.146-2.857l2.411,1.772Q442.736,387.895,441.628,389.337Zm-273.588-.1q-1.1-1.44-2.177-2.9l2.412-1.769q1.056,1.438,2.14,2.852Zm277.9-5.756-2.447-1.722q1.029-1.46,2.025-2.944L448,380.481Q446.981,381.99,445.935,383.477Zm-282.189-.094q-1.041-1.483-2.052-2.989l2.483-1.668q.994,1.48,2.018,2.938Zm286.246-5.942-2.517-1.617q.967-1.5,1.9-3.028l2.551,1.562Q450.975,375.911,449.993,377.441ZM159.7,377.363q-.978-1.525-1.926-3.074l2.552-1.561q.931,1.52,1.892,3.02Zm294.09-6.127-2.584-1.509q.9-1.543,1.771-3.106l2.615,1.453Q454.711,369.666,453.795,371.235Zm-297.876-.057q-.912-1.565-1.793-3.15l2.615-1.453q.865,1.557,1.762,3.095Zm301.413-6.3-2.646-1.4q.836-1.582,1.638-3.182L459,361.637Q458.182,363.265,457.332,364.874ZM152.4,364.842q-.845-1.6-1.658-3.221l2.674-1.342q.8,1.591,1.629,3.165Zm-3.248-6.476q-.777-1.635-1.52-3.287l2.729-1.227q.73,1.623,1.494,3.229Zm311.446,0-2.7-1.285q.767-1.614,1.5-3.247l2.729,1.225Q461.379,356.722,460.6,358.364Zm-314.416-6.6q-.706-1.664-1.38-3.346l2.778-1.112q.661,1.655,1.355,3.289Zm317.4-.041-2.754-1.167q.7-1.648,1.364-3.312l2.778,1.11Q464.3,350.044,463.585,351.72Zm-320.1-6.692q-.637-1.7-1.24-3.415l2.822-.993q.593,1.687,1.22,3.356Zm322.8-.077-2.8-1.051q.628-1.674,1.221-3.366l2.824.99Q466.928,343.246,466.289,344.951Zm-325.209-6.778q-.565-1.723-1.094-3.464l2.862-.871q.521,1.709,1.076,3.4Zm327.623-.1-2.844-.929q.556-1.7,1.077-3.418l2.863.869Q469.267,336.34,468.7,338.071Zm-329.738-6.849q-.491-1.748-.947-3.508l2.9-.749q.448,1.73.93,3.447Zm331.854-.117-2.88-.81q.481-1.716.927-3.445l2.9.746Q471.307,329.358,470.817,331.106Zm-333.673-6.918q-.416-1.765-.8-3.545l2.926-.625q.373,1.748.783,3.483Zm335.486-.12-2.912-.683q.408-1.736.78-3.484l2.927.624Q473.046,322.3,472.631,324.068Zm-337-6.986q-.342-1.782-.646-3.575l2.95-.5q.3,1.764.634,3.513Zm338.518-.12-2.939-.559q.334-1.751.632-3.514l2.95.5Q474.484,315.181,474.145,316.962Zm-339.734-7.043q-.266-1.793-.494-3.6l2.969-.375q.224,1.776.485,3.537Zm340.944-.12-2.96-.436q.26-1.764.483-3.538l2.969.374Q475.62,308,475.355,309.8ZM133.5,302.711q-.19-1.8-.343-3.616l2.982-.25q.15,1.781.336,3.553Zm342.764-.12-2.976-.312q.186-1.772.334-3.554l2.981.249Q476.452,300.786,476.262,302.591Zm-343.374-7.119q-.114-1.809-.191-3.627l2.989-.126q.075,1.786.187,3.566Zm343.978-.123-2.986-.185q.11-1.778.185-3.566l2.989.124Q476.979,293.54,476.867,295.349Zm-344.284-7.128q-.04-1.81-.04-3.632h2.992q0,1.79.039,3.569Zm344.584-.129-2.991-.063q.038-1.781.037-3.57V284.2H477.2v.256Q477.2,286.281,477.167,288.093Zm-341.6-7.076-2.992-.059q.037-1.82.11-3.632l2.989.123Q135.6,279.228,135.57,281.017Zm338.6-.381q-.04-1.784-.117-3.56l2.989-.129q.077,1.808.118,3.623ZM135.86,273.883l-2.986-.184q.112-1.817.261-3.622l2.982.245Q135.97,272.1,135.86,273.883Zm338-.372q-.115-1.784-.264-3.561l2.981-.253q.153,1.806.269,3.622Zm-337.417-6.743-2.975-.31q.189-1.809.413-3.608l2.969.37Q136.633,264.99,136.447,266.768ZM473.26,266.4q-.188-1.778-.413-3.546l2.967-.378q.23,1.8.421,3.608Zm-335.926-6.712-2.961-.435q.266-1.8.565-3.588l2.951.5Q137.594,257.915,137.334,259.685Zm335.025-.369q-.263-1.769-.563-3.525l2.95-.5q.3,1.788.573,3.588Zm-333.84-6.672-2.939-.558q.339-1.787.716-3.562l2.927.622Q138.853,250.888,138.519,252.643Zm332.639-.366q-.337-1.755-.711-3.5l2.925-.628q.38,1.774.724,3.562ZM140,245.66l-2.912-.683q.416-1.771.866-3.527l2.9.743Q140.409,243.919,140,245.66Zm329.662-.363q-.41-1.739-.859-3.464l2.9-.752q.456,1.757.874,3.527Zm-327.885-6.552-2.881-.805q.49-1.751,1.015-3.488l2.864.868Q142.257,237.023,141.777,238.745Zm326.093-.359q-.485-1.72-1.005-3.424l2.862-.873q.53,1.736,1.023,3.487ZM143.85,231.9l-2.844-.928q.565-1.735,1.168-3.454l2.823.989Q144.405,230.194,143.85,231.9Zm321.937-.341q-.557-1.7-1.151-3.379l2.823-.994q.6,1.713,1.17,3.439Zm-319.57-6.421-2.8-1.048q.64-1.709,1.313-3.4l2.779,1.106Q146.845,223.459,146.216,225.138Zm317.2-.313q-.629-1.672-1.292-3.326l2.777-1.114q.676,1.685,1.316,3.387Zm-314.547-6.339-2.754-1.166q.711-1.679,1.456-3.34l2.73,1.225Q149.565,216.836,148.867,218.486Zm311.9-.275q-.7-1.639-1.426-3.258l2.727-1.228q.743,1.648,1.453,3.316ZM151.8,211.954l-2.7-1.282q.781-1.646,1.6-3.274l2.675,1.339Q152.566,210.336,151.8,211.954Zm306.042-.229q-.766-1.608-1.565-3.2l2.674-1.343q.812,1.616,1.592,3.252ZM155,205.557l-2.646-1.4q.85-1.611,1.732-3.2l2.617,1.452Q155.837,203.974,155,205.557Zm299.643-.193q-.833-1.574-1.7-3.129l2.614-1.455q.881,1.582,1.729,3.185ZM158.473,199.3l-2.585-1.507q.916-1.574,1.866-3.125l2.552,1.562Q159.373,197.756,158.473,199.3Zm292.709-.162q-.9-1.539-1.83-3.056l2.551-1.564q.946,1.545,1.862,3.11ZM162.2,193.2l-2.519-1.615q.983-1.532,2-3.042l2.484,1.668Q163.169,191.7,162.2,193.2Zm285.254-.136q-.963-1.5-1.957-2.978l2.482-1.67q1.012,1.5,1.992,3.031Zm-281.27-5.8-2.449-1.719q1.045-1.49,2.121-2.954l2.411,1.772Q167.213,185.8,166.187,187.267Zm277.293-.115q-1.026-1.459-2.081-2.894l2.41-1.773q1.075,1.46,2.118,2.946Zm-273.064-5.646-2.375-1.82q1.107-1.444,2.243-2.862l2.335,1.871Q171.5,180.087,170.416,181.506Zm268.84-.1q-1.085-1.415-2.2-2.8l2.334-1.872q1.135,1.416,2.24,2.855ZM174.88,175.93l-2.3-1.919q1.165-1.394,2.359-2.764l2.256,1.966Q176.026,174.559,174.88,175.93Zm259.915-.087q-1.145-1.368-2.318-2.712l2.253-1.968q1.194,1.368,2.359,2.76Zm-255.22-5.3-2.214-2.014q1.223-1.343,2.472-2.661L182,167.932Q180.776,169.227,179.575,170.547Zm250.527-.078q-1.2-1.32-2.431-2.613l2.169-2.06q1.249,1.316,2.472,2.659Zm-245.613-5.1-2.127-2.105q1.278-1.29,2.58-2.553l2.084,2.146Q185.744,164.1,184.489,165.368Zm240.7-.075q-1.255-1.267-2.538-2.51l2.082-2.149q1.305,1.264,2.583,2.553ZM189.614,160.4l-2.037-2.191q1.329-1.236,2.685-2.444l1.99,2.233Q190.922,159.185,189.614,160.4Zm230.442-.072q-1.308-1.215-2.642-2.4l1.989-2.234q1.357,1.208,2.688,2.444Zm-225.116-4.675L193,153.377q1.38-1.178,2.784-2.328l1.9,2.314Q196.3,154.493,194.941,155.652Zm219.781-.072q-1.358-1.159-2.741-2.289l1.893-2.316q1.408,1.15,2.79,2.331Zm-214.261-4.447-1.847-2.354q1.427-1.118,2.879-2.209l1.8,2.392Q201.864,150.033,200.461,151.133Zm208.731-.074q-1.407-1.1-2.836-2.174l1.8-2.393q1.454,1.091,2.885,2.211Zm-203.029-4.208-1.746-2.429q1.473-1.059,2.969-2.086l1.693,2.466Q207.608,145.812,206.162,146.852Zm197.312-.08q-1.451-1.04-2.925-2.052l1.692-2.467q1.5,1.029,2.977,2.088Zm-191.437-3.958-1.642-2.5q1.515-.994,3.052-1.959l1.589,2.535Q213.527,141.835,212.037,142.814Zm185.544-.085q-1.494-.98-3.011-1.929l1.588-2.536q1.542.964,3.063,1.962Zm-179.506-3.7-1.536-2.568q1.554-.931,3.13-1.828l1.481,2.6Q219.6,138.114,218.075,139.028Zm173.445-.092q-1.536-.917-3.091-1.8l1.478-2.6q1.582.9,3.144,1.832ZM224.262,135.5l-1.426-2.63q1.592-.863,3.2-1.693l1.37,2.66Q225.825,134.654,224.262,135.5Zm161.038-.1q-1.573-.853-3.164-1.669l1.367-2.662q1.62.833,3.22,1.7ZM230.591,132.24l-1.315-2.688q1.626-.8,3.271-1.556l1.256,2.715Q232.188,131.46,230.591,132.24Zm148.345-.107q-1.607-.784-3.233-1.534l1.253-2.717q1.656.765,3.292,1.562ZM237.047,129.25l-1.2-2.741q1.656-.725,3.331-1.416l1.141,2.766Q238.676,128.538,237.047,129.25Zm135.39-.114q-1.64-.714-3.3-1.394l1.136-2.767q1.687.692,3.356,1.419Zm-128.8-2.6-1.082-2.79q1.691-.655,3.4-1.278l1.024,2.811Q245.3,125.887,243.635,126.533Zm122.178-.115q-1.67-.644-3.356-1.254l1.018-2.813q1.715.621,3.413,1.275Zm-115.47-2.326-.962-2.833q1.718-.583,3.451-1.133l.9,2.853Q252.032,123.517,250.344,124.091Zm108.733-.109q-1.7-.574-3.407-1.111l.9-2.854q1.741.547,3.467,1.129ZM257.15,121.939l-.841-2.872q1.74-.511,3.5-.986l.781,2.888Q258.862,121.436,257.15,121.939Zm95.1-.1q-1.712-.5-3.438-.96l.774-2.89q1.758.47,3.5.977Zm-88.211-1.762-.719-2.9q1.76-.435,3.536-.836l.655,2.919Q265.771,119.648,264.042,120.076Zm81.314-.085q-1.731-.425-3.475-.814l.65-2.92q1.776.4,3.538.828Zm-74.351-1.483-.595-2.932q1.777-.36,3.567-.685l.534,2.944Q272.753,118.154,271.006,118.507Zm67.383-.07q-1.748-.353-3.507-.666l.526-2.945q1.792.32,3.57.678Zm-60.357-1.2-.471-2.954q1.791-.286,3.594-.533l.407,2.964Q279.791,116.956,278.032,117.236Zm53.329-.056q-1.76-.277-3.532-.517l.4-2.965q1.8.246,3.6.526Zm-46.257-.918-.346-2.972q1.8-.209,3.614-.381l.282,2.979Q286.874,116.057,285.1,116.262Zm39.183-.041q-1.769-.2-3.55-.368l.276-2.979q1.812.169,3.614.374Zm-32.076-.635-.22-2.983q1.808-.133,3.625-.229l.159,2.987Q293.987,115.456,292.211,115.587Zm24.968-.026q-1.776-.126-3.565-.218l.153-2.988q1.818.093,3.624.223Zm-17.836-.351-.1-2.991q1.809-.057,3.628-.078l.034,2.992Q301.12,115.151,299.342,115.21Zm10.705-.011q-1.781-.055-3.569-.07l.028-2.992q1.821.015,3.632.071Z" transform="translate(-132.543 -112.137)"/></g><circle class="c" cx="29.32" cy="29.32" r="29.32" transform="translate(194.08 81.795)"/><circle class="c" cx="29.32" cy="29.32" r="29.32" transform="translate(426.248 220.019)"/><circle class="d" cx="24.832" cy="24.832" r="24.832" transform="translate(417.149 304.498)"/><circle class="c" cx="26.029" cy="26.029" r="26.029" transform="translate(370.533 375.426)"/><circle class="c" cx="29.32" cy="29.32" r="29.32" transform="translate(145.706 365.138)"/><circle class="c" cx="24.533" cy="24.533" r="24.533" transform="translate(95.933 278.149)"/><circle class="c" cx="31.483" cy="31.483" r="31.483" transform="translate(97.253 194.593) rotate(-45)"/><circle class="c" cx="31.714" cy="31.714" r="31.714" transform="translate(299.829 71.623)"/><circle class="c" cx="36.501" cy="36.501" r="36.501" transform="translate(394.671 129.366)"/><g transform="translate(305.04 77.109)"><path class="e" d="M494.538,115.132a12.608,12.608,0,1,0-19.765,10.375,1.9,1.9,0,0,1,.859,1.531v5.007a3.361,3.361,0,0,0,3.359,3.36h5.877a3.361,3.361,0,0,0,3.359-3.36v-5.007a1.9,1.9,0,0,1,.861-1.531A12.587,12.587,0,0,0,494.538,115.132Z" transform="translate(-455.004 -89.519)"/><path class="f" d="M491.307,156.127a3.65,3.65,0,1,1-3.65-3.648A3.651,3.651,0,0,1,491.307,156.127Z" transform="translate(-460.902 -109.583)"/><rect class="g" width="0.525" height="15.655" transform="translate(23.289 25.108)"/><rect class="g" width="0.524" height="15.359" transform="translate(30.02 25.404)"/><path class="h" d="M479.861,147.2v5.568a2.4,2.4,0,0,0,2.4,2.388h7.8a2.4,2.4,0,0,0,2.4-2.388V147.2Z" transform="translate(-459.237 -107.461)"/><path class="f" d="M492.689,147.086a.74.74,0,0,1-.8.656H479.867a.738.738,0,0,1-.8-.656h0a.738.738,0,0,1,.8-.65h12.019a.74.74,0,0,1,.8.65Z" transform="translate(-458.918 -107.156)"/><path class="f" d="M492.689,151.55a.74.74,0,0,1-.8.651H479.867a.737.737,0,0,1-.8-.651h0a.735.735,0,0,1,.8-.653h12.019a.738.738,0,0,1,.8.653Z" transform="translate(-458.918 -108.948)"/><path class="f" d="M492.689,156a.74.74,0,0,1-.8.652H479.867a.737.737,0,0,1-.8-.652h0a.738.738,0,0,1,.8-.654h12.019a.74.74,0,0,1,.8.654Z" transform="translate(-458.918 -110.736)"/><path class="e" d="M509.333,98.522a1.132,1.132,0,0,1-1.736-1.453l4.868-5.8a1.132,1.132,0,0,1,1.733,1.455Z" transform="translate(-470.27 -84.836)"/><path class="e" d="M519.06,119.929a1.131,1.131,0,0,1-.393-2.227l7.458-1.315a1.131,1.131,0,0,1,.393,2.228Z" transform="translate(-474.447 -95.08)"/><path class="e" d="M454.178,117.7a1.131,1.131,0,1,1-.393,2.227l-7.459-1.315a1.131,1.131,0,0,1,.395-2.228Z" transform="translate(-445.394 -95.08)"/><path class="e" d="M466.983,97.069a1.13,1.13,0,1,1-1.732,1.453l-4.867-5.8a1.132,1.132,0,0,1,1.735-1.455Z" transform="translate(-451.307 -84.836)"/><path class="e" d="M490.057,89.493a1.131,1.131,0,1,1-2.262,0V81.923a1.131,1.131,0,1,1,2.262,0Z" transform="translate(-462.423 -80.791)"/><g transform="translate(23.269 21.006)"><path class="g" d="M487.451,123.414V117.97l-1.206,2.361h-1.963v-.568h1.782l1.823-3.866v6.075l1.278-1.872h2.4v.482h-2.091Z" transform="translate(-484.281 -115.896)"/></g></g><path class="i" d="M540.131,214.565a3.381,3.381,0,0,1,1.973,3.72l-.453,2.221c-.932,3.523-4.514,4.238-7.767,3.285l-5.621-1.647c-3.255-.953-6.273-2.788-5.342-6.315l1.486-3.121c.373-1.408,2.262-2.353,4.235-1.805Z" transform="translate(-171.422 -55.876)"/><g transform="translate(117.839 163.801)"><path class="j" d="M213.467,219.916a.357.357,0,0,0-.6-.313l-5.461,5.462a3.6,3.6,0,0,0-.995,1.9l-.844,4.622,7.117-7.116Z" transform="translate(-163.301 -219.497)"/><path class="j" d="M218.857,228.79a.357.357,0,0,1,.312.6l-5.461,5.462a3.619,3.619,0,0,1-1.9,1l-4.621.841,7.115-7.115Z" transform="translate(-164.039 -223.722)"/><g transform="translate(0 6.375)"><path class="k" d="M176.784,255.571a24.377,24.377,0,1,1-24.376-24.378A24.375,24.375,0,0,1,176.784,255.571Z" transform="translate(-128.031 -231.193)"/><path class="l" d="M155.357,279.364A20.841,20.841,0,1,1,176.2,258.523,20.865,20.865,0,0,1,155.357,279.364Zm0-38.739a17.9,17.9,0,1,0,17.9,17.9A17.917,17.917,0,0,0,155.357,240.626Z" transform="translate(-130.98 -234.145)"/><path class="l" d="M161.6,278.127a13.368,13.368,0,1,1,13.368-13.368A13.383,13.383,0,0,1,161.6,278.127Zm0-23.791a10.422,10.422,0,1,0,10.422,10.423A10.435,10.435,0,0,0,161.6,254.337Z" transform="translate(-137.218 -240.381)"/><path class="e" d="M173.573,271.776a4.959,4.959,0,1,1-4.959-4.96A4.96,4.96,0,0,1,173.573,271.776Z" transform="translate(-144.237 -247.398)"/></g><path class="m" d="M181.4,272.821l1.415-1.684-8.527,1.928s-.416.755-.35.87l8.878,2.008-1.574-1.871h16.414c0-.111.007-.221.007-.329,0-.31-.01-.615-.022-.921Z" transform="translate(-148.913 -242.988)"/><rect class="j" width="30.362" height="1.284" transform="translate(27.898 26.43) rotate(-45.001)"/><path class="j" d="M177.731,261.025l-4.924,7.8a.281.281,0,0,0,.037.045l.166.165a.954.954,0,0,0,.424.243l7.7-4.857L178,264.152Z" transform="translate(-148.4 -238.388)"/></g><g transform="translate(209.396 97.102)"><path class="e" d="M277.573,114.659l4.4,4.406a1.407,1.407,0,1,0,1.985,1.989l2.433,2.4a5.85,5.85,0,0,1,1.723,4.141v4.155a.929.929,0,0,1-.929.929h-.716a.746.746,0,0,0-.747.748.473.473,0,0,1-.474.473h-.594a1.681,1.681,0,0,0-1.68,1.68v.255h14.4a1.935,1.935,0,0,0-1.934-1.935h-.8a.474.474,0,0,1-.475-.473.746.746,0,0,0-.746-.748h-.372a.712.712,0,0,1-.713-.711v-4.292a5.871,5.871,0,0,1,1.717-4.146l2.4-2.373a1.407,1.407,0,0,0,1.956-1.919l4.667-4.577a4.3,4.3,0,0,0,1.252-3.047l0-.251a3.637,3.637,0,0,0-1.125-2.6,3.778,3.778,0,0,0-2.615-1.046h-2.654c0-.793.784-1.28,1.473-1.676a1.323,1.323,0,0,0-.659-2.471h-17.2a1.323,1.323,0,0,0-.659,2.471c.718.412,1.533.9,1.658,1.676h-2.484a3.784,3.784,0,0,0-2.616,1.046,3.641,3.641,0,0,0-1.124,2.6v.251A4.3,4.3,0,0,0,277.573,114.659Zm24.318-1.187-3.928,3.936a.089.089,0,0,1-.156-.069,9.118,9.118,0,0,0,.126-1.507v-6.146a.291.291,0,0,1,.291-.292h2.364a2.129,2.129,0,0,1,1.458.583,1.955,1.955,0,0,1,.6,1.394v.251A2.608,2.608,0,0,1,301.89,113.472ZM278,111.622v-.251a1.959,1.959,0,0,1,.6-1.394,2.132,2.132,0,0,1,1.457-.583h2.211a.292.292,0,0,1,.292.292v6.146a8.963,8.963,0,0,0,.1,1.3.1.1,0,0,1-.158.09l-3.742-3.749A2.609,2.609,0,0,1,278,111.622Z" transform="translate(-276.322 -103.568)"/><path class="n" d="M286.739,103.568h17.2a1.323,1.323,0,0,1,.659,2.471c-.125.071-.253.147-.379.227H286.464c-.129-.078-.257-.154-.384-.227a1.323,1.323,0,0,1,.659-2.471Z" transform="translate(-281.514 -103.568)"/><path class="o" d="M305.613,109.854c-.569.358-1.094.8-1.094,1.452v.074H289.143a2.259,2.259,0,0,0-1.285-1.526Z" transform="translate(-282.908 -107.157)"/><path class="p" d="M303.489,174.248h.8a1.935,1.935,0,0,1,1.934,1.935h-14.4v-.255a1.681,1.681,0,0,1,1.68-1.68h9.991Z" transform="translate(-285.169 -143.919)"/><path class="q" d="M305.111,171.3h.372a.746.746,0,0,1,.746.748.473.473,0,0,0,.332.45h-9.111a.473.473,0,0,0,.331-.45.746.746,0,0,1,.747-.748h.716a.926.926,0,0,0,.368-.075H304.8A.724.724,0,0,0,305.111,171.3Z" transform="translate(-288.384 -142.194)"/><path class="o" d="M317.45,103.568h-8.369v32.264h7a1.935,1.935,0,0,0-1.934-1.935h-.8a.474.474,0,0,1-.475-.473.746.746,0,0,0-.746-.748h-.372a.712.712,0,0,1-.713-.711v-4.292a5.871,5.871,0,0,1,1.717-4.146l2.4-2.373a1.407,1.407,0,0,0,1.956-1.919l4.667-4.577a4.3,4.3,0,0,0,1.252-3.047l0-.251a3.637,3.637,0,0,0-1.125-2.6,3.778,3.778,0,0,0-2.615-1.046h-2.654c0-.793.784-1.28,1.473-1.676a1.323,1.323,0,0,0-.659-2.471Zm-.815,6.118a.291.291,0,0,1,.291-.292h2.364a2.129,2.129,0,0,1,1.458.583,1.955,1.955,0,0,1,.6,1.394v.251a2.608,2.608,0,0,1-.759,1.849l-3.928,3.936a.089.089,0,0,1-.156-.069,9.121,9.121,0,0,0,.126-1.507Z" transform="translate(-295.024 -103.568)"/><path class="n" d="M298.7,123.192a4.682,4.682,0,1,0,4.683-4.682A4.683,4.683,0,0,0,298.7,123.192Z" transform="translate(-289.095 -112.098)"/></g><g transform="translate(407.704 143.529)"><g transform="translate(0 32.479)"><path class="r" d="M619.41,249.4c1.809-1.81,4.549-2,6.118-.435s1.379,4.309-.433,6.119-12.864,7.178-12.864,7.178S617.6,251.2,619.41,249.4Z" transform="translate(-612.231 -247.902)"/><path class="s" d="M627.225,249.482a2.3,2.3,0,1,1,3.221,3.222c-1.023,1.021-7.288,4.065-7.288,4.065S626.2,250.505,627.225,249.482Z" transform="translate(-617.325 -248.243)"/></g><g transform="translate(3.381 25.628)"><path class="t" d="M631.8,236.631a2.355,2.355,0,1,1,3.329,3.331c-.919.917-6.76,3.43-6.76,3.43S630.883,237.549,631.8,236.631Z" transform="translate(-623.136 -235.474)"/><path class="p" d="M624.619,236.286a4.156,4.156,0,1,1,5.879,5.877c-1.62,1.622-11.934,6.055-11.934,6.055S623,237.907,624.619,236.286Z" transform="translate(-618.564 -235.067)"/></g><g transform="translate(8.097 30.087)"><path class="p" d="M633.453,244.639a4.157,4.157,0,1,1,5.879,5.878c-1.62,1.622-11.934,6.054-11.934,6.054S631.832,246.259,633.453,244.639Z" transform="translate(-627.398 -243.42)"/><path class="t" d="M640.637,244.984a2.354,2.354,0,1,1,3.329,3.33c-.919.917-6.761,3.429-6.761,3.429S639.717,245.9,640.637,244.984Z" transform="translate(-631.97 -243.827)"/></g><g transform="translate(9.901 26.722)"><path class="u" d="M635.558,238.078a3.282,3.282,0,1,1,4.642,4.641c-1.28,1.281-9.423,4.781-9.423,4.781S634.278,239.358,635.558,238.078Z" transform="translate(-630.777 -237.116)"/><path class="u" d="M641.23,238.35a1.859,1.859,0,1,1,2.628,2.631c-.726.722-5.337,2.707-5.337,2.707S640.5,239.075,641.23,238.35Z" transform="translate(-634.387 -237.437)"/></g><g transform="translate(5.835 0)"><path class="v" d="M660.505,239.115c.322,1.089,1.4,8.154-6.048,13.02-.489.32-1.061-.2-.921-.768.561-2.283,1.207-6.464-.8-8.737Z" transform="translate(-636.95 -211.326)"/><path class="v" d="M636.278,219.349c-1.088-.32-8.152-1.4-13.02,6.048-.319.49.2,1.061.768.921,2.283-.561,6.464-1.206,8.736.795Z" transform="translate(-623.161 -201.999)"/><path class="w" d="M672,188.966a1.7,1.7,0,0,0-1.89-1.89,36.84,36.84,0,0,0-30.06,24.288,2.564,2.564,0,0,0,.611,2.7l4.2,4.2a2.679,2.679,0,0,0,2.742.657C667.833,212.131,671.379,194.933,672,188.966Zm-18.2,16.188a4.966,4.966,0,1,1,7.023,0A4.964,4.964,0,0,1,653.8,205.154Z" transform="translate(-630.962 -187.061)"/><path class="x" d="M639.04,238.169a.629.629,0,0,1-.841-.841,23.805,23.805,0,0,1,11.047-11.078.655.655,0,0,1,.873.872A23.818,23.818,0,0,1,639.04,238.169Z" transform="translate(-630.141 -205.298)"/></g><path class="k" d="M671.519,213.377a6.01,6.01,0,1,1,0-8.5A6.009,6.009,0,0,1,671.519,213.377Z" transform="translate(-635.085 -194.546)"/><path class="l" d="M671.692,213.55a4.966,4.966,0,1,1,0-7.021A4.965,4.965,0,0,1,671.692,213.55Z" transform="translate(-635.998 -195.458)"/><path class="g" d="M672.236,209.605a1.694,1.694,0,1,1,0-2.4A1.7,1.7,0,0,1,672.236,209.605Z" transform="translate(-638.854 -196.222)"/></g><g transform="translate(103.317 285.905)"><g transform="translate(0 0)"><path class="w" d="M133.42,436.586l-1.51-.028a15.2,15.2,0,0,0-1.667-5.447l1.246-.869a.624.624,0,0,0,.154-.87l-1.432-2.05a.627.627,0,0,0-.871-.156l-1.25.875a15.008,15.008,0,0,0-4.537-3.437l.5-1.433a.627.627,0,0,0-.387-.8l-2.365-.816a.625.625,0,0,0-.8.386l-.487,1.413a15.169,15.169,0,0,0-3.264-.37,15.352,15.352,0,0,0-2.464.2l-.414-1.367a.626.626,0,0,0-.781-.414l-2.394.728a.625.625,0,0,0-.415.781l.405,1.328a15.223,15.223,0,0,0-4.783,3.268l-1.058-.8a.628.628,0,0,0-.877.121l-1.508,2a.624.624,0,0,0,.122.875l1.024.773A15.172,15.172,0,0,0,101.651,436l-1.231-.024a.625.625,0,0,0-.638.613l-.046,2.5a.627.627,0,0,0,.615.638l1.21.022a15.3,15.3,0,0,0,1.692,5.642l-.971.678a.627.627,0,0,0-.156.87l1.435,2.053a.626.626,0,0,0,.871.155l.969-.679A14.975,14.975,0,0,0,110.116,452l-.4,1.143a.626.626,0,0,0,.386.794l2.365.818a.626.626,0,0,0,.8-.385l.4-1.173a14.862,14.862,0,0,0,5.852.066l.373,1.229a.626.626,0,0,0,.78.416l2.394-.729a.625.625,0,0,0,.416-.779l-.385-1.264a15.228,15.228,0,0,0,4.713-3.372l1.108.838a.627.627,0,0,0,.876-.122l1.507-2a.626.626,0,0,0-.121-.876l-1.139-.859a15.062,15.062,0,0,0,1.826-5.435l1.479.028a.624.624,0,0,0,.636-.613l.047-2.5A.626.626,0,0,0,133.42,436.586Zm-8.793,8.295A10.3,10.3,0,1,1,127,437.366,10.287,10.287,0,0,1,124.626,444.881Z" transform="translate(-99.736 -421.378)"/><path class="w" d="M128.908,442.879a6.865,6.865,0,1,0,6.863,6.865A6.865,6.865,0,0,0,128.908,442.879Z" transform="translate(-111.759 -432.967)"/></g></g><g transform="translate(435.374 230.313)"><path class="p" d="M675.784,374.369h4.978v3.77a1.51,1.51,0,0,1-1.508,1.509h-3.47Z" transform="translate(-665.945 -352.894)"/><path class="p" d="M710.839,362.294a3.437,3.437,0,1,1-3.437-3.437A3.435,3.435,0,0,1,710.839,362.294Z" transform="translate(-680.091 -345.107)"/><path class="d" d="M672.11,380.812a1.483,1.483,0,0,1-1.484,1.485H669a1.484,1.484,0,0,1-1.485-1.485l-2.124-12.12a1.484,1.484,0,0,1,1.484-1.486h3.748a1.484,1.484,0,0,1,1.484,1.485Z" transform="translate(-660.729 -349.298)"/><path class="p" d="M726.586,363.109h6.493a.679.679,0,0,1,0,1.357v0h-6.493v0a.679.679,0,0,1,0-1.357Z" transform="translate(-691.107 -347.241)"/><path class="p" d="M722.268,348.613l4.591-4.592a.678.678,0,0,1,.958.959l0,0-4.592,4.59,0,0a.678.678,0,1,1-.959-.958Z" transform="translate(-689.179 -337.562)"/><path class="g" d="M682.287,333.6a12.3,12.3,0,0,1-11.206,8.261h-8.075v.01a7.071,7.071,0,0,0,0,14.141v.008h8.957a12.3,12.3,0,0,1,10.344,8.261h.548V333.6Z" transform="translate(-656.026 -332.429)"/><path class="e" d="M708.2,332.633V363h0a1.387,1.387,0,0,0,2.774,0h.008V332.633h-.007a1.389,1.389,0,0,0-2.777,0Z" transform="translate(-682.217 -331.246)"/><path class="d" d="M669.963,364.35V350.19h-6.956v.01a7.071,7.071,0,0,0,0,14.141v.008Z" transform="translate(-656.026 -340.756)"/><path class="p" d="M723.231,373.383l4.592,4.591a.678.678,0,0,1-.959.958l0,0-4.591-4.592v0a.678.678,0,0,1,.96-.958Z" transform="translate(-689.181 -352.299)"/></g><g transform="translate(426.248 313.599)"><path class="y" d="M671.664,483.986a15.733,15.733,0,1,1-15.734-15.732A15.733,15.733,0,0,1,671.664,483.986Z" transform="translate(-640.197 -468.254)"/><path class="g" d="M672.068,486.847a13.274,13.274,0,1,1-13.275-13.275A13.274,13.274,0,0,1,672.068,486.847Z" transform="translate(-643.06 -471.115)"/><path class="w" d="M664.315,493.828a.562.562,0,0,1-.795.008l-7.8-6.957a.563.563,0,0,1-.082-.79h0a.563.563,0,0,1,.794-.008l7.8,6.956a.565.565,0,0,1,.083.79Z" transform="translate(-648.437 -477.759)"/><path class="w" d="M674.156,494.949l4.267-4.664,1.438-1.611a.681.681,0,0,0-.079-.927.73.73,0,0,0-.968-.007l0,0-1.44,1.614-4.266,4.662,0,0a.76.76,0,0,0,.063,1A.743.743,0,0,0,674.156,494.949Z" transform="translate(-657.819 -478.641)"/><path class="p" d="M673.956,500.367a1.788,1.788,0,1,1-1.788-1.787A1.788,1.788,0,0,1,673.956,500.367Z" transform="translate(-656.435 -484.569)"/><path class="w" d="M649.3,501.759a.773.773,0,1,1-.774-.773A.773.773,0,0,1,649.3,501.759Z" transform="translate(-644.263 -485.863)"/><path class="w" d="M698.351,501.759a.773.773,0,1,1-.773-.773A.773.773,0,0,1,698.351,501.759Z" transform="translate(-670.651 -485.863)"/><path class="w" d="M673.876,476.067a.773.773,0,1,1-.773-.772A.773.773,0,0,1,673.876,476.067Z" transform="translate(-657.484 -472.042)"/><path class="w" d="M673.876,526.844a.773.773,0,1,1-.773-.772A.773.773,0,0,1,673.876,526.844Z" transform="translate(-657.484 -499.359)"/></g><g transform="translate(162.404 375.426)"><path class="e" d="M221.736,585.558l-7.714-7.715,3.875-2.005a2.366,2.366,0,1,0-2.837-3.7l.009-.027a2.368,2.368,0,1,0-4.518.007l0,.01a2.365,2.365,0,1,0-2.825,3.71l3.874,2.005-7.715,7.715a12.622,12.622,0,1,0,17.851,0Z" transform="translate(-200.189 -569.039)"/><path class="z" d="M222.731,593.462a.592.592,0,0,1-.837-.838l2.83-2.83.837.836Z" transform="translate(-211.988 -580.413)"/><path class="z" d="M229.129,593.462a.592.592,0,0,0,.837-.838l-2.831-2.83-.836.836Z" transform="translate(-214.497 -580.413)"/><path class="g" d="M223.743,613.946l-.493,0v-4.12h.385a1.823,1.823,0,0,1,1.822,1.821h1.671a3.5,3.5,0,0,0-3.492-3.491h-.385v-1.248h-1.671v1.25a3.761,3.761,0,0,0-3.738,3.755,3.721,3.721,0,0,0,3.738,3.722v4.12h-.245a1.824,1.824,0,0,1-1.821-1.821h-1.672a3.5,3.5,0,0,0,3.492,3.49h.245v1.249h1.671v-1.249h.12a3.761,3.761,0,0,0,3.757-3.756v-.383a3.322,3.322,0,0,0-.993-2.379A3.377,3.377,0,0,0,223.743,613.946Zm-3.62-.568a2.035,2.035,0,0,1-.611-1.46,2.088,2.088,0,0,1,2.066-2.085v4.138A2.02,2.02,0,0,1,220.123,613.378Zm5.333,4.295a2.089,2.089,0,0,1-2.086,2.087h-.12v-4.138l.513-.006a1.645,1.645,0,0,1,1.2.482,1.666,1.666,0,0,1,.5,1.192Z" transform="translate(-209.862 -589.793)"/><path class="aa" d="M227.619,587.689a.592.592,0,0,1-.592.593H223.57a.592.592,0,1,1,0-1.184h3.458A.591.591,0,0,1,227.619,587.689Z" transform="translate(-212.677 -578.935)"/><path class="z" d="M227.143,586.733l-.048-.05a1.776,1.776,0,0,0-2.452,0l-.48.478-.479-.478a1.775,1.775,0,0,0-2.456,0l-.042.042a1.67,1.67,0,1,0,2.362,2.362l.615-.613.615.613a1.669,1.669,0,0,0,2.364-2.358Zm-4.252,1.7a.74.74,0,1,1-1.044-1.051l.04-.042a.806.806,0,0,1,1.14,0l.479.48Zm3.592,0a.759.759,0,0,1-1.048,0l-.615-.613.48-.48a.829.829,0,0,1,1.135,0l.048.047A.741.741,0,0,1,226.483,588.434Z" transform="translate(-211.427 -578.439)"/></g><g transform="translate(379.253 384.147)"><path class="e" d="M596.705,603.889A17.31,17.31,0,1,1,579.4,586.582,17.311,17.311,0,0,1,596.705,603.889Z" transform="translate(-562.086 -586.582)"/><path class="ab" d="M590.091,619.659l.013-.01c-.008-.008-.017-.014-.023-.021s0,0,0-.006v-3.267h3.312a2.341,2.341,0,0,1,.16.18l1.846,1.842a4.251,4.251,0,0,0-6.015-4.7L580.8,605.1a4.25,4.25,0,0,0-4.707-6l2.266,2.262c.024.021.074.071.124.119v3.284h-3.307l-2.372-2.37a4.25,4.25,0,0,0,6.015,4.694l8.58,8.577a4.252,4.252,0,0,0,4.707,6.006Z" transform="translate(-567.642 -593.076)"/><g transform="translate(6.237 3.728)"><path class="z" d="M575.543,640.272a1.256,1.256,0,0,0,1.779,0l2.2-2.2a1.255,1.255,0,0,0,0-1.778l-.024-.025a1.257,1.257,0,0,0-1.778,0l-2.2,2.2a1.258,1.258,0,0,0,0,1.777Z" transform="translate(-575.15 -616.088)"/><rect class="z" width="17.599" height="2.222" transform="matrix(0.707, -0.707, 0.707, 0.707, 4.086, 18.653)"/><path class="l" d="M576.278,634.184a2.529,2.529,0,0,0,3.576-.045l4.479-4.476c.765-.765.863-1.549.179-2.236l-1.344-1.344a1.491,1.491,0,0,0-2.419,0l-4.477,4.478a2.533,2.533,0,0,0-.043,3.579Z" transform="translate(-575.338 -610.63)"/><g transform="translate(11.388)"><path class="z" d="M600.469,598.394a.618.618,0,0,1-.873,0l-.41-.411a.614.614,0,0,1,0-.871l2.54-2.539a.612.612,0,0,1,.87,0l.412.41a.614.614,0,0,1,0,.87Z" transform="translate(-599.005 -594.392)"/><path class="l" d="M605.553,600.8l1.205-1.205a1.684,1.684,0,0,1-2.1-2.138l-.026-.027-1.341,1.34h0l-1.2,1.207a1.686,1.686,0,0,1,2.105,2.14l.026.024,1.34-1.34Z" transform="translate(-600.613 -595.98)"/><path class="z" d="M615.388,607.361s2.365,2.287,2.088,5.165a9.96,9.96,0,0,1-1.693,4.73h-1.024a9.4,9.4,0,0,0,.59-4.257,2.926,2.926,0,0,0-1.773-2.326,2.19,2.19,0,0,0-1.6.1l1.173-2.731Z" transform="translate(-605.786 -601.17)"/><path class="l" d="M612.369,604.344l-2.566-2.566a.627.627,0,0,0-.885-.015l-2.541,2.54a.627.627,0,0,0,.016.886l2.566,2.566Z" transform="translate(-602.767 -598.153)"/></g></g></g><g transform="translate(205.923 155.95)"><path class="i" d="M536.919,227.967c.876-1.324,2.072-7.493,2.072-7.493-.412.8-11.106-3.782-11.35-2.931l-2.124-4.854c.474-1.652-9.361,11.969-9.361,11.969a6.379,6.379,0,0,0,3.818,7.957s7.837,3.219,10.822,2.753C535.412,234.646,536.919,227.967,536.919,227.967Z" transform="translate(-374.585 -212.551)"/><path class="i" d="M409.43,395.666,391.435,384.1a4.488,4.488,0,0,1-3.477-4.379l-.482-9.612H366.384l-.494,10.02a4.143,4.143,0,0,1-3.5,3.885l-21.668,3.359a14.859,14.859,0,0,0-12.007,11.483s17.271,7.115,17.271,15.841v59.245h62.129V421.058a.984.984,0,0,1,1.019-.982,1.1,1.1,0,0,1,.294.066Z" transform="translate(-299.416 -275.83)"/><path class="l" d="M322.2,735.541l-3.01,9.315c-1.4,1.747-5.719,5.738-6.183,6.782-.458,1.029-.265,3.625-.265,5.4,0,2.864.908,2.864,2.831,2.864h18.377c6.183,0,8.967-6.338,11.509-9.039,1.716-1.826,1.581-3.9,1.581-7.4v-7.946Z" transform="translate(-292.983 -422.591)"/><path class="l" d="M364.08,747.449c0,1.43-.019,1.894-.935,2.792l-8.359,5.385-1.871-20.1h9.426c1.539,0,1.738,0,1.738,2.784Z" transform="translate(-309.135 -422.591)"/><path class="d" d="M347.959,738.306c0-2.131-.125-2.627-.89-2.749v-.035H322.2l-6.973,11.03c-1.894,2.693-2.453,3.811-2.453,6.763.021,2.759.926,2.771,2.826,2.771H333.28c7.081,0,8.7-5.6,10.754-7.572l3.925-3.055Z" transform="translate(-293.013 -422.591)"/><g transform="translate(100.696 312.931)"><path class="l" d="M474.358,735.541l3.01,9.315c1.4,1.747,5.719,5.738,6.183,6.782.458,1.029.266,3.625.266,5.4,0,2.864-.909,2.864-2.832,2.864H462.608c-6.183,0-8.967-6.338-11.509-9.039-1.715-1.826-1.581-3.9-1.581-7.4v-7.946Z" transform="translate(-448.628 -735.522)"/><path class="l" d="M448.032,747.449c0,1.43.019,1.894.935,2.792l8.358,5.385,1.871-20.1H449.77c-1.539,0-1.738,0-1.738,2.784Z" transform="translate(-448.032 -735.522)"/><path class="d" d="M448.032,738.306c0-2.131.125-2.627.89-2.749v-.035h24.867l6.973,11.03c1.894,2.693,2.453,3.811,2.453,6.763-.02,2.759-.926,2.771-2.826,2.771H462.711c-7.08,0-8.7-5.6-10.753-7.572l-3.925-3.055Z" transform="translate(-448.032 -735.522)"/></g><path class="i" d="M377.766,543.631h-31.04L329.963,659.265l22.008.042,21.573-92.434a3.256,3.256,0,0,1,3.264-2.965h.959Z" transform="translate(-299.916 -345.522)"/><path class="i" d="M409.851,543.631h31.088L457.7,658.193l-22.071-.032-21.555-91.289a3.26,3.26,0,0,0-3.265-2.965h-.959Z" transform="translate(-332.002 -345.522)"/><path class="ac" d="M357.976,529.787v18.262l26.563,14.632.255-1.368a3.256,3.256,0,0,1,3.263-2.965h1.917a3.26,3.26,0,0,1,3.265,2.965l.255,1.057L420.1,548.049V529.787Z" transform="translate(-311.167 -339.962)"/><path class="ad" d="M411.577,377.722l1.3-1.355-.312-6.261H391.474l-.288,5.872,1.675,1.75a7.946,7.946,0,0,0,5.71,2.429h3.718v0h3.58A7.931,7.931,0,0,0,411.577,377.722Z" transform="translate(-324.505 -275.83)"/><path class="z" d="M376.9,529.143h-.2l-31.091.2L327.662,652.751c0,1.756.954,1.787,1.857,1.787l21.309-.031c1.737-.034,3.258-.689,3.889-3.508L374.5,563.643c.169-3.769,4.041-3.618,4.212.15L398.6,651.6c.7,2.592,1.207,3.074,2.811,3.074l22.33-.011c2.514-.007,2.209-.956,2.209-2.01L408,529.344Z" transform="translate(-298.992 -339.703)"/><path class="ad" d="M436.242,330.731l1.237.075a4.461,4.461,0,0,1,3.387,5.088c-.425,2.569-.629,2.788-1.151,5.971-.74,4.505-4.425,3.037-4.425,3.037Z" transform="translate(-342.219 -260.015)"/><path class="ad" d="M379.54,330.731l-1.233.075a4.461,4.461,0,0,0-3.389,5.088c.425,2.569.629,2.788,1.153,5.971.737,4.505,4.424,3.037,4.424,3.037Z" transform="translate(-317.944 -260.015)"/><path class="i" d="M398.245,305.264v0l-16.786.07V337.3a8.4,8.4,0,0,0,2.335,5.8l5.161,5.374a7.933,7.933,0,0,0,5.71,2.433h3.718V350.9h3.58a7.935,7.935,0,0,0,5.708-2.431l5.163-5.373a8.408,8.408,0,0,0,2.334-5.806V305.335Z" transform="translate(-320.599 -249.787)"/><path class="c" d="M378,315.978V304.832c-.05-3.869,2.627-7.767,6.883-7.829h8.175c2.167.8.031,5.585,2.185,4.761l12.884-4.876c2.313-.5,3.64,1.509,3.64,3.374v15.585c0,.647,2.5-1.079,3.36-4.753l1.547-21.882c.057-2.969-.8-5.9-4.952-5.9l-9.352,0H389.689c-10.443-.182-18.309,4.911-16.553,16.134l2,12.437C375.5,314.767,378,316.551,378,315.978Z" transform="translate(-317.157 -240.971)"/><path class="l" d="M327.662,656.183c0,1.756.954,1.787,1.857,1.787l11.47-.016L358.94,537.688H345.613Z" transform="translate(-298.992 -343.135)"/><path class="l" d="M440.4,537.688,458.35,658.1l10.667,0c2.514-.007,2.209-.956,2.209-2.01L453.274,537.688Z" transform="translate(-344.271 -343.135)"/><path class="ae" d="M341.829,554.779a1.658,1.658,0,1,1-1.66-1.66A1.661,1.661,0,0,1,341.829,554.779Z" transform="translate(-303.35 -349.333)"/><path class="i" d="M521.828,225.622c-.8-.421-2.365-1.421-.822-2.583l4.74-.97c1.391-.817,3.1-1.407,2.565-3.088-.549-1.72-1.672-2.426-4.456-1.981,0,0-8.66.83-10.6,3.1-2.306,2.7-.424,12.4,2.33,14.106l8.781,3.338S527.835,228.767,521.828,225.622Z" transform="translate(-373.116 -214.286)"/><path class="af" d="M415.046,475.583l.518-45.689a.984.984,0,0,1,1.019-.982,1.1,1.1,0,0,1,.294.066V404.5l-17.994-11.569a3.674,3.674,0,0,1-1.774-.825l-.813.108-11.906,8.05-12.627-7.85-.659.011a4.1,4.1,0,0,1-1.266.421l-21.668,3.359c-.147.028-.29.066-.436.1l-.476,17.805c3.358,2.636,6.175,5.9,6.175,9.421v52.052Z" transform="translate(-306.863 -284.667)"/><path class="e" d="M326,396.121l-5.086.6c-7.72,1.6-11.568,5.686-18.35,12.866L281.423,430.8a5.728,5.728,0,0,0,1.821,9.32l35.675,15.137s2.776-11.8,2.992-14.361l-10.96-6.31a1.162,1.162,0,0,1,.2-2.1l14.251-4.95Z" transform="translate(-279.749 -286.278)"/><g transform="translate(25.401 23.052)"><path class="e" d="M352.323,445.095l3.59-36.8-.539-14.639-12.626,1.55L322.4,486.982c-.3.878-.524,2.841,1.2,3.589l20.85,7.785a1.329,1.329,0,0,0,1.785-1.091Z" transform="translate(-322.198 -308.34)"/><path class="e" d="M482.785,251.076,447.31,329.39l-10.976,6.182-1.291,7.38,3.889,42.484,5.077,54.035a1.351,1.351,0,0,0,1.769,1.157l23.073-7.621c.8,0,1.613.236,1.613-2.274L458.08,375.066c-1.4-6.981-.2-12.366,1.995-20.544l36.471-97.262Z" transform="translate(-367.52 -251.076)"/></g><path class="y" d="M373.841,391.746l-7.031.449a2.9,2.9,0,0,0-1.285.444,3.764,3.764,0,0,0-.312.506l-3.639,8.882c-.726,1.892-.634,2.279.989,2.9l5.6,2.142-7.651,4.47c-2.288,1.23-1.742,2.358-1.265,3.928l6.887,36.139Z" transform="translate(-311.509 -284.521)"/><path class="y" d="M433.543,389.621l5.567.6a1.719,1.719,0,0,1,.548.083,1.8,1.8,0,0,1,.392.439l4.1,10.975c.695,1.905.6,2.291-1.038,2.887l-5.64,2.049,7.577,4.6c2.267,1.268,1.7,2.386,1.2,3.949l-7.117,34.759Z" transform="translate(-341.517 -283.667)"/><path class="i" d="M345.437,466.78l5.638-11.041a3.913,3.913,0,0,1,4.752-1.92l4.053,1.389a5.319,5.319,0,0,1,3.558,4.474l.714,6.9a5.789,5.789,0,0,1-1.662,4.68l-.05.05c-1.046,1.047-2.992-.6-4.039-1.646a1.362,1.362,0,0,0-1.91-.015l-5.325,7.032c-1.535,1.484-3.217,1.463-5.331,1.161l-2.792-.8Z" transform="translate(-305.17 -309.366)"/><path class="g" d="M511.7,244.161c.476-1.251.993-1.4,2.147-1.079l13.374,3.643c1.119.312,1.212.676.867,1.934l-1.815,6.659c-.342,1.257-.38,1.7-1.988,1.263l-14.422-3.929c-1.086-.3-.954-.829-.5-2.006Z" transform="translate(-371.834 -224.755)"/><path class="g" d="M338.429,482.07c1.119.094,1.438-.31,1.675-1.482l2.769-13.582c.226-1.139,0-1.376-1.075-1.592l-3.541-1.4c-1.068-.218-1.912-.471-2.244,1.162L331.4,480.169c-.223,1.1.813,1.51,1.867,1.6Z" transform="translate(-300.483 -313.482)"/><path class="ae" d="M514.788,250.637a1.658,1.658,0,1,1,1.166,2.036A1.657,1.657,0,0,1,514.788,250.637Z" transform="translate(-374.124 -227.356)"/><path class="ag" d="M380.278,417.01l2.061-4.168-4.186-7.318v-.174l-.05.089-.048-.089v.174l-4.184,7.318,2.085,4.279a2.145,2.145,0,0,1,.306,2.133s-.914,4.567-11.743,3.811c-12.865-.9-23.735-16.355-23.735-16.355l-9.574,1.2,6.283,7.928s17.486,13.719,31.015,12.216C377.484,427.055,379.938,417.684,380.278,417.01Z" transform="translate(-300.417 -289.985)"/><g transform="translate(61.888 101.961)"><path class="g" d="M387.845,383.836c-.892-1.029-1.3-1.3-1.921-.068l-2.33,3.769a2.81,2.81,0,0,0-.028,2.9l9.077,15.338c.686,1.167,1.236,1.094,1.853-.071l4.387-9.119Z" transform="translate(-383.177 -382.949)"/><path class="g" d="M420.352,383.836c.891-1.029,1.3-1.3,1.919-.068l2.331,3.769a2.809,2.809,0,0,1,.029,2.9l-9.077,15.338c-.686,1.167-1.237,1.094-1.853-.071l-4.388-9.119Z" transform="translate(-393.674 -382.949)"/></g></g></g></g></svg>