<svg xmlns="http://www.w3.org/2000/svg" width="172" height="154" viewBox="0 0 172 154"><defs><style>.a{fill:#fff;opacity:0.949;}.b{fill:#ffddce;}.c{fill:#ffcbbe;}.d{fill:#407093;}.e{fill:#365e7d;}.f{fill:#eaac9d;}.g{fill:#d0cee7;}.h{fill:#beb9dd;}.i{fill:#ffbba7;}.j{fill:#ff805a;}.k{fill:#475365;}.l{fill:#e5ab9d;}.m{fill:#dd636e;}.n{fill:#da4a54;}.o{fill:#c84545;}.p{fill:#f9f6f9;}.q{fill:#dddaec;}.r{fill:#ffdd80;}.s{fill:#3f4c4f;}.t{fill:#f2f2f2;opacity:0.52;}</style></defs><g transform="translate(-259 -458)"><g transform="translate(259.273 457.992)"><rect class="a" width="172" height="154" transform="translate(-0.273 0.008)"/></g><g transform="translate(272.712 476.118)"><g transform="translate(28.539 51.411)"><path class="b" d="M124.694,187.737H119.98a7.754,7.754,0,0,1-7.754-7.754v-6.891a4.828,4.828,0,0,1,4.828-4.828h.667a6.973,6.973,0,0,1,6.973,6.973v12.5Z" transform="translate(-112.226 -168.264)"/></g><path class="c" d="M123.578,168.264h-.667a4.8,4.8,0,0,0-2.83.923,6.969,6.969,0,0,1,3.509,6.051V187.4a7.754,7.754,0,0,0,2.248.332h4.714v-12.5A6.973,6.973,0,0,0,123.578,168.264Z" transform="translate(-89.544 -116.853)"/><g transform="translate(89.194 51.411)"><path class="b" d="M350.746,187.737h4.714a7.754,7.754,0,0,0,7.754-7.754v-6.891a4.828,4.828,0,0,0-4.828-4.828h-.667a6.973,6.973,0,0,0-6.973,6.973v12.5Z" transform="translate(-350.746 -168.264)"/></g><g transform="translate(89.194 51.411)"><path class="b" d="M350.746,187.737h4.714a7.754,7.754,0,0,0,7.754-7.754v-6.891a4.828,4.828,0,0,0-4.828-4.828h-.667a6.973,6.973,0,0,0-6.973,6.973v12.5Z" transform="translate(-350.746 -168.264)"/></g><path class="c" d="M361.3,168.264h-.667a6.975,6.975,0,0,0-1.671.2,4.828,4.828,0,0,1,3.446,4.625v6.891a7.754,7.754,0,0,1-7.754,7.754h3.719a7.754,7.754,0,0,0,7.754-7.754v-6.891A4.828,4.828,0,0,0,361.3,168.264Z" transform="translate(-264.469 -116.853)"/><g transform="translate(0.001 99.654)"><path class="d" d="M128.917,394.2a1.278,1.278,0,0,0,1.212-1.69,51.428,51.428,0,0,0-48.574-34.537H48.646A51.428,51.428,0,0,0,.071,392.514a1.278,1.278,0,0,0,1.212,1.69H60.389l4.639-1.519,4.783,1.519Z" transform="translate(-0.001 -357.977)"/></g><g transform="translate(68.741 99.654)"><path class="e" d="M331.705,392.516a51.428,51.428,0,0,0-48.574-34.537H270.317a51.428,51.428,0,0,1,48.574,34.537,1.278,1.278,0,0,1-1.213,1.69h12.814A1.278,1.278,0,0,0,331.705,392.516Z" transform="translate(-270.317 -357.978)"/></g><g transform="translate(45.344 85.362)"><path class="c" d="M216.915,320.786H179.247l-.939-4.72V301.773h39.514v14.293Z" transform="translate(-178.308 -301.773)"/></g><g transform="translate(76.845 85.362)"><path class="f" d="M302.186,301.773v19.013h7.1l.907-4.72V301.773Z" transform="translate(-302.186 -301.773)"/></g><g transform="translate(45.344 99.654)"><path class="g" d="M216.5,367.743a11.772,11.772,0,0,0,1.322-5.419v-4.346l-18.487,3.743a6.4,6.4,0,0,1-2.539,0l-18.487-3.743v4.346a11.772,11.772,0,0,0,1.322,5.419l13.724,26.462h9.423Z" transform="translate(-178.308 -357.978)"/></g><g transform="translate(62.257 99.654)"><path class="h" d="M263.16,358.84l-18.341,35.365h7.555L266.1,367.743a11.772,11.772,0,0,0,1.322-5.419v-4.346Z" transform="translate(-244.819 -357.978)"/></g><g transform="translate(37.197 33.792)"><path class="b" d="M190.838,153.782l-4.916,2.555-2.443,1.136a32.788,32.788,0,0,1-3.578,1.642,19.4,19.4,0,0,1-14.67-1.323l-7.715-4.01a20.865,20.865,0,0,1-11.242-18.513V118.8l1.48-2.2-1.48-1.638v-3.316l1.551-12.664H200.8l1.281,12.664v3.316l-1.043,1.96,1.043,1.879v16.469A20.865,20.865,0,0,1,190.838,153.782Z" transform="translate(-146.274 -98.981)"/></g><g transform="translate(70.824 33.792)"><path class="c" d="M293.346,98.98v39.751A20.865,20.865,0,0,1,282.1,157.244l-3.6,1.869a19.4,19.4,0,0,0,3.223-1.322l7.715-4.01a20.865,20.865,0,0,0,11.242-18.513V118.8l-1.043-1.879,1.043-1.96v-3.316L299.406,98.98h-6.06Z" transform="translate(-278.508 -98.98)"/></g><g transform="translate(37.197 16.49)"><path class="i" d="M158.741,49.193l.743.009,11.157-1.293,15.416,1.284h3.557A12.493,12.493,0,0,1,202.08,60.908V46.942a16,16,0,0,0-16-16h-23.8a16,16,0,0,0-16,16V60.908A12.492,12.492,0,0,1,158.741,49.193Z" transform="translate(-146.274 -30.941)"/></g><g transform="translate(69.659 16.49)"><path class="j" d="M281.271,30.94h-7.343a16,16,0,0,1,16,16v3.35a12.5,12.5,0,0,1,7.343,10.616V46.941A16,16,0,0,0,281.271,30.94Z" transform="translate(-273.928 -30.94)"/></g><g transform="translate(49.322 52.739)"><circle class="k" cx="2.964" cy="2.964" r="2.964"/><g transform="translate(25.628)"><circle class="k" cx="2.964" cy="2.964" r="2.964"/></g></g><g transform="translate(58.328 74.745)"><path class="l" d="M240.995,263.862h-9.705a1.919,1.919,0,0,1,0-3.838h9.705a1.919,1.919,0,1,1,0,3.838Z" transform="translate(-229.37 -260.024)"/></g><g transform="translate(60.538 115.098)"><path class="m" d="M245.571,418.708h-5.9l-1.612,20.784h9.125Z" transform="translate(-238.058 -418.708)"/></g><g transform="translate(65.028 115.098)"><path class="n" d="M258.74,418.708h-3.023l1.612,20.784h3.023Z" transform="translate(-255.717 -418.708)"/></g><g transform="translate(59.479 106.466)"><path class="n" d="M245.138,384.763H233.9v5.473a3.409,3.409,0,0,0,.73,2.108l1.312,1.667a2.559,2.559,0,0,0,2.011.976h3.136a2.559,2.559,0,0,0,2.011-.976l1.312-1.667a3.409,3.409,0,0,0,.73-2.108Z" transform="translate(-233.896 -384.763)"/></g><g transform="translate(60.022 106.466)"><path class="o" d="M244.137,384.763V387.5a3.407,3.407,0,0,1-.73,2.108l-1.312,1.667a2.559,2.559,0,0,1-2.011.976h-3.136a2.554,2.554,0,0,1-.92-.174c.058.091.12.18.188.266l1.312,1.667a2.559,2.559,0,0,0,2.011.976h3.136a2.559,2.559,0,0,0,2.011-.976L246,392.344a3.408,3.408,0,0,0,.73-2.108v-5.473Z" transform="translate(-236.028 -384.763)"/></g><g transform="translate(45.343 99.654)"><path class="p" d="M184.931,374.768l12.379-9.023a1.28,1.28,0,0,1,1.507,0l12.38,9.024a1.279,1.279,0,0,0,1.889-.445l3.412-6.58a11.771,11.771,0,0,0,1.322-5.419v-4.346l-18.487,3.743a6.4,6.4,0,0,1-2.539,0l-18.487-3.743v4.346a11.77,11.77,0,0,0,1.322,5.419l3.412,6.579a1.28,1.28,0,0,0,1.89.445Z" transform="translate(-178.307 -357.978)"/></g><g transform="translate(75.391 99.654)"><path class="q" d="M300.854,359.005v2.67a10.493,10.493,0,0,1-1.178,4.83l-3.21,6.189,2.843,2.072a1.279,1.279,0,0,0,1.889-.445l3.412-6.58a11.771,11.771,0,0,0,1.322-5.419v-4.346Z" transform="translate(-296.466 -357.977)"/></g><g transform="translate(37.197 11.562)"><path class="j" d="M186.056,34.742s0-13.615-.008-13.753A9.9,9.9,0,0,0,173.484,12l-4.017,1.1a34.321,34.321,0,0,1-22.311-1.419l-.212-.088a.484.484,0,0,0-.671.447v9.366a13.333,13.333,0,0,0,13.279,13.339Z" transform="translate(-146.273 -11.562)"/></g><g transform="translate(63.666 11.642)"><path class="i" d="M256.961,21.225c.006.136.008,13.755.008,13.755l6.7,0s0-13.615-.008-13.753A9.9,9.9,0,0,0,251.1,12.239l-.743.2A9.741,9.741,0,0,1,256.961,21.225Z" transform="translate(-250.358 -11.878)"/></g><g transform="translate(89.566 124.55)"><path class="e" d="M369.671,459.717H354.128a1.919,1.919,0,0,1,0-3.838h15.542a1.919,1.919,0,0,1,0,3.838Z" transform="translate(-352.209 -455.879)"/></g><path class="j" d="M202.079,148.4h-6.422a10.5,10.5,0,0,0-18.409,2H171.1a10.5,10.5,0,0,0-18.409-2h-6.422v3.838h4.792a10.507,10.507,0,1,0,20.8,2.093c0-.031,0-.062,0-.093h4.619c0,.031,0,.062,0,.093a10.507,10.507,0,1,0,20.8-2.093h4.792V148.4ZM161.362,161a6.669,6.669,0,1,1,6.669-6.669A6.676,6.676,0,0,1,161.362,161Zm25.628,0a6.669,6.669,0,1,1,6.669-6.669A6.676,6.676,0,0,1,186.99,161Z" transform="translate(-109.076 -98.629)"/></g><g transform="translate(371 469.216)"><path class="r" d="M43.937,21.976A21.974,21.974,0,0,1,16.3,43.2,56.4,56.4,0,0,1,1.13,45.069c2.872,0,5.3-3.674,6.654-6.318A21.968,21.968,0,1,1,43.938,21.976Z" transform="translate(0 0)"/><path class="s" d="M26.814,34.049H25.261V26.2a.776.776,0,0,1,.777-.777,6.285,6.285,0,1,0-6.286-6.285H18.2a7.839,7.839,0,1,1,8.616,7.8Z" transform="translate(-4.067 -2.526)"/><path class="s" d="M27.293,43.055h1.553v1.911H27.293Z" transform="translate(-6.099 -9.622)"/><path class="t" d="M49.213,21.976a21.958,21.958,0,0,1-21.96,21.96,21.611,21.611,0,0,1-3.642-.3,21.412,21.412,0,0,0,7.261-2.594A21.979,21.979,0,0,0,23.627.3,21.494,21.494,0,0,1,27.253,0a21.976,21.976,0,0,1,21.96,21.976Z" transform="translate(-5.276)"/></g></g></svg>