<svg xmlns="http://www.w3.org/2000/svg" width="120" height="120" viewBox="0 0 120 120"><defs><style>.a{fill:#e5f4ff;}.b{fill:#fff;}.c{fill:#53d48c;}.d{fill:#628db2;}.e{fill:#cee5f4;}.f{fill:#ffab1e;}.g{fill:#ffd886;}.h{fill:#d16a15;}.i{fill:#e57917;}.j{fill:none;}</style></defs><g transform="translate(7665 5746)"><g transform="translate(-7639.5 -5729.09)"><path class="a" d="M66.377,10.92V82.025A5.026,5.026,0,0,1,61.35,87.05H5.525A5.025,5.025,0,0,1,.5,82.025v-77A5.024,5.024,0,0,1,5.525,0H55.459A.663.663,0,0,1,55.927.2L66.182,10.453A.657.657,0,0,1,66.377,10.92Zm0,0" transform="translate(0 -0.003)"/><path class="b" d="M56.357,54.891a6.313,6.313,0,1,1-6.313-6.313A6.313,6.313,0,0,1,56.357,54.891Zm0,0" transform="translate(-35.875 -40.313)"/><path class="c" d="M69.544,46.33a1.313,1.313,0,0,1-.93-.385l-1.305-1.306a1.315,1.315,0,0,1,1.86-1.86l.376.376,7.114-7.114a1.315,1.315,0,0,1,1.86,1.86l-8.044,8.044A1.311,1.311,0,0,1,69.544,46.33Zm0,0" transform="translate(-55.121 -29.589)"/><path class="d" d="M180.513,64.936H151.2a1.316,1.316,0,0,1,0-2.631h29.311a1.316,1.316,0,0,1,0,2.631Zm0,0" transform="translate(-123.969 -51.704)"/><path class="d" d="M162.783,96.224H151.2a1.315,1.315,0,0,1,0-2.631h11.581a1.315,1.315,0,0,1,0,2.631Zm0,0" transform="translate(-123.969 -77.669)"/><path class="b" d="M56.357,170.449a6.313,6.313,0,1,1-6.313-6.313A6.313,6.313,0,0,1,56.357,170.449Zm0,0" transform="translate(-35.875 -136.209)"/><path class="c" d="M69.544,161.886a1.311,1.311,0,0,1-.93-.385L67.308,160.2a1.315,1.315,0,0,1,1.86-1.861l.376.376,7.114-7.114a1.315,1.315,0,0,1,1.86,1.86L70.474,161.5A1.309,1.309,0,0,1,69.544,161.886Zm0,0" transform="translate(-55.121 -125.484)"/><path class="d" d="M180.513,180.494H151.2a1.315,1.315,0,0,1,0-2.631h29.311a1.315,1.315,0,1,1,0,2.631Zm0,0" transform="translate(-123.969 -147.6)"/><path class="d" d="M162.783,211.783H151.2a1.315,1.315,0,0,1,0-2.631h11.581a1.315,1.315,0,0,1,0,2.631Zm0,0" transform="translate(-123.969 -173.566)"/><path class="b" d="M56.357,290.595a6.313,6.313,0,1,1-6.313-6.313A6.313,6.313,0,0,1,56.357,290.595Zm0,0" transform="translate(-35.875 -235.912)"/><path class="e" d="M167.859,39.854h0V10.917a.661.661,0,0,0-.193-.468L157.409.193A.664.664,0,0,0,156.941,0h-6.2a.662.662,0,0,1,.467.193l6.541,6.541a13.346,13.346,0,0,1,3.909,9.437V26.952a12.9,12.9,0,0,1-12.9,12.9h-7.1a7.7,7.7,0,0,0-6.614,3.758,34.656,34.656,0,0,0-3.881,9.454l-8.372,33.981h40.044a5.03,5.03,0,0,0,5.026-5.025Zm0,0" transform="translate(-101.482)"/><path class="d" d="M159.291,300.642H151.2a1.315,1.315,0,0,1,0-2.631h8.089a1.315,1.315,0,0,1,0,2.631Zm0,0" transform="translate(-123.969 -247.306)"/><path class="d" d="M159.017,331.931H151.2a1.315,1.315,0,1,1,0-2.631h7.815a1.315,1.315,0,1,1,0,2.631Zm0,0" transform="translate(-123.969 -273.271)"/><path class="b" d="M56.357,401.466a6.313,6.313,0,1,1-6.313-6.313A6.313,6.313,0,0,1,56.357,401.466Zm0,0" transform="translate(-35.875 -327.918)"/><path class="d" d="M159.291,411.513H151.2a1.315,1.315,0,0,1,0-2.631h8.089a1.315,1.315,0,0,1,0,2.631Zm0,0" transform="translate(-123.969 -339.313)"/><path class="d" d="M159.291,442.8H151.2a1.315,1.315,0,0,1,0-2.631h8.089a1.315,1.315,0,0,1,0,2.631Zm0,0" transform="translate(-123.969 -365.275)"/><path class="f" d="M244.338,269.011H205.16l3.76-6.309a.784.784,0,0,1,.673-.382H239.92a.783.783,0,0,1,.674.383Zm0,0" transform="translate(-169.838 -217.687)"/><path class="g" d="M243.079,337.436H206.412a1.256,1.256,0,0,1-1.255-1.255V301.645h39.178V336.18A1.256,1.256,0,0,1,243.079,337.436Zm0,0" transform="translate(-169.835 -250.321)"/><path class="h" d="M304.14,269.011h-9.179l1.054-6.691h6.956Zm0,0" transform="translate(-244.359 -217.687)"/><path class="i" d="M294.961,301.645h9.179V314.89l-4.589-3.419-4.59,3.419Zm0,0" transform="translate(-244.359 -250.321)"/></g><rect class="j" width="120" height="120" transform="translate(-7665 -5746)"/></g></svg>