<svg xmlns="http://www.w3.org/2000/svg" width="84.757" height="86.037" viewBox="0 0 84.757 86.037"><defs><style>.a{fill:#ffddce;}.b{fill:#ffcbbe;}.c{fill:#ffbba7;}.d{fill:#ff805a;}.e{fill:#f6bf28;}.f{fill:#ffdf86;}.g{fill:#80b4fb;}.h{fill:#080808;}.i{fill:#0b0b0b;}.j{fill:#365e7d;}</style></defs><g transform="translate(-3.807)"><path class="a" d="M134.552,338.67l2.383.687a61.344,61.344,0,0,0,55.992-11.579,3.654,3.654,0,0,0,.163-5.5l-.074-.068a5.005,5.005,0,0,0-6.013-.62l-7.834,4.765a31.237,31.237,0,0,1-26.375,2.858,4.691,4.691,0,0,1-1.174-8.275l8.147-5.725A3.461,3.461,0,0,0,157.035,309l-22.483,4.933-3.709,4.005v17Z" transform="translate(-105.694 -257.022)"/><path class="b" d="M251.617,314.265l-8.147,5.725a4.694,4.694,0,0,0-1.157,6.526,4.694,4.694,0,0,1,1.352-1.453l8.147-5.725a3.454,3.454,0,0,0,.259-5.459A3.457,3.457,0,0,1,251.617,314.265Z" transform="translate(-197.739 -261.146)"/><path class="b" d="M193.127,388.668a3.67,3.67,0,0,1-.4.386,61.345,61.345,0,0,1-55.992,11.579l-2.383-.687-3.514-3.537v4.877l3.709,3.734,2.383.687a61.344,61.344,0,0,0,55.992-11.579,3.652,3.652,0,0,0,.2-5.46Z" transform="translate(-105.693 -323.371)"/><path class="c" d="M5.142,348.608H26.82a2.038,2.038,0,0,0,2.038-2.038V317.63a2.038,2.038,0,0,0-2.038-2.038H5.142a1.335,1.335,0,0,0-1.335,1.335v30.345a1.336,1.336,0,0,0,1.335,1.336Z" transform="translate(0 -262.572)"/><path class="d" d="M28.859,346.57V317.63a2.038,2.038,0,0,0-2.038-2.038H24.542v26.065a2.038,2.038,0,0,1-2.038,2.038H3.808v3.578a1.335,1.335,0,0,0,1.335,1.335H26.821A2.038,2.038,0,0,0,28.859,346.57Z" transform="translate(-0.001 -262.572)"/><path class="e" d="M228.428,118.591,248.1,99.674a2.544,2.544,0,0,0,.27-3.364l-6.691-8.894a2.545,2.545,0,0,0-2.033-1.015H213.681a2.544,2.544,0,0,0-2.033,1.015l-6.691,8.894a2.545,2.545,0,0,0,.27,3.364L224.9,118.59A2.544,2.544,0,0,0,228.428,118.591Z" transform="translate(-166.931 -71.885)"/><path class="f" d="M340.825,96.31l-6.691-8.894A2.545,2.545,0,0,0,332.1,86.4H325a2.544,2.544,0,0,1,2.033,1.015l6.691,8.894a2.545,2.545,0,0,1-.27,3.364l-17.888,17.2,1.787,1.718a2.544,2.544,0,0,0,3.527,0l19.675-18.916A2.545,2.545,0,0,0,340.825,96.31Z" transform="translate(-259.383 -71.885)"/><g transform="translate(58.455 0)"><path class="g" d="M330.368,7.578A1.279,1.279,0,0,1,329.089,6.3V1.279a1.279,1.279,0,0,1,2.558,0V6.3A1.279,1.279,0,0,1,330.368,7.578Z" transform="translate(-329.089 0)"/></g><g transform="translate(44.16 3.266)"><path class="h" d="M248.537,25.76a1.276,1.276,0,0,1-.967-.442l-3.258-3.763a1.279,1.279,0,0,1,1.934-1.674l3.258,3.763a1.279,1.279,0,0,1-.967,2.116Z" transform="translate(-244 -19.439)"/><g transform="translate(25.333 0)"><path class="h" d="M396.065,25.761a1.279,1.279,0,0,1-.966-2.116l3.258-3.763a1.279,1.279,0,0,1,1.934,1.674l-3.258,3.763a1.276,1.276,0,0,1-.968.442Z" transform="translate(-394.787 -19.44)"/></g></g><path class="i" d="M243.067,89.208l-6.691-8.894a3.843,3.843,0,0,0-3.055-1.525H207.352a3.842,3.842,0,0,0-3.055,1.525l-6.691,8.894a3.827,3.827,0,0,0,.405,5.055l19.675,18.916a3.813,3.813,0,0,0,5.3,0l19.675-18.916a3.827,3.827,0,0,0,.405-5.055Zm-32.959,3.6,7.431,16.681L200.189,92.808Zm2.8,0h14.856l-7.428,16.675Zm17.657,0h9.918l-17.349,16.68Zm3.767-10.957,6.318,8.4H230.5l-2.7-8.9h5.521A1.272,1.272,0,0,1,234.332,81.852Zm-9.2-.5,2.7,8.9H212.849l2.7-8.9Zm-18.786.5a1.272,1.272,0,0,1,1.011-.5h5.521l-2.7,8.9H200.023Z" transform="translate(-160.602 -65.552)"/><g transform="translate(18.529 71.883)"><path class="j" d="M92.713,433.2a1.279,1.279,0,0,1-1.279-1.279v-2.774a1.279,1.279,0,1,1,2.558,0v2.774A1.279,1.279,0,0,1,92.713,433.2Z" transform="translate(-91.434 -427.867)"/></g></g></svg>