<svg xmlns="http://www.w3.org/2000/svg" width="68" height="67.953" viewBox="0 0 68 67.953"><defs><style>.a{fill:#ff7e92;}.b{fill:#ff5f7a;}.c{fill:#f2d1ff;}.d{fill:#dfbdf0;}.e{fill:#ffe077;}.f{fill:#ffd05b;}.g{fill:#b8eb7c;}.h{fill:#12263f;}.i{fill:#98db7c;}.j{fill:#fff;}</style></defs><g transform="translate(-401 -3243)"><g transform="translate(401 3242.821)"><path class="a" d="M334.689,252.574a12.7,12.7,0,0,1-2.734,7.89c-2.335,2.96-5.954,4.125-10.016,4.125-7.042,0-11.956-4.974-11.956-12.015,0-4.06,1.1-7.678,4.061-10.013a12.751,12.751,0,0,1,20.644,10.012Z" transform="translate(-268.814 -207.818)"/><path class="b" d="M318.878,281.072a12.752,12.752,0,0,1-10.019-20.638,12.75,12.75,0,1,0,17.91,17.9A12.7,12.7,0,0,1,318.878,281.072Z" transform="translate(-263.628 -225.69)"/><path class="c" d="M110.689,252.574a12.7,12.7,0,0,1-2.734,7.89c-2.335,2.96-5.954,4.125-10.016,4.125-7.042,0-11.956-4.974-11.956-12.015,0-4.06,1.1-7.678,4.061-10.013a12.751,12.751,0,0,1,20.644,10.012Z" transform="translate(-74.563 -207.818)"/><path class="d" d="M94.878,281.072a12.752,12.752,0,0,1-10.019-20.638,12.75,12.75,0,1,0,17.91,17.9,12.7,12.7,0,0,1-7.891,2.735Z" transform="translate(-69.378 -225.69)"/><path class="e" d="M334.689,28.575a12.7,12.7,0,0,1-2.734,7.89c-2.335,2.96-5.954,4.125-10.016,4.125-7.042,0-11.956-4.974-11.956-12.015,0-4.06,1.1-7.678,4.061-10.013a12.751,12.751,0,0,1,20.644,10.012Z" transform="translate(-268.814 -13.568)"/><path class="f" d="M318.878,57.073a12.752,12.752,0,0,1-10.019-20.638,12.75,12.75,0,1,0,17.91,17.9A12.7,12.7,0,0,1,318.878,57.073Z" transform="translate(-263.628 -31.441)"/><path class="g" d="M110.689,28.575a12.7,12.7,0,0,1-2.734,7.89C105.62,39.425,102,40.59,97.939,40.59c-7.042,0-11.956-4.974-11.956-12.015,0-4.06,1.1-7.678,4.061-10.013a12.751,12.751,0,0,1,20.644,10.012Z" transform="translate(-74.563 -13.568)"/><path class="h" d="M67.413,62.931l-6.375-3.187a1.063,1.063,0,0,0-.95,1.9l2.349,1.175H5.313V5.695L6.487,8.044a1.063,1.063,0,1,0,1.9-.95L5.2.719a1.106,1.106,0,0,0-1.9,0L.113,7.094a1.063,1.063,0,1,0,1.9.95L3.188,5.695V62.819H1.063a1.062,1.062,0,1,0,0,2.125H3.188v2.125a1.062,1.062,0,0,0,2.125,0V64.944H62.437l-2.349,1.175a1.063,1.063,0,0,0,.95,1.9l6.375-3.187a1.063,1.063,0,0,0,0-1.9Z" transform="translate(0 0)"/><path class="i" d="M94.878,57.073A12.752,12.752,0,0,1,84.858,36.435a12.75,12.75,0,1,0,17.91,17.9,12.7,12.7,0,0,1-7.891,2.735Z" transform="translate(-69.378 -31.441)"/></g><path class="j" d="M8.235-2.391H4.008L3.27,0h-3.3L4.667-12.8h2.9L12.3,0H8.982ZM4.746-4.772H7.5L6.117-9.211Z" transform="translate(448 3262.797)"/><path class="j" d="M9.026-5.1H4.052V0H.967V-12.8H9.527v2.382H4.052v2.944H9.026Z" transform="translate(419.958 3293)"/><path class="j" d="M11.8-6.135a7.546,7.546,0,0,1-.694,3.313A5.132,5.132,0,0,1,9.136-.6,5.494,5.494,0,0,1,6.223.176a5.572,5.572,0,0,1-2.9-.751A5.123,5.123,0,0,1,1.349-2.725,7.329,7.329,0,0,1,.606-5.933v-.721A7.58,7.58,0,0,1,1.3-9.971,5.119,5.119,0,0,1,3.274-12.19a5.533,5.533,0,0,1,2.931-.782,5.479,5.479,0,0,1,2.9.773A5.211,5.211,0,0,1,11.087-10,7.362,7.362,0,0,1,11.8-6.724ZM8.666-6.671a5.381,5.381,0,0,0-.637-2.9,2.044,2.044,0,0,0-1.824-.989q-2.32,0-2.452,3.48l-.009.94a5.535,5.535,0,0,0,.624,2.892A2.041,2.041,0,0,0,6.223-2.232a2.016,2.016,0,0,0,1.8-.993,5.383,5.383,0,0,0,.642-2.856Z" transform="translate(419 3262.973)"/><path class="j" d="M.967,0V-12.8H5.089a6.064,6.064,0,0,1,3.05.769,5.406,5.406,0,0,1,2.114,2.171,6.554,6.554,0,0,1,.769,3.142v.589a6.592,6.592,0,0,1-.743,3.151A5.429,5.429,0,0,1,8.187-.8a5.93,5.93,0,0,1-3.01.8ZM4.052-10.415v8.042H5.124a2.4,2.4,0,0,0,2.039-.945,4.63,4.63,0,0,0,.712-2.808V-6.68a4.592,4.592,0,0,0-.712-2.795,2.442,2.442,0,0,0-2.074-.94Z" transform="translate(449.274 3293)"/></g></svg>