<svg xmlns="http://www.w3.org/2000/svg" width="120" height="120" viewBox="0 0 120 120"><defs><style>.a{fill:#fa6450;}.b{fill:#dc4632;}.c{fill:#be2814;}.d{fill:#f0f0f0;}.e{fill:#fab400;}.f{fill:#dc9600;}.g{fill:#505050;}.h{fill:#64c8f0;}.i{fill:#46aad2;}.j{fill:none;}</style></defs><g transform="translate(7438 5847)"><g transform="translate(-7422.201 -5834.37)"><g transform="translate(4 4)"><g transform="translate(11.367 17.051)"><path class="a" d="M60.311,24.525H58.645L57.469,25.7v8.77a4.268,4.268,0,0,1-4.263,4.263H50.364A4.268,4.268,0,0,1,46.1,34.472V24.525a5.689,5.689,0,0,1-5.684-5.684V16A28.447,28.447,0,1,0,60.7,24.525Z" transform="translate(-12 -16)"/></g><g transform="translate(11.367 17.051)"><path class="b" d="M14.842,44.418A28.369,28.369,0,0,1,40.418,16.212V16a28.418,28.418,0,1,0,0,56.836c.48,0,.948-.048,1.421-.072A28.393,28.393,0,0,1,14.842,44.418Z" transform="translate(-12 -16)"/></g><g transform="translate(17.051 22.734)"><path class="c" d="M55.785,32.788a4.268,4.268,0,0,1-4.263,4.263H48.681a4.268,4.268,0,0,1-4.263-4.263V22.842a5.667,5.667,0,0,1-4.871-2.8c-.273-.01-.539-.041-.813-.041a22.789,22.789,0,1,0,17.051,7.731Z" transform="translate(-16 -20)"/></g><g transform="translate(22.734 28.418)"><path class="a" d="M49.839,35.367H47A4.268,4.268,0,0,1,42.734,31.1V24.992a17.034,17.034,0,1,0,9.951,9.263A4.231,4.231,0,0,1,49.839,35.367Z" transform="translate(-20 -24)"/></g><g transform="translate(28.418 34.102)"><path class="c" d="M41.062,29.54a11.388,11.388,0,1,0,4.132,4.131,4.254,4.254,0,0,1-4.132-4.131Z" transform="translate(-24 -28)"/></g><g transform="translate(34.217 40.168)"><circle class="a" cx="5.703" cy="5.703" r="5.703" transform="translate(0 0)"/></g><g transform="translate(14.209 44.048)"><path class="d" d="M38.155,37.842H14V35H38.155a1.421,1.421,0,1,1,0,2.842Z" transform="translate(-14 -35)"/></g><g transform="translate(0 39.785)"><path class="e" d="M16.8,32.955l5.32,3.547a1.42,1.42,0,0,1,0,2.364L16.8,42.412a5.684,5.684,0,0,1-3.153.955H4l5.684-5.684L4,32h9.646A5.684,5.684,0,0,1,16.8,32.955Z" transform="translate(-4 -32)"/></g><g transform="translate(0 39.785)"><path class="f" d="M6.842,32H4l5.684,5.684L4,43.367H6.842l5.684-5.684Z" transform="translate(-4 -32)"/></g><g transform="translate(5.684 39.785)"><path class="f" d="M10.842,32H8l5.684,5.684L8,43.367h2.842l5.684-5.684Z" transform="translate(-8 -32)"/></g><g transform="translate(5.684 11.367)"><path class="g" d="M19.367,12H8V23.367h2.842V14.842h8.525Z" transform="translate(-8 -12)"/></g><g transform="translate(62.52 68.203)"><path class="g" d="M48,63.367H59.367V52H56.525v8.525H48Z" transform="translate(-48 -52)"/></g><g transform="translate(5.684 68.203)"><path class="g" d="M8,52V63.367H19.367V60.525H10.842V52Z" transform="translate(-8 -52)"/></g><g transform="translate(56.836 2.842)"><path class="e" d="M51.855,8.842H44V25.893h7.855a2.835,2.835,0,0,1,1.27.3l5.084,2.542V6L53.125,8.542A2.835,2.835,0,0,1,51.855,8.842Z" transform="translate(-44 -6)"/></g><g transform="translate(71.045)"><path class="a" d="M55.421,32.418A1.421,1.421,0,0,1,54,31V5.421a1.421,1.421,0,0,1,2.842,0V31A1.421,1.421,0,0,1,55.421,32.418Z" transform="translate(-54 -4)"/></g><g transform="translate(42.627 5.684)"><path class="a" d="M36.842,25.051H48.209V8H36.842A2.841,2.841,0,0,0,34,10.842V22.209A2.841,2.841,0,0,0,36.842,25.051Z" transform="translate(-34 -8)"/></g><g transform="translate(42.627 5.684)"><path class="b" d="M36.842,22.209V10.842A2.841,2.841,0,0,1,39.684,8H36.842A2.841,2.841,0,0,0,34,10.842V22.209a2.842,2.842,0,0,0,2.842,2.842h2.842A2.842,2.842,0,0,1,36.842,22.209Z" transform="translate(-34 -8)"/></g><g transform="translate(73.887 8.525)"><path class="g" d="M56,21.367V10a5.684,5.684,0,1,1,0,11.367Z" transform="translate(-56 -10)"/></g><g transform="translate(48.311 22.734)"><path class="h" d="M46.525,20l-2.009,2.009a2.843,2.843,0,0,0-.833,2.009v8.77a1.421,1.421,0,0,1-1.421,1.421H39.421A1.421,1.421,0,0,1,38,32.788V20Z" transform="translate(-38 -20)"/></g><g transform="translate(48.311 22.734)"><path class="i" d="M40.842,32.788V20H38V32.788a1.421,1.421,0,0,0,1.421,1.421h2.842A1.421,1.421,0,0,1,40.842,32.788Z" transform="translate(-38 -20)"/></g><g transform="translate(48.311 17.051)"><path class="c" d="M38,16h2.842v2.842H38Z" transform="translate(-38 -16)"/></g><g transform="translate(48.311 11.367)"><path class="c" d="M38,12h2.842v2.842H38Z" transform="translate(-38 -12)"/></g></g></g><rect class="j" width="120" height="120" transform="translate(-7438 -5847)"/></g></svg>