<svg xmlns="http://www.w3.org/2000/svg" width="261.61" height="263" viewBox="0 0 261.61 263"><defs><style>.a{fill:#acdfe5;}.b{fill:#02b07e;}.c{fill:#03c88b;}.d{fill:#125ac4;}.e{fill:#2d77fc;}.f{fill:#f9b29c;}.g{fill:#ed8768;}.h{fill:#15144f;}.i{fill:#ff805a;}.j{fill:#fff;}.k{fill:#f24e66;}.l{fill:#feb630;}.m{fill:#f14e9d;}.n{fill:#29275c;}.o{fill:#d9e5f1;}</style></defs><g transform="translate(-2.169 -2)"><g transform="translate(2.169 2)"><g transform="translate(186.368 90.661)"><g transform="translate(0 87.205)"><path class="a" d="M47.521,45.283h3.07v2.046h-3.07Z" transform="translate(-47.521 -45.283)"/></g><g transform="translate(9.135 9.149)"><path class="a" d="M80.065,106.389H74v-2.046h6.064Zm-12.128,0H61.872v-2.046h6.064Zm-12.128,0H49.744v-2.046h6.064Zm30.686-1.259-1.177-1.672A4.882,4.882,0,0,0,87.39,99.47v-.412h2.046v.411A6.925,6.925,0,0,1,86.494,105.13Zm2.941-12.136H87.39V86.93h2.046Zm0-12.128H87.39V74.8h2.046Zm0-12.128H87.39V62.673h2.046Zm0-12.128H87.39V50.545h2.046Zm0-12.128H87.39V38.417h2.046Zm0-12.128H87.39V26.288h2.046Z" transform="translate(-49.744 -26.288)"/></g><g transform="translate(46.781)"><path class="a" d="M58.9,24.062h2.046v3.07H58.9Z" transform="translate(-58.905 -24.062)"/></g></g><g transform="translate(0 29.598)"><g transform="translate(91.193 104.781)"><path class="b" d="M24.361,34.7s50.226,20.57,69.25,61.438l-65.186-6.9Z" transform="translate(-24.361 -34.701)"/></g><g transform="translate(12.368 98.608)"><path class="c" d="M97.63,167.992c3.561-31.862,8.522-111.571-8.266-125.193C71.935,28.64,25.071,31.114,12.627,43.876c-14.855,15.288-3.94,93.69,2.286,124.116Z" transform="translate(-5.179 -33.198)"/></g><g transform="translate(0 105.215)"><path class="b" d="M27.765,34.806s-16.47,3.06-23.009,23.9c-4.794,15.282-4.17,63.645,12.693,70.8,20.821,8.833,64.826-48.162,64.826-48.162L73.1,63.286,35.957,82.818s15.982-48.106-8.192-48.011Z" transform="translate(-2.169 -34.806)"/></g><g transform="translate(115.094 163.529)"><path class="b" d="M81.841,49s13.134,17.965,2.38,25.272-54.045-10.34-54.045-10.34l2.757-7.3Z" transform="translate(-30.177 -48.997)"/></g><g transform="translate(85.001 163.805)"><path class="d" d="M123.118,51.016v3.454a1.951,1.951,0,0,1-1.952,1.952H24.805a1.951,1.951,0,0,1-1.952-1.952V51.016a1.951,1.951,0,0,1,1.952-1.952h96.361A1.951,1.951,0,0,1,123.118,51.016Z" transform="translate(-22.854 -49.064)"/></g><g transform="translate(111.555 109.845)"><path class="e" d="M32.461,89.9h68.322a3.14,3.14,0,0,0,2.991-2.113L120.765,40.16a3.132,3.132,0,0,0-2.951-4.227H49.492A3.14,3.14,0,0,0,46.5,38.046L29.51,85.667A3.149,3.149,0,0,0,32.461,89.9Z" transform="translate(-29.316 -35.933)"/></g><g transform="translate(47.079 75.692)"><path class="f" d="M34.921,75.022C12.156,76.228,13.645,51.268,13.645,51.268s7.344-7.6,9.6-15.7a15.639,15.639,0,0,0,.629-5.29c-.668-9.719,17.18,10.387,17.18,10.387l.655-.128c-.077.308-.244,3.158-.27,6.022a33.1,33.1,0,0,0,.27,5.239C42.252,54.658,51.612,74.149,34.921,75.022Z" transform="translate(-13.625 -27.622)"/></g><g transform="translate(56.703 75.692)"><path class="g" d="M34.431,40.535c-.077.308-.244,3.158-.27,6.022A23.88,23.88,0,0,1,15.967,35.566a15.639,15.639,0,0,0,.629-5.29c-.668-9.719,17.18,10.387,17.18,10.387Z" transform="translate(-15.967 -27.622)"/></g><g transform="translate(38.277 28.89)"><path class="h" d="M26.357,16.233S5.4,22.75,13.238,45.519C16.789,55.833,24.554,56.2,25.339,56.2s10.54-16.827,10.54-16.827-2.154-16.715-2.309-17.5Z" transform="translate(-11.484 -16.233)"/></g><g transform="translate(38.945 23.894)"><path class="f" d="M21.234,46.685s-1.316,36.374,27.56,36.893c13.281.24,19.7-11.845,22.734-25.247v-.12a118.17,118.17,0,0,0,2.353-28.4v-.12a32.408,32.408,0,0,0-.558-5.9c-.957-2.114-38.648-8.774-38.648-8.774L24.7,31.529s-6.98-7.817-11.965,1.077C7.794,41.38,21.234,46.685,21.234,46.685Z" transform="translate(-11.646 -15.017)"/></g><g transform="translate(51.382)"><g transform="translate(0)"><path class="h" d="M18.365,59.979c5.7.4,5.7-20.779,8.894-19.7,3.231,1.076,15.515,13.919,37.212,7.5v.12a118.171,118.171,0,0,1-2.353,28.4v.12s26.284-6.98,19.623-28c0,0,11.048-12.124,6.142-17.189-4.946-5.065-12.284,0-12.284,0s3.231-15.036-15.714-20.78c-18.905-5.7-29.275,10.131-29.275,10.131s.678-9.851-6.661-3.988-8.655,33.024-8.655,33.024S12.621,59.579,18.365,59.979Z" transform="translate(-14.673 -9.203)"/></g></g><g transform="translate(70.934 124.137)"><path class="f" d="M19.431,48.968s1.1-11.453,5.44-9.284S28.6,46.965,28.6,46.965,45.475,42.5,48.573,50.774s3.563,16.021,0,16.486-4.183-7.9-4.183-7.9S35.123,66.177,28.6,67.028Z" transform="translate(-19.431 -39.411)"/></g><g transform="translate(149.214 130.55)"><g transform="translate(0 0)"><ellipse class="d" cx="8.519" cy="5.416" rx="8.519" ry="5.416" transform="translate(0 14.226) rotate(-56.628)"/></g></g><g transform="translate(96.237 171.162)"><path class="f" d="M44.444,58.153s-17.095.639-18.856-7.3H47.2l-2.545,6.883" transform="translate(-25.588 -50.854)"/></g><g transform="translate(70.545 49.029)"><path class="h" d="M19.539,26.987a4.919,4.919,0,0,1,.881-4.475c1.675-2.061,4.221-1.694,5.7.325a10.16,10.16,0,0,1,1.424,3.5.512.512,0,0,1-.989.262,9.256,9.256,0,0,0-1.26-3.157c-1.076-1.468-2.82-1.841-4.084-.285a3.936,3.936,0,0,0-.7,3.532.512.512,0,0,1-.979.3Z" transform="translate(-19.336 -21.134)"/></g><g transform="translate(90.946 50.299)"><path class="h" d="M31.683,28.063a.511.511,0,0,1-.506-.44A7.478,7.478,0,0,0,28.72,23.1a1.834,1.834,0,0,0-1.444-.618c-.39.071-.762.418-1.108,1.031a6.7,6.7,0,0,0-.825,3.766.51.51,0,0,1-.469.55.521.521,0,0,1-.55-.469,7.728,7.728,0,0,1,.952-4.349,2.751,2.751,0,0,1,1.817-1.538,2.8,2.8,0,0,1,2.3.854,8.508,8.508,0,0,1,2.8,5.154.512.512,0,0,1-.435.578A.61.61,0,0,1,31.683,28.063Z" transform="translate(-24.3 -21.443)"/></g><g transform="translate(83.102 49.304)"><path class="h" d="M24.193,36.647a31.017,31.017,0,0,1-1.46-15.011.505.505,0,0,1,.581-.43.511.511,0,0,1,.43.581A30,30,0,0,0,25.157,36.3a.511.511,0,1,1-.963.344Z" transform="translate(-22.392 -21.2)"/></g><g transform="translate(71.158 75.749)"><path class="h" d="M26.383,33.3A.51.51,0,0,1,26.3,33.3a9.588,9.588,0,0,1-6.752-4.913.512.512,0,0,1,.907-.474,8.542,8.542,0,0,0,6.017,4.378.512.512,0,0,1-.085,1.016Z" transform="translate(-19.485 -27.636)"/></g></g><g transform="translate(142.671)"><path class="i" d="M155.827,6.053v10.1H36.887V6.053A4.053,4.053,0,0,1,40.94,2H151.77A4.054,4.054,0,0,1,155.827,6.053Z" transform="translate(-36.887 -2)"/><g transform="translate(4.458 5.299)"><path class="j" d="M42.522,5.567a2.275,2.275,0,1,1-2.278-2.278A2.278,2.278,0,0,1,42.522,5.567Z" transform="translate(-37.972 -3.289)"/><g transform="translate(6.571)"><path class="j" d="M44.121,5.567a2.275,2.275,0,1,1-2.278-2.278A2.278,2.278,0,0,1,44.121,5.567Z" transform="translate(-39.571 -3.289)"/></g><g transform="translate(13.143)"><path class="j" d="M45.72,5.567a2.275,2.275,0,1,1-2.278-2.278A2.278,2.278,0,0,1,45.72,5.567Z" transform="translate(-41.171 -3.289)"/></g></g><g transform="translate(0 14.154)"><path class="j" d="M155.827,5.444V99.766a4.058,4.058,0,0,1-4.057,4.057H40.94a4.057,4.057,0,0,1-4.053-4.057V5.444Z" transform="translate(-36.887 -5.444)"/></g></g></g><g transform="translate(175.588 25.469)"><g transform="translate(0 24.718)"><path class="k" d="M44.37,13.726h8.716V34.885H44.37Z" transform="translate(-44.37 -13.726)"/></g><g transform="translate(15.533 32.398)"><path class="e" d="M48.15,15.6h8.716V29.074H48.15Z" transform="translate(-48.15 -15.595)"/></g><g transform="translate(31.067 18.661)"><path class="l" d="M51.93,12.252h8.716V39.468H51.93Z" transform="translate(-51.93 -12.252)"/></g><g transform="translate(46.604 26.489)"><path class="c" d="M55.711,14.157h8.716V33.545H55.711Z" transform="translate(-55.711 -14.157)"/></g><g transform="translate(3.335 2.421)"><path d="M61.385,27.187a1.02,1.02,0,0,1-.57-.174L45.634,16.82a1.023,1.023,0,1,1,1.141-1.7l14.444,9.7L75.8,8.638a1.024,1.024,0,0,1,1.3-.183L92.287,17.91a1.023,1.023,0,1,1-1.081,1.736l-14.454-9-14.607,16.2A1.024,1.024,0,0,1,61.385,27.187Z" transform="translate(-45.182 -8.3)"/></g><g transform="translate(31.313)"><circle class="m" cx="4.113" cy="4.113" r="4.113"/></g><g transform="translate(15.78 15.233)"><circle class="m" cx="4.113" cy="4.113" r="4.113"/></g><g transform="translate(0.242 5.671)"><circle class="m" cx="4.113" cy="4.113" r="4.113"/></g></g><g transform="translate(165.611 74.415)"><path class="n" d="M41.942,19.622h77.4V22.24h-77.4Z" transform="translate(-41.942 -19.622)"/></g><g transform="translate(222.435 34.254)"><circle class="m" cx="4.113" cy="4.113" r="4.113"/></g><g transform="translate(153.442 86.247)"><path class="o" d="M58.848,24.629V40.24a2.124,2.124,0,0,1-2.128,2.118H41.109a2.124,2.124,0,0,1-2.128-2.118V24.629A2.126,2.126,0,0,1,41.109,22.5H56.72A2.126,2.126,0,0,1,58.848,24.629Z" transform="translate(-38.981 -22.501)"/></g><g transform="translate(179.944 90.204)"><path class="o" d="M45.43,23.464h76.812v3.863H45.43Z" transform="translate(-45.43 -23.464)"/></g><g transform="translate(179.944 98.283)"><path class="o" d="M45.43,25.43H91.377v3.863H45.43Z" transform="translate(-45.43 -25.43)"/></g></g></svg>