<svg xmlns="http://www.w3.org/2000/svg" width="120" height="120" viewBox="0 0 120 120"><defs><style>.a{fill:none;}.b{fill:#12263f;}.c{fill:#f3f5f9;}.d{fill:#111e61;}.e{fill:#ff805a;}.f{fill:#e1e6f0;}.g{fill:#ffbba7;}.h{fill:#f6bf28;}.i{fill:#ffd667;}.j{fill:#727997;}</style></defs><g transform="translate(-0.386 0.262)"><rect class="a" width="120" height="120" transform="translate(0.386 -0.262)"/><g transform="translate(18.515 13.229)"><g transform="translate(11.626 28.037)"><path class="b" d="M0,0H5.5V10.995H0Z" transform="matrix(0.5, -0.866, 0.866, 0.5, 0, 4.761)"/></g><g transform="translate(59.228 55.525)"><path class="b" d="M0,0H5.5V10.995H0Z" transform="matrix(0.5, -0.866, 0.866, 0.5, 0, 4.761)"/></g><g transform="translate(11.63 55.509)"><path class="c" d="M0,0H10.995V5.5H0Z" transform="matrix(0.866, -0.5, 0.5, 0.866, 0, 5.497)"/></g><g transform="translate(59.225 28.025)"><path class="d" d="M0,0H10.995V5.5H0Z" transform="matrix(0.866, -0.5, 0.5, 0.866, 0, 5.497)"/></g><g transform="translate(38.814 13.741)"><path class="c" d="M241,75h5.5V86.176H241Z" transform="translate(-241 -75)"/></g><g transform="translate(38.814 68.889)"><path class="c" d="M241,376h5.5v11.176H241Z" transform="translate(-241 -376)"/></g><g transform="translate(11.63 66.508)"><path class="d" d="M116.423,381.692l-23.8-13.924,2.748-4.761,23.8,13.924Z" transform="translate(-92.626 -363.007)"/></g><g transform="translate(45.075 67.166)"><path class="d" d="M277.805,384.777l-2.63-4.826,24.2-13.355,2.63,4.825Z" transform="translate(-275.175 -366.596)"/></g><g transform="translate(71.792 33.162)"><path class="d" d="M421,181h5.5v27.493H421Z" transform="translate(-421 -181)"/></g><g transform="translate(44.949 8.612)"><path class="d" d="M298.283,65.692l-23.8-13.924,2.748-4.761,23.8,13.924Z" transform="translate(-274.486 -47.007)"/></g><g transform="translate(11.63 8.612)"><path class="d" d="M95.374,65.692l-2.748-4.761,23.8-13.924,2.748,4.761Z" transform="translate(-92.626 -47.007)"/></g><g transform="translate(5.835 33.162)"><path class="d" d="M61,181h5.5v27.493H61Z" transform="translate(-61 -181)"/></g><g transform="translate(0 19.42)"><g transform="translate(0 0.001)"><path class="e" d="M33.272,121.391a8.245,8.245,0,0,1,8.242-14.283h.005a8.247,8.247,0,0,1-8.247,14.283Z" transform="translate(-29.152 -106.005)"/></g><g transform="translate(66.639 38.471)"><path class="e" d="M397,331.365a8.245,8.245,0,1,1,11.261-3.022A8.255,8.255,0,0,1,397,331.365Z" transform="translate(-392.874 -315.974)"/></g><g transform="translate(0 38.472)"><path class="e" d="M30.252,328.354a8.244,8.244,0,1,1,11.267,3.019A8.26,8.26,0,0,1,30.252,328.354Z" transform="translate(-29.151 -315.984)"/></g><g transform="translate(66.639)"><path class="e" d="M393.977,118.363a8.256,8.256,0,0,1,3.014-11.261H397a8.245,8.245,0,1,1-3.019,11.261Z" transform="translate(-392.874 -105.998)"/></g></g><path class="f" d="M256,75h2.748V86.176H256Z" transform="translate(-214.438 -61.259)"/><path class="b" d="M256,376h2.748v11.176H256Z" transform="translate(-214.438 -307.111)"/><g transform="translate(33.317)"><path class="g" d="M219.245,16.489a8.245,8.245,0,1,1,8.245-8.245A8.254,8.254,0,0,1,219.245,16.489Z" transform="translate(-211)"/></g><g transform="translate(33.317 77.317)"><path class="g" d="M219.245,438.489a8.245,8.245,0,1,1,8.245-8.245A8.254,8.254,0,0,1,219.245,438.489Z" transform="translate(-211 -422)"/></g><path class="e" d="M264.245,430.245A8.254,8.254,0,0,0,256,422v16.489A8.254,8.254,0,0,0,264.245,430.245Z" transform="translate(-214.438 -344.683)"/><path class="e" d="M264.245,8.245A8.254,8.254,0,0,0,256,0V16.489A8.254,8.254,0,0,0,264.245,8.245Z" transform="translate(-214.438)"/><g transform="translate(16.828 22.169)"><path class="h" d="M170.468,145.734a24.8,24.8,0,0,1-13.741,22.15l-10.993-5.661-10.993,5.661a24.732,24.732,0,1,1,35.727-22.15Z" transform="translate(-121 -121)"/></g><path class="i" d="M266.993,167.884A24.73,24.73,0,0,0,256,121v41.223Z" transform="translate(-214.438 -98.831)"/><g transform="translate(33.317 33.162)"><path class="b" d="M219.245,197.489a8.245,8.245,0,1,1,8.245-8.245A8.254,8.254,0,0,1,219.245,197.489Z" transform="translate(-211 -181)"/></g><path class="b" d="M206.993,286A11.025,11.025,0,0,0,196,296.993v5.661a24.68,24.68,0,0,0,21.986,0v-5.661A11.025,11.025,0,0,0,206.993,286Z" transform="translate(-165.431 -233.601)"/><g transform="translate(41.562 33.162)"><path class="j" d="M266.993,302.654v-5.661A11.025,11.025,0,0,0,256,286v19.238A24.527,24.527,0,0,0,266.993,302.654Z" transform="translate(-256 -266.762)"/><path class="j" d="M264.245,189.245A8.254,8.254,0,0,0,256,181v16.489A8.254,8.254,0,0,0,264.245,189.245Z" transform="translate(-256 -181)"/></g></g></g></svg>