<svg xmlns="http://www.w3.org/2000/svg" width="120" height="120" viewBox="0 0 120 120"><defs><style>.a{fill:none;}.b{fill:#186a81;}.c{fill:#00465f;}.d{fill:#eaf4f4;}.e{fill:#cae8ea;}.f{fill:#00dc7b;}.g{fill:#00aa8e;}</style></defs><g transform="translate(0.137 0.359)"><rect class="a" width="120" height="120" transform="translate(-0.136 -0.359)"/><g transform="translate(18.248 18.329)"><path class="b" d="M77.6,52.431a37.222,37.222,0,0,1-2.947,7.114l4.177,4.178-15.1,15.1-4.178-4.177A37.222,37.222,0,0,1,52.431,77.6V83.5H31.073V77.6a37.222,37.222,0,0,1-7.114-2.947L19.78,78.826l-15.1-15.1,4.177-4.178a37.222,37.222,0,0,1-2.947-7.114H0V31.073H5.907a37.222,37.222,0,0,1,2.947-7.114L4.678,19.78l15.1-15.1,4.178,4.177a37.222,37.222,0,0,1,7.114-2.947V0H52.431V5.907a37.222,37.222,0,0,1,7.114,2.947l4.178-4.177,15.1,15.1-4.177,4.178A37.222,37.222,0,0,1,77.6,31.073H83.5V52.431Z" transform="translate(0 0)"/><path class="c" d="M291.845,52.431a37.219,37.219,0,0,1-2.947,7.114l4.177,4.178-15.1,15.1-4.178-4.177a37.222,37.222,0,0,1-7.114,2.947V83.5H256V0h10.679V5.907a37.222,37.222,0,0,1,7.114,2.947l4.178-4.177,15.1,15.1L288.9,23.958a37.219,37.219,0,0,1,2.947,7.114h5.907V52.431Z" transform="translate(-214.248)"/><path class="d" d="M121.986,148.1a26.116,26.116,0,1,1,0-52.232l5.846,25.751Z" transform="translate(-80.234 -80.234)"/><path class="e" d="M282.116,121.986A26.145,26.145,0,0,1,256,148.1V95.87A26.145,26.145,0,0,1,282.116,121.986Z" transform="translate(-214.248 -80.234)"/><path class="f" d="M220.315,180.949a8.015,8.015,0,0,1-6.191,7.54v2.724h-4.893v-2.724a8.015,8.015,0,0,1-6.191-7.54h4.893c0,1.637,1.68,2.972,3.745,2.972s3.745-1.334,3.745-2.972-1.68-2.972-3.745-2.972c-4.762,0-8.637-3.528-8.637-7.864a8.015,8.015,0,0,1,6.191-7.54V159.85h4.893v2.724a8.015,8.015,0,0,1,6.191,7.54h-4.893c0-1.637-1.68-2.972-3.745-2.972s-3.745,1.334-3.745,2.972,1.68,2.972,3.745,2.972C216.44,173.085,220.315,176.613,220.315,180.949Z" transform="translate(-169.926 -133.78)"/><g transform="translate(41.752 26.07)"><path class="g" d="M264.637,248.864a8.015,8.015,0,0,1-6.191,7.54v2.724H256v-7.292c2.065,0,3.745-1.334,3.745-2.972s-1.68-2.972-3.745-2.972V241c4.762,0,8.637,3.528,8.637,7.864Z" transform="translate(-256 -227.765)"/><path class="g" d="M256,167.142V159.85h2.446v2.724a8.015,8.015,0,0,1,6.191,7.54h-4.893C259.745,168.476,258.065,167.142,256,167.142Z" transform="translate(-256 -159.85)"/></g></g></g></svg>