<svg xmlns="http://www.w3.org/2000/svg" width="120" height="120" viewBox="0 0 120 120"><defs><style>.a{fill:none;}.b{fill:#69737a;}.c{fill:#91989d;}.d{fill:#f5b94c;}.e{fill:#f9d161;}.f{fill:#43525b;}.g{fill:#3cb9c4;}.h{fill:#5df2ff;}.i{fill:#ff805a;}.j{fill:#cacbcd;}.k{fill:#e4e5e7;}</style></defs><g transform="translate(0 1.089)"><rect class="a" width="120" height="120" transform="translate(0 -1.089)"/><g transform="translate(26.873 14.474)"><path class="b" d="M50.271,29.61a12.552,12.552,0,0,0,2.231-.934l2.968,1.78,3.985-3.985L57.675,23.5a12.664,12.664,0,0,0,.968-2.342L62,20.32V14.683l-3.36-.846a12.664,12.664,0,0,0-.968-2.342l1.78-2.968L55.47,4.548,52.5,6.328a12.663,12.663,0,0,0-2.336-.968L49.32,2H43.683l-.846,3.36a12.663,12.663,0,0,0-2.342.968l-2.962-1.78L33.548,8.533l1.78,2.968a12.663,12.663,0,0,0-.968,2.342l-3.36.84V20.32l3.36.846a12.663,12.663,0,0,0,.968,2.342l-1.268,2.114Z" transform="translate(-1.392 -2)"/><path class="c" d="M61.174,19.093V13.457l-3.36-.846a12.665,12.665,0,0,0-.968-2.342L58.03,8.3A15.471,15.471,0,0,0,33.025,19.8l.506.127a12.664,12.664,0,0,0,.968,2.342l-1.079,1.8c.031.131.066.261.1.39l15.924,3.918a12.552,12.552,0,0,0,2.231-.934l2.968,1.78,3.985-3.985-1.78-2.968a12.663,12.663,0,0,0,.968-2.342Z" transform="translate(-0.563 -0.774)"/><path class="d" d="M34.554,26.7l.812-.2V20.865l-1.9-.475a11.09,11.09,0,0,0-.83-2l1.009-1.683-3.985-3.985-1.683,1.009a11.091,11.091,0,0,0-2-.83L25.5,11H19.865l-.475,1.9a11.091,11.091,0,0,0-2,.83l-1.683-1.009-3.985,3.985,1.009,1.683a11.091,11.091,0,0,0-.83,2l-1.9.475V26.5l1.9.475a11.133,11.133,0,0,0,.83,2l-1.009,1.683,3.985,3.985,1.683-1.009a11.091,11.091,0,0,0,2,.83l.242.972,11.506.929Z" transform="translate(-9.986 1.683)"/><path class="e" d="M31.407,17.966l1.009-1.683L28.431,12.3l-1.683,1.009a11.091,11.091,0,0,0-2-.83l-.11-.44a12.663,12.663,0,0,0-8.186,21.312,11.238,11.238,0,0,0,1.709.692l.242.972,11.506.929,3.416-9.662.812-.2V20.44l-1.9-.475a11.091,11.091,0,0,0-.83-2Z" transform="translate(-8.758 2.107)"/><ellipse class="f" cx="5.454" cy="5.681" rx="5.454" ry="5.681" transform="translate(7.272 19.607)"/><path class="g" d="M68.369,41.954A9.865,9.865,0,0,1,58.5,51.819H21.865a9.865,9.865,0,1,1,0-19.729h.113a9.835,9.835,0,0,1,9.752-8.455,9.573,9.573,0,0,1,3.72.733A14.092,14.092,0,0,1,61.323,32.09a3.827,3.827,0,0,1-.014.409A9.842,9.842,0,0,1,68.369,41.954Z" transform="translate(-9.167 4.55)"/><path class="h" d="M59.263,31.274a3.827,3.827,0,0,0,.014-.409,14.021,14.021,0,0,0-3.649-9.436A14,14,0,0,0,40.45,27.37a9.573,9.573,0,0,0-3.72-.733,9.835,9.835,0,0,0-9.752,8.455h-.113a9.865,9.865,0,0,0-8.14,15.438,10,10,0,0,0,1.094.063h36.64a9.865,9.865,0,0,0,2.8-19.321Z" transform="translate(-7.121 5.775)"/><g transform="translate(0 56.369)"><path class="i" d="M49.32,65.957a2.809,2.809,0,0,0-2.427,1.409H38.046a4.228,4.228,0,0,1-4.228-4.228V42H31V63.138a7.055,7.055,0,0,0,7.046,7.046h8.847a2.818,2.818,0,1,0,2.427-4.228Z" transform="translate(-1.392 -42)"/><path class="i" d="M56.138,58.911a2.809,2.809,0,0,0-2.427,1.409H40.637A2.818,2.818,0,0,1,37.818,57.5V42H35V57.5a5.637,5.637,0,0,0,5.637,5.637H53.712a2.818,2.818,0,1,0,2.427-4.228Z" transform="translate(0.245 -42)"/><path class="i" d="M58.729,49.046A2.809,2.809,0,0,0,56.3,50.455H43.228a1.409,1.409,0,0,1-1.409-1.409V42H39v7.046a4.228,4.228,0,0,0,4.228,4.228H56.3a2.818,2.818,0,1,0,2.427-4.228Z" transform="translate(1.882 -42)"/><path class="i" d="M33.961,54.683A2.818,2.818,0,0,1,31.143,57.5H15.249a2.818,2.818,0,1,0,0,2.818H31.143a5.637,5.637,0,0,0,5.637-5.637V42H33.961Z" transform="translate(-9.99 -42)"/><path class="i" d="M14.823,54.683a2.809,2.809,0,0,0,2.427-1.409H26.1a4.228,4.228,0,0,0,4.228-4.228V42H27.506v7.046A1.409,1.409,0,0,1,26.1,50.455H17.249a2.818,2.818,0,1,0-2.427,4.228Z" transform="translate(-9.172 -42)"/></g><circle class="j" cx="7.045" cy="7.045" r="7.045" transform="translate(38.178 8.245)"/><path class="k" d="M45.046,9a7.017,7.017,0,0,0-5.62,11.257,7.017,7.017,0,0,0,9.831-9.831A6.988,6.988,0,0,0,45.046,9Z" transform="translate(1.472 0.865)"/><ellipse class="b" cx="4.932" cy="5.566" rx="4.932" ry="5.566" transform="translate(8.47 19.8)"/></g></g></svg>