<svg xmlns="http://www.w3.org/2000/svg" width="147" height="147" viewBox="0 0 147 147"><defs><style>.a{fill:none;}.b{fill:#466289;}.c{fill:#354a67;}.d{fill:#6b81a1;}.e{fill:#d8d8fc;}.f{fill:#db2e44;}.g{fill:#a3a3d1;}.h{fill:#e8596e;}</style></defs><g transform="translate(-1070 -1416)"><path class="a" d="M0,0H147V147H0Z" transform="translate(1070 1416)"/><g transform="translate(1090.031 1436.031)"><path class="b" d="M307.266,96.266V108.8H301V96.266l3.133-5.576.376-.689Zm0,0" transform="translate(-238.132 -71.202)"/><path class="c" d="M319.133,108.8H316V90.689l.376-.689,2.757,6.266Zm0,0" transform="translate(-250 -71.202)"/><path class="b" d="M45.887,258.359,40.832,285.72l-15.559,11.09H0L34.671,240Zm0,0" transform="translate(0 -189.873)"/><path class="d" d="M202.665,323.867H121l20.615-38.452,3.259-6.015,11.4-5.2h10.9l11.278,5.013Zm0,0" transform="translate(-95.728 -216.929)"/><path class="b" d="M356.937,323.867H316V274.2h5.452l11.278,5.013Zm0,0" transform="translate(-250 -216.929)"/><path class="e" d="M268.885,180.953l-11.278,7.519-5.452-5.827-5.452,5.827-11.4-7.331,3.007-5.576L252.156,150l13.785,25.377Zm0,0" transform="translate(-186.155 -118.671)"/><path class="f" d="M122.329,55.063H91l12.532-12.532L91,30h31.329Zm0,0" transform="translate(-71.994 -23.734)"/><path class="g" d="M332.729,180.953l-11.278,7.519L316,182.645V150l13.785,25.377Zm0,0" transform="translate(-250 -118.671)"/><path class="h" d="M211,0h25.063V25.063H211Zm0,0" transform="translate(-166.93)"/><path class="f" d="M316,0h3.133V25.063H316Zm0,0" transform="translate(-250)"/></g></g></svg>