<svg xmlns="http://www.w3.org/2000/svg" width="175" height="175" viewBox="0 0 175 175"><defs><style>.a{fill:#fff;opacity:0.949;}.b{fill:#ffe2bd;}.c{fill:#ffeace;}.d{fill:#c9a379;}.e{fill:#c49a6c;}.f{fill:#ffc477;}.g{fill:#ffdaaa;}.h{fill:#ff805a;}</style></defs><g transform="translate(5612 5581)"><g transform="translate(-5871 -6039)"><g transform="translate(259 458)"><rect class="a" width="175" height="175" transform="translate(0)"/></g></g><g transform="translate(-1.734 5)"><g transform="translate(-5525.266 -5516.489)"><path class="b" d="M11,23V52.138L34.534,65.586V36.448Z" transform="translate(-2.034 -3.948)"/><path class="c" d="M55.534,23V52.138L32,65.586V36.448Z" transform="translate(0.5 -3.948)"/><path class="d" d="M42.086,6,32,11.6,55.534,25.052l8.966-5.6Z" transform="translate(0.5 -6)"/><path class="e" d="M25.414,6,3,19.448l8.966,5.6L35.5,11.6Z" transform="translate(-3 -6)"/><path class="d" d="M40.966,42.052,64.5,28.6,55.534,23,32,36.448Z" transform="translate(0.5 -3.948)"/><path class="e" d="M3,28.6,26.534,42.052l8.966-5.6L11.966,23Z" transform="translate(-3 -3.948)"/><path class="f" d="M11,24.448,34.534,37.9,58.069,24.448,34.534,11Z" transform="translate(-2.034 -5.397)"/><path class="g" d="M38.967,52.128l-3.42,1.954a1.121,1.121,0,1,0,1.113,1.947l3.419-1.954a1.121,1.121,0,0,0-1.112-1.947Z" transform="translate(0.86 -0.451)"/><path class="g" d="M42.093,52.62a1.107,1.107,0,0,0,.555-.148l1.276-.73A1.121,1.121,0,0,0,42.812,49.8l-1.276.731a1.121,1.121,0,0,0,.56,2.093Z" transform="translate(1.583 -0.732)"/><path class="g" d="M38.967,48.128l-3.42,1.954a1.121,1.121,0,1,0,1.113,1.947l3.419-1.954a1.121,1.121,0,0,0-1.112-1.947Z" transform="translate(0.86 -0.933)"/><path class="g" d="M42.093,48.62a1.107,1.107,0,0,0,.555-.148l1.276-.73A1.121,1.121,0,0,0,42.812,45.8l-1.276.731a1.121,1.121,0,0,0,.56,2.093Z" transform="translate(1.583 -1.215)"/></g><path class="h" d="M49.629-85.371v9.254H47.637q-12.656.236-20.156,7.544T18.809-48q6.738-7.78,18.4-7.78,11.133,0,17.783,7.9t6.65,20.393q0,13.262-7.178,21.219T35.215,1.684a24.3,24.3,0,0,1-19.863-9.46q-7.617-9.46-7.617-24.372v-4.185q0-23.694,10.049-36.219T47.7-85.371ZM35.391-46.706a17.226,17.226,0,0,0-10.254,3.36,17.492,17.492,0,0,0-6.5,8.428v4.008q0,10.609,4.746,17.093T35.215-7.334a13.751,13.751,0,0,0,11.514-5.423q4.189-5.423,4.189-14.2,0-8.841-4.248-14.293A13.587,13.587,0,0,0,35.391-46.706Z" transform="translate(-5593 -5456.629)"/></g></g></svg>