<svg xmlns="http://www.w3.org/2000/svg" width="147" height="147" viewBox="0 0 147 147"><defs><style>.a{fill:#f3f3f3;}.b{fill:#8ad7f8;}.c{fill:#55c0eb;}.d{fill:#415a6b;}.e{fill:#f3705a;}.f{fill:none;}</style></defs><g transform="translate(-1070 -847)"><g transform="translate(1086.839 868.839)"><path class="a" d="M85.956,0H7.1A6.977,6.977,0,0,0,0,7.1v99.453a6.977,6.977,0,0,0,7.1,7.1H85.956a6.977,6.977,0,0,0,7.1-7.1V7.1A6.977,6.977,0,0,0,85.956,0Z"/><path class="b" d="M340.34,308.375l-5.683-5.683-5.683,3.078a9.9,9.9,0,0,0-2.368-.947l-1.894-6.157h-8.051l-1.894,6.157c-.71.237-1.658.71-2.368.947l-5.683-3.078-5.92,5.446,2.842,5.683a9.9,9.9,0,0,0-.947,2.368l-6.157,1.894v8.051l6.157,1.894c.237.71.71,1.658.947,2.368l-3.078,5.683,5.683,5.683,5.683-3.078a9.9,9.9,0,0,0,2.368.947l1.894,6.157h8.051l1.894-6.157c.71-.237,1.658-.71,2.368-.947l5.683,3.078,5.683-5.683-2.6-5.446a9.9,9.9,0,0,0,.947-2.368l6.157-1.894v-8.051l-6.157-1.894a24.552,24.552,0,0,0-.947-2.368ZM325.9,327.556c-3.078,2.842-7.814,3.078-10.656,0a7.724,7.724,0,0,1,0-10.656,7.5,7.5,0,0,1,10.656,0A7.3,7.3,0,0,1,325.9,327.556Z" transform="translate(-230.704 -232.365)"/><path class="c" d="M348.974,348.974a13.228,13.228,0,1,0,18.707,0A13.149,13.149,0,0,0,348.974,348.974Zm14.681,14.681c-3.078,2.842-7.814,3.078-10.656,0A7.724,7.724,0,0,1,353,353c3.078-2.842,7.814-3.078,10.656,0A7.3,7.3,0,0,1,363.655,363.655Z" transform="translate(-268.464 -268.464)"/><path class="d" d="M147.527,61.133a2.174,2.174,0,0,0-.947-1.421l-12.313-7.578a2.4,2.4,0,1,0-2.6,4.025l7.341,4.5-3.078.71A67.418,67.418,0,0,0,94.485,89.311,66.086,66.086,0,0,0,84.3,139.038a2.4,2.4,0,0,0,2.842,1.894A2.313,2.313,0,0,0,88.8,138.09a61.42,61.42,0,0,1,9.472-46.175,63.48,63.48,0,0,1,38.361-25.81l3.078-.71-4.025,7.1a2.549,2.549,0,0,0,.71,3.315h0a2.549,2.549,0,0,0,3.315-.71l7.577-12.076A2.672,2.672,0,0,0,147.527,61.133Z" transform="translate(-64.649 -40.295)"/><g transform="translate(15.865 14.208)"><path class="e" d="M245.083,218.3l5.21-5.21a2.344,2.344,0,0,0-3.315-3.315l-5.21,5.21-5.21-5.21a2.344,2.344,0,1,0-3.315,3.315l5.21,5.21-5.21,5.21a2.344,2.344,0,1,0,3.315,3.315l5.21-5.21,5.21,5.21a2.344,2.344,0,1,0,3.315-3.315Z" transform="translate(-196.777 -176.863)"/><path class="e" d="M84.016,73.235l5.21-5.21a2.344,2.344,0,1,0-3.315-3.315L80.7,69.92l-5.21-5.21a2.344,2.344,0,0,0-3.315,3.315l5.209,5.21-5.21,5.21a2.344,2.344,0,0,0,3.315,3.315l5.21-5.21,5.21,5.21a2.344,2.344,0,0,0,3.315-3.315Z" transform="translate(-71.466 -64)"/><path class="e" d="M155.723,338.111a10.656,10.656,0,1,1,10.656-10.656A10.764,10.764,0,0,1,155.723,338.111Zm0-16.339a5.92,5.92,0,1,0,5.92,5.92A6.18,6.18,0,0,0,155.723,321.773Z" transform="translate(-128.728 -260.68)"/></g></g><rect class="f" width="147" height="147" transform="translate(1070 847)"/></g></svg>