<svg xmlns="http://www.w3.org/2000/svg" width="172" height="154" viewBox="0 0 172 154"><defs><style>.a{fill:#fff;opacity:0.949;}.b{fill:#f78e36;}.c{fill:#f86f1b;}.d{fill:#4380a0;}.e{fill:#7be492;}.f{fill:#45d987;}.g{fill:#ffc328;}.h{fill:#43809f;}.i{fill:#3a7190;}.j{fill:#f3f3f3;}.k{fill:#e4e4e4;}</style></defs><g transform="translate(-259 -458)"><g transform="translate(259.273 457.992)"><rect class="a" width="172" height="154" transform="translate(-0.273 0.008)"/></g><g transform="translate(288.099 475.099)"><path class="b" d="M385.157,395.091l-23.513-23.513a1.4,1.4,0,0,1,0-1.987l7.948-7.948a1.4,1.4,0,0,1,1.987,0l23.513,23.513a1.4,1.4,0,0,1,0,1.987l-7.948,7.948A1.405,1.405,0,0,1,385.157,395.091Z" transform="translate(-279.122 -279.122)"/><path class="c" d="M381.123,361.644l-4.967,4.967a1.4,1.4,0,0,1,1.987,0l23.513,23.513a1.4,1.4,0,0,1,0,1.987l4.967-4.967a1.4,1.4,0,0,0,0-1.987L383.11,361.644A1.4,1.4,0,0,0,381.123,361.644Z" transform="translate(-290.653 -279.122)"/><path class="d" d="M0,0H7.025V15.312H0Z" transform="translate(73.169 78.153) rotate(-45)"/><path class="e" d="M0,0H14.05V7.025H0Z" transform="translate(86.891 96.844) rotate(-45)"/><path class="f" d="M0,0H7.025V7.025H0Z" transform="translate(91.858 91.878) rotate(-45)"/><path class="g" d="M30.8,362.528c-.13.925-.442,2.249-.72,3.325a2.275,2.275,0,0,1-2.2,1.708H24.7a2.275,2.275,0,0,1-2.2-1.708c-.278-1.076-.59-2.4-.72-3.325a2.259,2.259,0,0,0-1.114-1.639L17.724,359.2a2.263,2.263,0,0,0-1.975-.143c-.869.351-2.18.745-3.256,1.044a2.275,2.275,0,0,1-2.578-1.051L8.327,356.3a2.27,2.27,0,0,1,.379-2.759c.8-.779,1.791-1.712,2.529-2.287a2.256,2.256,0,0,0,.864-1.782V346.1a2.256,2.256,0,0,0-.864-1.782c-.738-.575-1.733-1.508-2.529-2.287a2.27,2.27,0,0,1-.379-2.759l1.587-2.742a2.275,2.275,0,0,1,2.578-1.051c1.076.3,2.387.693,3.256,1.044a2.263,2.263,0,0,0,1.975-.143l2.937-1.692a2.259,2.259,0,0,0,1.114-1.639c.13-.924.442-2.249.72-3.325a2.275,2.275,0,0,1,2.2-1.708h3.179a2.275,2.275,0,0,1,2.2,1.708c.278,1.076.59,2.4.72,3.325a2.259,2.259,0,0,0,1.114,1.639l2.937,1.692a2.263,2.263,0,0,0,1.975.143c.869-.351,2.18-.745,3.256-1.044a2.275,2.275,0,0,1,2.578,1.051l1.587,2.742a2.27,2.27,0,0,1-.379,2.759c-.8.779-1.791,1.712-2.529,2.287a2.256,2.256,0,0,0-.864,1.782v3.379a2.256,2.256,0,0,0,.864,1.782c.738.575,1.733,1.508,2.529,2.287a2.27,2.27,0,0,1,.379,2.759l-1.587,2.742a2.275,2.275,0,0,1-2.578,1.051c-1.076-.3-2.387-.693-3.256-1.044a2.263,2.263,0,0,0-1.975.143l-2.937,1.692A2.26,2.26,0,0,0,30.8,362.528Zm3.315-14.741a7.827,7.827,0,1,0-7.827,7.807A7.817,7.817,0,0,0,34.114,347.787Z" transform="translate(-6.199 -253.454)"/><circle class="h" cx="45.662" cy="45.662" r="45.662" transform="translate(0 0)"/><path class="i" d="M188.945,0q-1.773,0-3.513.133a45.665,45.665,0,0,1,0,91.059q1.739.132,3.513.133a45.663,45.663,0,0,0,0-91.325Z" transform="translate(-143.282 0)"/><circle class="j" cx="38.638" cy="38.638" r="38.638" transform="translate(7.025 7.025)"/><path class="k" d="M188.945,30.905c-1.184,0-2.355.057-3.513.161a38.636,38.636,0,0,1,0,76.952c1.157.1,2.328.161,3.513.161a38.638,38.638,0,0,0,0-77.275Z" transform="translate(-143.282 -23.88)"/><path class="b" d="M346.624,72.032c-.13.924-.442,2.249-.72,3.325a2.275,2.275,0,0,1-2.2,1.708h-3.179a2.275,2.275,0,0,1-2.2-1.708c-.278-1.076-.59-2.4-.72-3.325a2.259,2.259,0,0,0-1.114-1.639L333.548,68.7a2.263,2.263,0,0,0-1.975-.143c-.869.351-2.18.745-3.256,1.044a2.275,2.275,0,0,1-2.578-1.051l-1.587-2.742a2.27,2.27,0,0,1,.379-2.759c.8-.779,1.791-1.712,2.529-2.287a2.256,2.256,0,0,0,.864-1.782V55.6a2.256,2.256,0,0,0-.864-1.782c-.738-.575-1.733-1.508-2.529-2.287a2.269,2.269,0,0,1-.379-2.759l1.587-2.742a2.275,2.275,0,0,1,2.578-1.051c1.076.3,2.387.693,3.256,1.044a2.263,2.263,0,0,0,1.975-.143l2.937-1.692A2.259,2.259,0,0,0,337.6,42.55c.13-.924.442-2.249.72-3.325a2.275,2.275,0,0,1,2.2-1.708H343.7a2.275,2.275,0,0,1,2.2,1.708c.278,1.076.59,2.4.72,3.325a2.259,2.259,0,0,0,1.114,1.639l2.937,1.692a2.263,2.263,0,0,0,1.975.143c.869-.351,2.18-.745,3.256-1.044a2.275,2.275,0,0,1,2.578,1.051l1.587,2.742a2.269,2.269,0,0,1-.379,2.759c-.8.779-1.791,1.712-2.529,2.287A2.256,2.256,0,0,0,356.3,55.6V58.98a2.256,2.256,0,0,0,.864,1.782c.738.575,1.733,1.508,2.529,2.287a2.27,2.27,0,0,1,.379,2.759l-1.587,2.742a2.275,2.275,0,0,1-2.578,1.051c-1.076-.3-2.387-.693-3.256-1.044a2.263,2.263,0,0,0-1.975.143l-2.937,1.692a2.259,2.259,0,0,0-1.114,1.639Zm3.315-14.742a7.827,7.827,0,1,0-7.827,7.808,7.817,7.817,0,0,0,7.827-7.808Z" transform="translate(-250.234 -28.989)"/><path class="h" d="M133.562,178.3h-10.22l-5.84-14.928a1.7,1.7,0,0,0-3.186.028l-8.551,23.059-6.2-17.585a1.7,1.7,0,0,0-3.1-.264l-5.41,9.689H85.632a1.7,1.7,0,1,0,0,3.41h6.424a1.705,1.705,0,0,0,1.489-.874L97.6,173.57l6.516,18.468a1.7,1.7,0,0,0,1.594,1.137h.014a1.7,1.7,0,0,0,1.6-1.112l8.633-23.281,4.633,11.844a1.7,1.7,0,0,0,1.588,1.084h11.384a1.7,1.7,0,1,0,0-3.41Z" transform="translate(-64.85 -125.4)"/></g></g></svg>