<svg xmlns="http://www.w3.org/2000/svg" xmlns:xlink="http://www.w3.org/1999/xlink" width="635.142" height="443.451" viewBox="0 0 635.142 443.451"><defs><style>.a{opacity:0.57;}.b,.d{fill:#00638c;}.b{opacity:0.37;}.c{fill:#dfffff;}.d{opacity:0.25;}.e{fill:#c3f5f7;}.f{opacity:0.456;}.f,.s{isolation:isolate;}.g,.h,.i,.j,.l,.m,.n,.o,.p,.q,.r,.u,.v{fill:#fff;}.g{opacity:0.94;}.i{opacity:0.49;}.j{opacity:0.84;}.k{fill:#7dccd5;}.l{opacity:0.63;}.m{opacity:0.33;}.n{opacity:0.52;}.o{opacity:0.45;}.p{opacity:0.79;}.q{opacity:0.91;}.r{opacity:0.36;}.s{fill:#ebe2df;mix-blend-mode:multiply;}.t{fill:#e57d00;}.u{opacity:0.4;}.v{opacity:0.7;}.w{fill:#f6bf28;}.x{fill:#ee5c24;}.y{fill:#d0341a;}.z{fill:#ff805a;}.aa{opacity:0.997;}.ab{fill:#2b2b2b;}.ac{fill:#12263f;}.ad{fill:#18244f;}.ae{fill:#404140;}.af{fill:#545554;}.ag{fill:#fac2b0;}.ah{fill:#5df2ff;}.ai{fill:#d1f4ec;}.aj{fill:#646464;}.ak{opacity:0.1;}.al{fill:#1a1a1a;}.am{fill:#f69265;}.an{fill:#383838;}.ao{fill:#caeaf8;}.ap{fill:#060707;}.aq{fill:#f4a986;}.ar{fill:#ea643c;}.as{fill:url(#a);}</style><linearGradient id="a" x1="0.5" x2="0.5" y2="1" gradientUnits="objectBoundingBox"><stop offset="0" stop-color="#5277f7"/><stop offset="0.005" stop-color="#ff805a"/><stop offset="1" stop-color="#f6bf28"/></linearGradient></defs><g transform="translate(-800 -141.665)"><g transform="translate(12569.333 12346)"><g class="a" transform="translate(-11565.936 -11952.017)"><g transform="translate(0)"><path class="b" d="M2037.908,1371.37v9.556l97.3-25.6,9.5,25.6,120.634-19.519-131.81-16.807Z" transform="translate(-1946.242 -1240.456)"/><path class="c" d="M1895.86,1250.646l91.665,73.039,214.827-67.432-91.665-73.038Z" transform="translate(-1895.86 -1183.214)"/><path class="d" d="M2148,1280.641l24.487,47.614,3.728-4.521-19.433-43.092Z" transform="translate(-1985.291 -1217.77)"/><path class="e" d="M2152.546,1259.568l30.461,75.407,219.846-20.708-31.045-76.851Z" transform="translate(-1986.904 -1202.439)"/></g></g><g class="f" transform="translate(-11735.463 -12192.373)"><path class="g" d="M421.4,855.423l-85.551-41.291a6.2,6.2,0,0,0-2.946-.792,6.95,6.95,0,0,0-2.905.6l-84.729,40.893c-.667.322-1.064.724-1.064,1.077,0,.329.355.57.654.714l85.551,41.291a6.712,6.712,0,0,0,5.043-.2l84.73-40.894c.665-.321,1.063-.723,1.063-1.076C421.253,855.42,420.9,855.178,421.4,855.423Z" transform="translate(-189.816 -632.18)"/><path class="h" d="M422.32,99.1,320.992,50.2a9.7,9.7,0,0,0-7.517.234L213.122,98.866c-1.292.625-2.034,1.5-2.034,2.393a2.31,2.31,0,0,0,1.549,1.965L313.963,152.13a7.839,7.839,0,0,0,3.32.651,9.968,9.968,0,0,0,4.2-.885l100.354-48.435c1.292-.625,2.032-1.5,2.032-2.393A2.306,2.306,0,0,0,422.32,99.1Zm-1.24,3.264L320.725,150.8a8,8,0,0,1-6.007.234L213.392,102.129c-.362-.174-.792-.466-.792-.871,0-.427.477-.912,1.278-1.3L314.23,51.525a8,8,0,0,1,6.007-.234L421.565,100.2c.362.174.792.467.792.87C422.357,101.494,421.88,101.98,421.08,102.366Z" transform="translate(-164.071 -38.511)"/><g transform="translate(0 331.91)"><path class="h" d="M68.07,1822.572,0,1789.717v1.565l64.829,31.29Z" transform="translate(0 -1722.993)"/><path class="h" d="M93.221,1492.021l108.689,52.459c.388.187.85.5.85.933,0,.458-.512.979-1.371,1.393l-88.929,42.921H115.7l86.5-41.747c1.386-.67,2.18-1.605,2.18-2.567a2.473,2.473,0,0,0-1.659-2.108L94.031,1490.848a10.4,10.4,0,0,0-8.063.251L0,1532.592v1.565l86.778-41.884A8.58,8.58,0,0,1,93.221,1492.021Z" transform="translate(0 -1490.151)"/></g><path class="h" d="M1883.949,413.174a8.464,8.464,0,0,1-6.357.248l-107.223-51.753c-.383-.184-.838-.493-.838-.921,0-.452.505-.966,1.352-1.375l106.192-51.254a8.465,8.465,0,0,1,6.357-.248l85.929,41.474V347.8l-85.13-41.088a10.263,10.263,0,0,0-7.954.248l-106.193,51.254c-1.367.661-2.153,1.583-2.153,2.532a2.444,2.444,0,0,0,1.639,2.079l107.223,51.753a8.3,8.3,0,0,0,3.513.688,10.548,10.548,0,0,0,4.441-.936l84.613-40.838v-1.544Z" transform="translate(-1374.15 -237.863)"/><path class="h" d="M1238.541,574.195l-79.5-38.369a7.623,7.623,0,0,0-5.923.184l-78.735,38c-1.021.494-1.608,1.186-1.608,1.9a1.829,1.829,0,0,0,1.228,1.56l79.5,38.37a6.175,6.175,0,0,0,2.617.513,7.834,7.834,0,0,0,3.306-.7l78.733-38c1.022-.493,1.608-1.183,1.608-1.9A1.829,1.829,0,0,0,1238.541,574.195Zm-1,2.56-78.733,38a6.241,6.241,0,0,1-4.688.184l-79.5-38.369c-.277-.134-.608-.358-.608-.664,0-.328.37-.7.988-1l78.734-38a6.454,6.454,0,0,1,2.7-.558,4.741,4.741,0,0,1,1.988.374l79.5,38.369c.278.134.608.358.608.664C1238.531,576.082,1238.163,576.456,1237.543,576.755Z" transform="translate(-833.833 -416.079)"/><path class="h" d="M46.376,1246.66a1.557,1.557,0,0,0-1.045-1.328L0,1223.453v1.017l44.8,21.625c.237.114.518.3.518.565,0,.279-.314.6-.841.851L0,1268.979V1270l45.007-21.723C45.877,1247.854,46.376,1247.266,46.376,1246.66Z" transform="translate(0 -950.946)"/><path class="i" d="M1186.948,1348.307l-79.5-38.37a5.766,5.766,0,0,0-2.737-.735,6.456,6.456,0,0,0-2.7.559l-78.733,38c-.619.3-.988.673-.988,1,0,.306.33.53.608.664l79.5,38.369a6.239,6.239,0,0,0,4.687-.185l78.734-38c.618-.3.988-.672.988-1C1186.808,1348.3,1186.476,1348.08,1186.948,1348.307Z" transform="translate(-794.592 -1017.596)"/><path class="j" d="M1264.065,1065.526l-79.5-38.37a5.765,5.765,0,0,0-2.737-.736,6.462,6.462,0,0,0-2.7.558l-78.733,38c-.619.3-.989.673-.989,1,0,.305.33.529.608.663l79.5,38.37a6.237,6.237,0,0,0,4.686-.185l78.734-38c.618-.3.988-.672.988-1C1263.925,1065.522,1263.593,1065.3,1264.065,1065.526Z" transform="translate(-854.532 -797.801)"/><path class="k" d="M1278.971,587.868l-74.431-35.924a5.4,5.4,0,0,0-2.563-.689,6.047,6.047,0,0,0-2.528.523l-73.716,35.578c-.58.28-.926.63-.926.937,0,.286.309.5.569.621l74.432,35.925a5.841,5.841,0,0,0,4.388-.172l73.718-35.579c.579-.279.925-.629.925-.936C1278.839,587.865,1278.529,587.655,1278.971,587.868Z" transform="translate(-874.273 -428.471)"/><path class="j" d="M658.356,1785.015l-31.187-15.053a2.265,2.265,0,0,0-1.074-.288,2.531,2.531,0,0,0-1.059.219L594.148,1784.8c-.243.117-.388.264-.388.393s.13.208.239.26l31.187,15.053a2.447,2.447,0,0,0,1.838-.072l30.888-14.908c.243-.117.388-.264.388-.392S658.17,1784.925,658.356,1785.015Z" transform="translate(-461.508 -1375.504)"/><path class="l" d="M2063.414,1032.082l-64.463-31.113a4.674,4.674,0,0,0-2.22-.6,5.242,5.242,0,0,0-2.189.453l-63.843,30.813c-.5.243-.8.546-.8.812,0,.247.268.429.493.538l64.463,31.113a5.06,5.06,0,0,0,3.8-.15l63.844-30.814c.5-.242.8-.545.8-.811C2063.3,1032.08,2063.031,1031.9,2063.414,1032.082Z" transform="translate(-1500.041 -777.554)"/><path class="l" d="M1712.57,1407.3l-67.046-32.36a4.86,4.86,0,0,0-2.308-.62,5.45,5.45,0,0,0-2.277.471l-66.4,32.048c-.522.252-.834.568-.834.844,0,.258.279.447.513.56l67.046,32.36a5.26,5.26,0,0,0,3.953-.156l66.4-32.049c.521-.251.834-.567.834-.844C1712.451,1407.3,1712.171,1407.106,1712.57,1407.3Z" transform="translate(-1223.183 -1068.208)"/><path class="m" d="M1235.744,16.107c0,.335.362.581.667.727L1323.566,58.9a6.839,6.839,0,0,0,5.138-.2l86.318-41.661c.678-.327,1.084-.737,1.084-1.1,0-.335-.364-.581.154-.331L1383.918,0H1267.927l-31.1,15.01C1236.148,15.338,1235.744,15.748,1235.744,16.107Z" transform="translate(-960.5)"/><path class="m" d="M2149.533,1381.417a6.318,6.318,0,0,0-3-.807,7.08,7.08,0,0,0-2.959.612l-86.317,41.66c-.679.328-1.083.738-1.083,1.1,0,.335.362.581.667.727l87.154,42.065a6.838,6.838,0,0,0,5.138-.2L2193.4,1445.2v-42.615Z" transform="translate(-1598.19 -1073.099)"/><path class="n" d="M1344.048,571.385l-40.094-19.351a2.39,2.39,0,0,0-1-.189,3.259,3.259,0,0,0-1.362.282l-39.709,19.165c-.313.151-.5.34-.5.505s.167.267.307.335l40.094,19.351a3.145,3.145,0,0,0,2.363-.093l39.71-19.165c.312-.15.5-.339.5-.5S1344.188,571.453,1344.048,571.385Z" transform="translate(-980.427 -428.929)"/><path class="i" d="M2375.943,628.158l-35-16.894a2.087,2.087,0,0,0-.875-.165,2.845,2.845,0,0,0-1.189.246l-34.666,16.731c-.273.132-.435.3-.435.441s.146.233.268.292l35,16.894a2.746,2.746,0,0,0,2.063-.081l34.667-16.732c.273-.131.436-.3.436-.44S2376.065,628.217,2375.943,628.158Z" transform="translate(-1790.643 -474.986)"/><path class="o" d="M1741.352,368.84l-35-16.894a2.088,2.088,0,0,0-.876-.165,2.848,2.848,0,0,0-1.188.246l-34.666,16.731c-.273.132-.435.3-.435.441s.146.233.268.292l35,16.894a2.748,2.748,0,0,0,2.064-.081l34.667-16.732c.272-.131.435-.3.435-.44S1741.474,368.9,1741.352,368.84Z" transform="translate(-1297.397 -273.427)"/><path class="p" d="M369.393,222.237l-41.056-19.815a2.446,2.446,0,0,0-1.027-.193,3.34,3.34,0,0,0-1.394.288l-40.661,19.625c-.32.155-.51.348-.51.517s.17.274.314.343l41.056,19.815a3.221,3.221,0,0,0,2.42-.1L369.2,223.1c.319-.154.51-.347.51-.517S369.536,222.306,369.393,222.237Z" transform="translate(-221.322 -157.185)"/><path class="q" d="M422.778,1521.453l-40.444-19.52a2.408,2.408,0,0,0-1.011-.19,3.282,3.282,0,0,0-1.373.284l-40.055,19.332c-.315.152-.5.342-.5.509s.168.269.309.338l40.444,19.52a3.175,3.175,0,0,0,2.384-.094l40.056-19.333c.315-.152.5-.342.5-.509S422.919,1521.521,422.778,1521.453Z" transform="translate(-263.797 -1167.251)"/><path class="q" d="M1767.885,655.228l-40.444-19.52a2.407,2.407,0,0,0-1.011-.191,3.285,3.285,0,0,0-1.373.284L1685,655.133c-.315.152-.5.343-.5.509s.168.269.309.338l40.444,19.52a3.174,3.174,0,0,0,2.384-.094l40.056-19.333c.314-.152.5-.342.5-.509S1768.026,655.3,1767.885,655.228Z" transform="translate(-1309.3 -493.965)"/><path class="q" d="M691.253,1291.2l-40.444-19.521a2.41,2.41,0,0,0-1.012-.19,3.289,3.289,0,0,0-1.373.284l-40.055,19.333c-.315.152-.5.342-.5.509s.168.269.309.338l40.444,19.52a3.173,3.173,0,0,0,2.384-.094l40.056-19.333c.314-.151.5-.342.5-.509S691.394,1291.273,691.253,1291.2Z" transform="translate(-472.473 -988.287)"/><path class="r" d="M2106.726,431.209l-35-16.894a2.085,2.085,0,0,0-.875-.165,2.844,2.844,0,0,0-1.189.246l-34.666,16.731c-.273.132-.435.3-.435.441s.145.233.268.292l35,16.894a2.747,2.747,0,0,0,2.063-.081l34.667-16.732c.272-.131.435-.3.435-.44S2106.848,431.268,2106.726,431.209Z" transform="translate(-1581.39 -321.904)"/><path class="h" d="M96.5,485.78a11.256,11.256,0,0,0,4.762-.931l165.1-79.684c1.341-.647,2.08-1.568,2.08-2.593,0-1.2-1.026-2.378-2.815-3.241L4.055,273.039A13.415,13.415,0,0,0,0,271.886v1.051a11.9,11.9,0,0,1,3.437,1L265,400.227c1.4.673,2.2,1.529,2.2,2.345,0,.649-.505,1.236-1.461,1.7l-165.1,79.683c-2.449,1.181-6.76,1.023-9.613-.355L0,439.646v1.194l90.41,43.654A14.439,14.439,0,0,0,96.5,485.78Z" transform="translate(0 -211.327)"/><path class="h" d="M1547.32,781.011l-93.836-45.342-.618.9,93.836,45.343a1.216,1.216,0,0,1,.463.95c0,.28-.173.251-.463.39l-207.99,100.386a4.653,4.653,0,0,1-3.967,0l-46.563-22.474-.618.9,46.564,22.474a6.115,6.115,0,0,0,5.2,0l207.99-100.386a1.675,1.675,0,0,0,0-3.132Z" transform="translate(-1000.777 -571.809)"/><path class="h" d="M594.66,1284.191l97.38,47,97.374-47-97.377-47Zm97.38,44.439-92.07-44.439,92.067-44.436,92.067,44.439Z" transform="translate(-462.208 -961.626)"/></g><g transform="translate(-11769.333 -12115.474)"><g transform="translate(0 0)"><path class="s" d="M574.094,708.817c-72.334-35.872-191.925-34.293-267.047,3.52-37.621,18.91-57,43.3-57.906,67.455-.717,18.875,9.847,37.6,31.785,53.443l-43.958,22.126-17.5-6.958L46.4,935.582l72.385,35.8,37.231,6.31,166.354-83.611L288.378,875.8l38.9-19.579C399.922,880.935,502.125,876,569.045,842.263c37.615-18.907,57-43.3,57.906-67.452S610.318,726.753,574.094,708.817Zm7.855,66.587c-.7,18.406-15.441,37-44.067,51.409-57.246,28.817-148.4,30.019-203.522,2.683-27.562-13.668-40.914-31.889-40.216-50.3s15.441-37,44.067-51.407c57.246-28.817,148.4-30.019,203.522-2.686C569.3,738.775,582.641,757,581.949,775.4Z" transform="translate(-46.395 -650.564)"/><path class="t" d="M1227.021,666.837c-72.335-35.871-197.367-53.211-319.286,3.475-38.18,17.752-28.47,48.7-29.383,72.854-.714,18.874,9.848,37.6,31.785,53.442L864.69,819.486l46.344,22.982,45.449-22.877c72.652,24.716,174.855,19.78,241.773-13.955,37.619-18.907,57-43.3,57.908-67.453S1263.247,684.773,1227.021,666.837Zm-15.864,71.939c-.7,18.406-18.932,22.449-47.556,36.859-57.246,28.817-142.3,28.43-197.424,1.093-27.564-13.669-43.519-15.749-42.823-34.157s15.441-37,44.067-51.407c57.246-28.817,148.4-30.02,203.523-2.686C1198.506,702.148,1211.855,720.37,1211.157,738.776Z" transform="translate(-649.065 -614.3)"/><ellipse class="u" cx="148.582" cy="71.645" rx="148.582" ry="71.645" transform="translate(273.054 37.691)"/><path class="v" d="M1126.444,724.175c-33.386,16.1-47.456,37.948-42.42,58.934,38.422,3.908,90.784,9.38,123.222-23.853,43.227-44.288,141.621-27.1,144.664-26.269a125.409,125.409,0,0,0-15.338-8.813C1278.544,696.194,1184.465,696.194,1126.444,724.175Z" transform="translate(-809.87 -665.498)"/><path class="w" d="M1203.307,586.056c-72.335-35.871-191.925-34.292-267.049,3.521-37.62,18.909-56.993,43.3-57.906,67.455-.714,18.874,9.848,37.6,31.785,53.442L864.69,733.353l46.344,22.982,45.449-22.877c72.652,24.716,174.855,19.78,241.773-13.955,37.619-18.907,57-43.3,57.908-67.454S1239.533,603.992,1203.307,586.056Zm7.85,66.587c-.7,18.406-15.439,37-44.062,51.409-57.246,28.817-148.4,30.021-203.525,2.684-27.564-13.668-40.912-31.889-40.216-50.3s15.441-37,44.067-51.407c57.246-28.818,148.4-30.02,203.523-2.686C1198.506,616.015,1211.855,634.237,1211.157,652.643Z" transform="translate(-649.065 -560.152)"/><path class="x" d="M463.223,1456.634l166.367-83.745v-39.864l-166.367,83.745Z" transform="translate(-353.386 -1129.369)"/><path class="y" d="M172.55,1546.3l76.594,37.9v-40.169l-76.594-37.8Z" transform="translate(-139.308 -1256.931)"/><path class="z" d="M172.55,1271.994l77.38,38.444L416.3,1226.693l-77.378-38.5Z" transform="translate(-139.308 -1022.698)"/></g></g></g><g class="aa" transform="translate(356.282 -1144.783)"><g transform="translate(639.415 1349.509)"><path class="ab" d="M1557.5,1825.66c-22.588-13.041-59.1-13.041-81.538,0-.106.062-.209.121-.311.185-14.449,8.521-19.368,20.433-14.794,31.285,2.432,5.777,7.556,11.256,15.363,15.764,22.592,13.043,59.108,13.043,81.553,0s22.318-34.191-.273-47.234Z" transform="translate(-1297.141 -1723.683)"/><path class="ab" d="M1513.666,1784.538c-28.393-16.393-74.435-16.392-102.643,0-.757.44-1.5.886-2.209,1.339l1.441.574c.644-.408,1.309-.808,1.993-1.206,27.532-16,72.488-16,100.2,0s27.866,42.044.334,58.043-72.494,16-100.214,0c-10.168-5.87-16.63-13.092-19.365-20.675l-1.743.062c2.778,7.823,9.413,15.273,19.89,21.322,28.4,16.395,74.446,16.394,102.658,0s28.055-43.064-.342-59.459Z" transform="translate(-1242.789 -1688.674)"/><path class="ab" d="M1464.588,1744.414c-34.077-19.674-89.358-19.674-123.213,0q-2.085,1.211-4,2.487l3.839,1.522q1.65-1.081,3.434-2.119c32.063-18.633,84.416-18.634,116.689,0s32.451,48.962.388,67.595-84.423,18.638-116.7,0c-12.262-7.079-19.885-15.844-22.872-25.018l-4.637.17c3.083,9.8,11.167,19.179,24.257,26.737,34.084,19.679,89.365,19.678,123.228,0s33.675-51.7-.409-71.374Z" transform="translate(-1183.46 -1654.507)"/><path class="ab" d="M1359.079,1662.294c-45.721-26.4-119.876-26.4-165.3,0s-45.189,69.355.531,95.752c19.242,11.109,43.517,17.545,68.566,19.3l-.241-5.736c-22.451-1.747-44.143-7.607-61.416-17.579-41.885-24.182-42.106-63.535-.486-87.722s109.552-24.183,151.436,0c27.138,15.668,36.791,37.7,28.913,57.846l9.286,1.943c9.078-22.172-1.373-46.53-31.291-63.8Z" transform="translate(-1056.977 -1584.577)"/><path class="ab" d="M1133.912,1731.78c-49.9-28.809-50.166-75.684-.592-104.493s130.5-28.81,180.4,0,50.159,75.684.585,104.493-130.5,28.81-180.394,0Zm181.433-105.438c-24.609-14.208-57.265-22.033-91.954-22.033s-67.257,7.826-91.706,22.034-37.852,33.1-37.736,53.19,13.726,38.985,38.335,53.193,57.269,22.031,91.958,22.031,67.254-7.824,91.7-22.032,37.849-33.1,37.739-53.192-13.729-38.983-38.339-53.191Z" transform="translate(-1004.093 -1553.938)"/><path class="ab" d="M1204.183,1538.576l-3.973.684c17.687,28.833,11.761,61.45-17.831,87.646l3.321,1.371c18.694-16.45,28.672-35.729,28.555-55.91-.066-11.689-3.517-23.079-10.072-33.791Zm-47.944-41.5c-32.429-17.024-74.014-26.339-118.008-26.339-46.863,0-90.868,10.57-123.9,29.764s-51.14,44.722-50.983,71.865,18.544,52.669,51.789,71.862S992.511,1674,1039.375,1674c28.062,0,55.091-3.788,79.359-10.952l-2.022-2.079c-64.2,18.822-144.9,12.691-198.726-18.387-67.053-38.713-67.408-101.7-.787-140.42,64.595-37.538,168.8-38.68,236.191-3.423l2.849-1.656Z" transform="translate(-819.081 -1446.773)"/><path class="ab" d="M1075.585,1428.994c-19.278-11.13-41.746-19.751-66.755-25.619a340.412,340.412,0,0,0-151.539,0c-24.943,5.868-47.314,14.489-66.467,25.619s-33.963,24.117-44.016,38.586c-9.707,13.975-14.585,28.741-14.5,43.889s5.126,29.918,14.99,43.889q.96,1.361,1.974,2.7l3.893-.744c-31.769-41.848-18.313-92.481,40.518-126.669,76.682-44.563,201.869-44.563,279.052,0s77.6,117.077.914,161.64c-47.717,27.73-114.214,38.21-176.24,31.426l-.985,2.329a344.6,344.6,0,0,0,37.9,2.059,331.22,331.22,0,0,0,75.725-8.538c24.947-5.87,47.306-14.489,66.467-25.624s33.966-24.114,44.015-38.582c9.7-13.976,14.578-28.741,14.492-43.891s-5.125-29.914-14.99-43.889c-10.208-14.465-25.164-27.451-44.45-38.586Z" transform="translate(-713.947 -1385.875)"/><path class="ab" d="M1013.994,1385.108c-21.038-12.146-45.546-21.555-72.841-27.955a350.124,350.124,0,0,0-47.013-7.645l.291.765c43.464,4.168,85.2,15.938,118.752,35.306,85.5,49.363,85.951,129.684,1.015,179.044s-223.612,49.365-309.111,0-85.944-129.68-1-179.044a234.187,234.187,0,0,1,32.715-15.63l-.272-.729a236.712,236.712,0,0,0-33.26,15.887c-20.909,12.151-37.073,26.316-48.032,42.106-10.592,15.247-15.909,31.362-15.82,47.891s5.6,32.641,16.359,47.891c11.141,15.787,27.46,29.955,48.5,42.1s45.554,21.555,72.849,27.959a371.4,371.4,0,0,0,165.358,0c27.219-6.4,51.625-15.809,72.534-27.96s37.062-26.314,48.025-42.1c10.588-15.25,15.913-31.364,15.82-47.891s-5.6-32.644-16.359-47.891c-11.141-15.791-27.46-29.955-48.506-42.105Z" transform="translate(-639.415 -1349.509)"/></g></g><g transform="translate(946.008 409.007)"><g transform="translate(0 0)"><path class="z" d="M1200.618,3282.326s-1.161,5.5,0,7.374,5.4,3.131,7.475,5.151,8.282,7.222,12.373,4.192-4.835-8.889-6.407-11.162a25.139,25.139,0,0,1-2.633-5.555Z" transform="translate(-1167.922 -3160.158)"/><path class="z" d="M1229.325,3266.108s-1.014,4.81,0,6.441,4.721,2.736,6.53,4.5,7.237,6.31,10.81,3.663-4.224-7.766-5.6-9.751a21.976,21.976,0,0,1-2.3-4.854Z" transform="translate(-1177.821 -3154.578)"/><path class="ac" d="M1162.584,3188.682s-3.476,10.1,2.824,15.6,23.574,12.993,23.574,12.993a19.05,19.05,0,0,0-2.7,10.32c-.013,6.518,1.622,16.73.479,22.813,0,0,4.4,3.693,12,.543,0,0,3.582-37.369,1.3-40.627s-18.838-21.075-18.838-21.075Z" transform="translate(-1154.686 -3127.941)"/><path class="ad" d="M1183.748,3188.68s.343,7.3,7.412,9.579,22.153,7.184,22.153,7.184-1.109,7.751,0,12.771,0,19.5,0,19.5,4.074,1.71,10.46,0c0,0,3.079-36.491-.684-40.139s-23.659-15.395-23.659-15.395Z" transform="translate(-1162.296 -3125.704)"/><path class="ae" d="M1188,3194.09l15.059,11.732.6-.967-15.271-11.681Z" transform="translate(-1163.758 -3129.486)"/><path class="af" d="M1203.868,3200.155l24.156-9.548-13.042-11.1-26.385,8.963Z" transform="translate(-1163.964 -3124.786)"/><path class="ag" d="M1207.656,3157.218l.934,2.119s1.486,8.4,4.546,12.741c0,0-.117,4.2.973,4.839s5.5.5,7.069-.783-2.491-6.121-2.491-6.121-2.843-9.654-4.091-11.8l-1.176-2.647Z" transform="translate(-1170.521 -3116.547)"/><path class="ah" d="M1204.093,3120.127s2.247.423,3.795,7.2,3.316,16.726,3.316,16.726a8.911,8.911,0,0,1-6.78,1.842s-3.684-11.864-4.863-16.505S1200.225,3119.039,1204.093,3120.127Z" transform="translate(-1167.615 -3104.309)"/><path class="ai" d="M1169.135,3117.051a16.551,16.551,0,0,1-4.87,5.684c-2.969,1.909-7.528,4.878-8.058,9.544s5.513,13.359,5.2,19.084-2.757,9.755-1.591,12.193c1.123,2.347,14.72,7.739,29.353-2.542a3.233,3.233,0,0,0,1.294-3.288c-.824-4.07-2.563-13.27-2.419-17.813.188-5.937,3.479-18.789,1.248-21.161S1174.112,3114.865,1169.135,3117.051Z" transform="translate(-1152.81 -3102.933)"/><path class="ag" d="M1188.779,3097.751c8.876.514,7.172,8.234,6.375,11.289s-4.117,12.352-9.563,11.157-7.3-7.731-6.641-11.17S1179.615,3097.219,1188.779,3097.751Z" transform="translate(-1160.601 -3096.649)"/><path class="ag" d="M1175.9,3116.688s-1.066,6.049,5.9,7.37l4.5-3.063-1.076-6.059Z" transform="translate(-1159.576 -3102.569)"/><path d="M1179.211,3109.127s6.128,1.253,11.049,0,5.189-4.562,5.1-5.859-1.521-7.649-11.363-7.157-9.528,11.72-8.365,14.091C1175.632,3110.2,1176.885,3110.649,1179.211,3109.127Z" transform="translate(-1159.307 -3096.083)"/><path class="ag" d="M1180.71,3115.735s-.327-3.266-2.355-2.371-.134,3.8,1.177,4.429Z" transform="translate(-1160.134 -3101.976)"/><path class="ag" d="M1160.064,3175.664a80.371,80.371,0,0,1,18.286,5.215s9.09,0,10.393,1.059,1.9,3.5.95,4.725-2.119,2.282-2.839,2.038a4.289,4.289,0,0,1-1.453-1.093s-6.965.367-8.249-.94c0,0-23.038-3.344-23.446-5.544s-.977-4.074-.977-4.074S1157.868,3176.9,1160.064,3175.664Z" transform="translate(-1151.625 -3123.462)"/><path class="ah" d="M1159.833,3136.66c3.936,0,4.089,6.249,3.4,10.482s-1.642,14.865-1.642,14.865-5.963,4.063-10.544,2.333c0,0,1.442-17.656,2.307-22.669S1156.721,3136.66,1159.833,3136.66Z" transform="translate(-1151.045 -3110.043)"/><path class="aj" d="M1210.956,3194.705l24.3-9.671,10.064-24.175-23.354,8.642Z" transform="translate(-1171.656 -3118.368)"/></g></g><g transform="translate(1190.786 167.199)"><ellipse class="ak" cx="27.347" cy="9.76" rx="27.347" ry="9.76" transform="translate(0 157.052)"/><path class="w" d="M1820.588,3362.726s-1.335,5.972-.816,7.085,3.524,3.079,6.9,2.782,7.865-3.338,10.239-3.45,7.79-4.006,4.6-5.972-9.831.148-13.577-1.521Z" transform="translate(-1808.417 -3203.356)"/><path class="al" d="M1816.722,3235.472s-1.892,4.539-2.143,12.734,4.538,29.5,4.538,29.5-3.036,6.3-2.274,9.96,3.157,20.929,2.779,24.585-1.135,7.186-1.135,7.186,7.255,2.766,11.269-.756l7.643-45.513-2.4-36.309Z" transform="translate(-1806.659 -3159.732)"/><path class="w" d="M1839.29,3365.688s-1.867,5.278-1.449,6.983a5.627,5.627,0,0,0,5.213,3.8c2.8.128,4.6-1.706,6.05-1.673s12.1,2.638,14.1-5.825c0,0,.161-1.867-2.189-2.253s-11.038,0-12.389-1.352Z" transform="translate(-1814.683 -3204.641)"/><path d="M1853.6,3241.257s2.907,5.918-1.246,45.376a185.318,185.318,0,0,1-5.192,36.964s-6.854,3.634-11.422-.727c0,0,1.558-11.318,1.246-13.6s-3.946-16.717,1.661-22.324c0,0-4.257-18.586-5.192-21.182s-6.453-11.746-4.837-21.24Z" transform="translate(-1811.415 -3161.733)"/><path class="ag" d="M1868.943,3170.643a10.938,10.938,0,0,0,6.423-4.877l-5.19-3.84-4.013,4.358Z" transform="translate(-1824.496 -3134.306)"/><path class="am" d="M1853.066,3172.28l7.787-4.233a5.382,5.382,0,0,1,3.562,4.712l-6.235,6.44S1856.446,3173.924,1853.066,3172.28Z" transform="translate(-1819.968 -3136.421)"/><path class="an" d="M1870.741,3153.93l22.978,14.332a.872.872,0,0,0,1.268-.408l8.137-19.768a.871.871,0,0,0-.373-1.088l-24.137-13.8a.872.872,0,0,0-1.252.459l-6.978,19.233A.871.871,0,0,0,1870.741,3153.93Z" transform="translate(-1825.937 -3124.335)"/><path class="ao" d="M1878.986,3135.4l-6.678,18.194a.466.466,0,0,0,.191.555L1894,3167.591a.467.467,0,0,0,.679-.218l7.654-18.649a.465.465,0,0,0-.2-.581l-22.481-12.982A.467.467,0,0,0,1878.986,3135.4Z" transform="translate(-1826.611 -3125.031)"/><path class="ag" d="M1864.967,3164.255l1.21-4.932s1.608-1.994,2.763-2.134,4.581-.244,4.511.351-1.628,1.469-4.241,2.028c0,0,1.164,3.357.709,4.931s-1.389,4.468-1.389,4.468S1866.94,3165.34,1864.967,3164.255Z" transform="translate(-1824.083 -3132.631)"/><path class="ag" d="M1842.606,3124.391c2.851.706,5.558,2.778,5.691,5.691s-.331,14.822-2.118,15.153-7.94-3.441-10.124-7.346S1835.393,3122.6,1842.606,3124.391Z" transform="translate(-1813.769 -3121.263)"/><path class="ag" d="M1826.559,3147.378l.679,10.319s3.228,2.888,12.145,2.166a23.034,23.034,0,0,1,.524-4.8,37.057,37.057,0,0,1,2.406-4.958S1831.188,3145.934,1826.559,3147.378Z" transform="translate(-1810.804 -3129.17)"/><path class="z" d="M1824.68,3159.666s-7.123-4.413-10.654-3.971-7.565,9.519-6.556,16.264,5.547,16.074,5.421,19.416-1.261,16.264-.126,17.4,5.043,6.683,16.328,8.069,17.146-2.207,17.966-4.6-.441-8.132-1.2-9.834a43.887,43.887,0,0,1-1.639-18.345c1.2-7.564,1.415-14.811-7.866-20.3Z" transform="translate(-1804.151 -3132.141)"/><path class="ap" d="M1821.93,3127.025a5.609,5.609,0,0,1,3.751-5.65c4.214-1.713,12.873-3.149,16.994,1.273,0,0,1.667,1.922-4.075,4.376a4.551,4.551,0,0,0,1.065,3.473c1.436,2.037-1.341,3.408-1.852,4.862s-2.177,8.707-4.538,8.707-9.122-.973-9.586-1.806S1816.234,3130.591,1821.93,3127.025Z" transform="translate(-1808.435 -3119.711)"/><path class="ag" d="M1847.79,3140.828s-.324-2.732-2.5-1.944-.463,4.492,1.574,5.14Z" transform="translate(-1816.93 -3126.29)"/><path class="aq" d="M1824.056,3158.929l1.565-2.277s1.535,3.971,16.971,4.291a.915.915,0,0,1,.384,1.055c-.256.64-.831,2.109-.831,2.109a8.632,8.632,0,0,0-2.246-.334C1839.068,3163.836,1827.635,3164.906,1824.056,3158.929Z" transform="translate(-1809.939 -3132.482)"/><path class="ag" d="M1896.455,3178.029s-.615-4.2,0-6.012,1.842-2.295,2.322-3.63,1.175-7.313,2.456-7.259.481,6.245,1.068,6.992,4.324,4.11,4.164,5.285-.694,4.072-1.6,4.625-3.538,4.076-3.538,4.076A30.39,30.39,0,0,0,1896.455,3178.029Z" transform="translate(-1834.875 -3134.03)"/><path class="ar" d="M1853.081,3181.244c3.177-3.485,6.115-2.548,7.453-.637s10.7,17.453,10.7,17.453,5.541-10.51,9.873-13.886c0,0,4.713,1.4,5.159,3.631s-9.618,22.294-12.166,22.23-4.268,1.083-8.663-2.867-10.975-14.587-12.813-18.218A7.585,7.585,0,0,1,1853.081,3181.244Z" transform="translate(-1819.527 -3140.174)"/></g><g transform="translate(-236.788 -2360.736)"><ellipse class="ak" cx="19.703" cy="7.032" rx="19.703" ry="7.032" transform="translate(1199.922 2614.459)"/><g transform="translate(1203.188 2502.401)"><path class="ag" d="M1238.624,2508.375c2.495.526,4.956.586,5.116,4.1s-.32,10.978-3.784,9.166-6.448-4.008-6.608-8S1236.1,2507.842,1238.624,2508.375Z" transform="translate(-1221.59 -2505.64)"/><path class="ag" d="M1238.31,2537.659l2.117-7.158-6.462-1.952-1.588,9.109Z" transform="translate(-1221.059 -2516.799)"/><path class="as" d="M1217.4,2543.057c-1.006-.8-4.452,2.631-5.515,4.756s-5.109,8.4-4.654,13.2,9.41,7.487,9.41,7.487l2.53-4.6Z" transform="translate(-1207.191 -2524.722)"/><path class="ag" d="M1251.45,2713.411c-1.979-1.013-4.207-2.833-4.812-4.183l-.809,4.047h-1.486l-1.01-5.869s-1.823-1.956,0-5.457v0s1.01-7.692-.2-12.144-2.965-9.78-1.01-13.962l-.4-6.274,6.875,3.441c-.064.2-.316,4.239-.385,4.644s-.356,22.067.052,23.955a28.65,28.65,0,0,0,2.512,5.545c1.109,2,2.3,3.811,2.953,4.1C1255.068,2711.856,1253.426,2714.42,1251.45,2713.411Z" transform="translate(-1225.94 -2594.443)"/><path class="ag" d="M1232.86,2707.42c-2.88-.689-5.806-5.349-5.806-5.349l-.633,5.349h-1.034l-1.15-7.015a5.06,5.06,0,0,1,.172-4.948,150.1,150.1,0,0,0-.461-18.057,11.5,11.5,0,0,1,1.667-6.848v-5.232l6.27-.633s-.232,6.1-.573,8.453-2.568,23.543-2.568,23.543c.5,2.083,2.4,4.543,4.111,6.442,1.406,1.563,2.68,2.745,2.941,3.029C1236.374,2706.787,1235.74,2708.109,1232.86,2707.42Z" transform="translate(-1216.276 -2591.758)"/><path class="ac" d="M1232.86,2745.083c-2.88-.689-5.806-5.349-5.806-5.349s-.537-1.118-2.816-1.667a5.06,5.06,0,0,1,.172-4.948,2.2,2.2,0,0,1,2.079.757c.758,1.026,3.173,6.375,5.088,6.739.4.076.833.132,1.278.172,1.406,1.563,2.68,2.745,2.941,3.029C1236.374,2744.45,1235.74,2745.772,1232.86,2745.083Z" transform="translate(-1216.276 -2629.42)"/><path class="ac" d="M1227.725,2745.835l-.633,5.349h-1.034l-1.15-7.015C1227.189,2744.717,1227.725,2745.835,1227.725,2745.835Z" transform="translate(-1216.947 -2635.521)"/><g transform="translate(16.583 107.505)"><path class="ac" d="M1253.021,2753.09c-1.98-1.013-4.207-2.833-4.812-4.183l-.809,4.047h-1.486l-1.01-5.869s-1.823-1.955,0-5.457a3.91,3.91,0,0,1,2.74,1.606c.693,1.334,1.907,3.967,3.574,3.967a2.092,2.092,0,0,0,1.122-.373c1.11,2,2.3,3.811,2.953,4.1C1256.638,2751.535,1255,2754.1,1253.021,2753.09Z" transform="translate(-1244.093 -2741.627)"/><path class="ac" d="M1249.2,2755.593l-.809,4.047h-1.486l-1.01-5.87A5.232,5.232,0,0,1,1249.2,2755.593Z" transform="translate(-1245.086 -2748.313)"/></g><path class="ac" d="M1218.662,2597.518s-2.23,4.794-.866,8.788,4.584,16.752,3.8,23.57c0,0,4.647,4.869,13.96,4.48,0,0,6.541-20.423-.594-31.492Z" transform="translate(-1212.787 -2554.773)"/><path class="as" d="M1228.818,2541.6c2.323.885,9.17,5.149,10.2,6.571s-.834,7.258-1.52,10.347-1.43,11.867-1.107,13.142-6.935,2.3-11.4-.932-4.9-4.414-4.9-4.414a108.6,108.6,0,0,1,.343-15.839C1221.266,2542.484,1222.639,2539.248,1228.818,2541.6Z" transform="translate(-1214.214 -2523.572)"/><path class="as" d="M1256.617,2562.975c-.352,1.771-2.833,10.521-2.224,14.063a40.29,40.29,0,0,0,1.382,4.9,13.6,13.6,0,0,1-5.048,1.554,17.447,17.447,0,0,1-1.394-6c-.253-6.679,1.013-14.319,2.123-16.9s2.46-3.585,3.915-2.828C1256.681,2558.452,1256.974,2561.2,1256.617,2562.975Z" transform="translate(-1230.377 -2532.751)"/><path class="ag" d="M1258.345,2629.067c-1.7.052-2.052-1.214-1.7-3.542s.861-2.681.2-4.347c-.449-1.13-2.813-3.97-4.375-7.76a13.6,13.6,0,0,0,5.048-1.554c1.314,3.995,3.053,8.614,3.121,9.668C1260.745,2623.1,1260.044,2629.019,1258.345,2629.067Z" transform="translate(-1232.125 -2562.672)"/><path d="M1240.738,2506.992a9.058,9.058,0,0,1-1.843,5.365c-1.218,1.515-2.732,7.078-1.646,9.283a13.574,13.574,0,0,1-2.732-6.221s.526,7.307-2.5,7.307-5.728-1.218-5.136-4.51,2.535-4.312,2.535-4.312-4.082-2.765-1.416-8.328S1240.178,2502.581,1240.738,2506.992Z" transform="translate(-1217.986 -2502.401)"/></g></g></g></svg>