<svg xmlns="http://www.w3.org/2000/svg" width="120" height="120" viewBox="0 0 120 120"><defs><style>.a{fill:none;}.b{fill:#809399;}.c{fill:#9cb5bb;}.d{fill:#fff;}.e{fill:#ffc43b;}.f{fill:#ff852b;}.g{fill:#ffa433;}.h{fill:#ffd87c;}</style></defs><g transform="translate(7647 5797)"><rect class="a" width="120" height="120" transform="translate(-7647 -5797)"/><g transform="translate(-7626.433 -5776.433)"><g transform="translate(0 0)"><path class="b" d="M190.922.748,186.461,11.9h21.423L203.422.748a1.19,1.19,0,0,0-1.1-.748h-10.29a1.19,1.19,0,0,0-1.1.748Zm0,0" transform="translate(-157.74 0)"/><path class="b" d="M49.2,58.035l4.732,11.041L69.076,53.929,58.035,49.2a1.19,1.19,0,0,0-1.31.252l-7.276,7.276A1.19,1.19,0,0,0,49.2,58.035Zm0,0" transform="translate(-41.537 -41.537)"/><path class="b" d="M.748,203.422,11.9,207.884V186.461L.748,190.922a1.19,1.19,0,0,0-.748,1.1v10.29a1.19,1.19,0,0,0,.748,1.1Zm0,0" transform="translate(0 -157.74)"/><path class="b" d="M58.035,353.094l11.041-4.732L53.929,333.215,49.2,344.256a1.19,1.19,0,0,0,.252,1.31l7.276,7.276A1.19,1.19,0,0,0,58.035,353.094Zm0,0" transform="translate(-41.537 -281.889)"/><path class="b" d="M203.422,445.891l4.462-11.153H186.461l4.462,11.153a1.191,1.191,0,0,0,1.1.748h10.29A1.19,1.19,0,0,0,203.422,445.891Zm0,0" transform="translate(-157.74 -367.774)"/><path class="b" d="M353.094,344.256l-4.732-11.041-15.148,15.148,11.041,4.732a1.19,1.19,0,0,0,1.31-.252l7.276-7.276A1.19,1.19,0,0,0,353.094,344.256Zm0,0" transform="translate(-281.889 -281.889)"/><path class="b" d="M445.891,190.922l-11.153-4.462v21.423l11.153-4.462a1.191,1.191,0,0,0,.748-1.1v-10.29A1.19,1.19,0,0,0,445.891,190.922Zm0,0" transform="translate(-367.774 -157.74)"/><path class="b" d="M344.256,49.2l-11.041,4.732,15.148,15.148,4.732-11.041a1.19,1.19,0,0,0-.252-1.31l-7.276-7.276A1.19,1.19,0,0,0,344.256,49.2Zm0,0" transform="translate(-281.889 -41.537)"/></g><path class="c" d="M72.984,39.66a33.323,33.323,0,1,0,33.323,33.323A33.362,33.362,0,0,0,72.984,39.66Zm0,0" transform="translate(-33.551 -33.551)"/><path class="b" d="M118.739,93.746a24.992,24.992,0,1,0,24.992,24.992A24.993,24.993,0,0,0,118.739,93.746Zm0,0" transform="translate(-79.306 -79.306)"/><path class="d" d="M165.116,144.884a20.232,20.232,0,1,1-20.232-20.232A20.232,20.232,0,0,1,165.116,144.884Zm0,0" transform="translate(-105.452 -105.452)"/><path class="e" d="M169.173,206.383a1.187,1.187,0,0,0-.159.6l0,14.1a1.191,1.191,0,0,0,.6,1.031l12.209,7.048a1.186,1.186,0,0,0,.594.159l4.761-22.93Zm0,0" transform="translate(-142.978 -174.593)"/><path class="f" d="M277.461,206.375H265.719L272.86,224.5l4.165-2.4a1.19,1.19,0,0,0,.6-1.031v-14.1A1.189,1.189,0,0,0,277.461,206.375Zm0,0" transform="translate(-224.789 -174.587)"/><path class="g" d="M256,223.621V243.9a1.189,1.189,0,0,0,.6-.159l8.043-4.643V223.621Zm0,0" transform="translate(-216.564 -189.176)"/><path class="h" d="M183.3,171.854a1.189,1.189,0,0,0,.6-.159l12.644-7.3a1.191,1.191,0,0,0-.436-.436l-12.208-7.049a1.191,1.191,0,0,0-1.19,0l-12.208,7.05a1.186,1.186,0,0,0-.436.436l12.643,7.3A1.188,1.188,0,0,0,183.3,171.854Zm0,0" transform="translate(-143.864 -132.606)"/></g></g></svg>