<svg xmlns="http://www.w3.org/2000/svg" width="120" height="120" viewBox="0 0 120 120"><defs><style>.a{fill:none;}.b{fill:#ecc373;}.c{fill:#dab46b;}.d{fill:#f4e2c1;}.e{fill:#dddaec;}.f{fill:#d0cee7;}.g{fill:#407093;}.h{fill:#c17d4f;}</style></defs><g transform="translate(7647 5668)"><rect class="a" width="120" height="120" transform="translate(-7647 -5668)"/><g transform="translate(-7659.382 -5646.836)"><g transform="translate(50.912 25.259)"><path class="b" d="M129.627,181.659H114.472V167.754a1.25,1.25,0,0,1,1.25-1.25h12.655a1.25,1.25,0,0,1,1.25,1.25Z" transform="translate(-114.472 -166.504)"/><path class="c" d="M193.187,181.659H189.4V166.5h2.539a1.25,1.25,0,0,1,1.25,1.25v13.905Z" transform="translate(-178.031 -166.504)"/><path class="d" d="M151.886,171.556H148.71a.938.938,0,0,1-.938-.938V166.5h5.052v4.114A.938.938,0,0,1,151.886,171.556Z" transform="translate(-142.72 -166.504)"/></g><g transform="translate(78.697 25.259)"><path class="b" d="M297.626,181.659h15.155V167.754a1.25,1.25,0,0,0-1.25-1.25H298.876a1.25,1.25,0,0,0-1.25,1.25Z" transform="translate(-297.626 -166.504)"/><path class="c" d="M376.341,181.659h-3.789V166.5h2.539a1.25,1.25,0,0,1,1.25,1.25v13.905Z" transform="translate(-361.186 -166.504)"/><path class="d" d="M331.865,171.556h3.177a.938.938,0,0,0,.938-.938V166.5h-5.052v4.114A.938.938,0,0,0,331.865,171.556Z" transform="translate(-325.875 -166.504)"/></g><path class="e" d="M72.846,266.406h55.57v5.052H72.846Z" transform="translate(-28.249 -225.991)"/><path class="f" d="M72.846,266.406h3.789v5.052H72.846Z" transform="translate(-28.249 -225.991)"/><path class="f" d="M414.179,266.406h3.789v5.052h-3.789Z" transform="translate(-317.801 -225.991)"/><path class="e" d="M72.846,99.9h55.57v5.052H72.846Z" transform="translate(-28.249 -84.747)"/><path class="f" d="M72.846,99.9h3.789v5.052H72.846Z" transform="translate(-28.249 -84.747)"/><path class="f" d="M414.179,99.9h3.789v5.052h-3.789Z" transform="translate(-317.801 -84.747)"/><path class="g" d="M43.347,473.158H40.8a1.25,1.25,0,0,1-1.25-1.25v-5.7H44.6v5.7A1.25,1.25,0,0,1,43.347,473.158Z" transform="translate(0 -395.486)"/><path class="g" d="M442.957,473.158h-2.551a1.25,1.25,0,0,1-1.25-1.25v-5.7h5.052v5.7A1.25,1.25,0,0,1,442.957,473.158Z" transform="translate(-338.988 -395.486)"/><path class="h" d="M44.6,70.726H39.545V1.25A1.25,1.25,0,0,1,40.8,0h2.551A1.25,1.25,0,0,1,44.6,1.25V70.726Z" transform="translate(0 0)"/><path class="h" d="M444.206,70.726h-5.052V1.25A1.25,1.25,0,0,1,440.4,0h2.551a1.25,1.25,0,0,1,1.25,1.25V70.726Z" transform="translate(-338.987 0)"/><g transform="translate(49.649 50.518)"><path class="b" d="M121.3,348.164H106.147V334.259a1.25,1.25,0,0,1,1.25-1.25h12.655a1.25,1.25,0,0,1,1.25,1.25Z" transform="translate(-106.147 -333.009)"/><path class="c" d="M184.862,348.164h-3.789V333.009h2.539a1.25,1.25,0,0,1,1.25,1.25v13.905Z" transform="translate(-169.706 -333.009)"/><path class="d" d="M143.561,338.06h-3.177a.938.938,0,0,1-.938-.938v-4.114H144.5v4.114A.938.938,0,0,1,143.561,338.06Z" transform="translate(-134.395 -333.008)"/></g><g transform="translate(79.96 50.518)"><path class="b" d="M321.107,348.164H305.952V334.259a1.25,1.25,0,0,1,1.25-1.25h12.655a1.25,1.25,0,0,1,1.25,1.25Z" transform="translate(-305.952 -333.009)"/><path class="c" d="M384.667,348.164h-3.789V333.009h2.539a1.25,1.25,0,0,1,1.25,1.25v13.905Z" transform="translate(-369.512 -333.009)"/><path class="d" d="M343.366,338.06H340.19a.938.938,0,0,1-.938-.938v-4.114H344.3v4.114A.938.938,0,0,1,343.366,338.06Z" transform="translate(-334.2 -333.008)"/></g><g transform="translate(64.804 50.518)"><path class="b" d="M206.049,348.164H221.2V334.259a1.25,1.25,0,0,0-1.25-1.25H207.3a1.25,1.25,0,0,0-1.25,1.25Z" transform="translate(-206.049 -333.009)"/><path class="c" d="M284.764,348.164h-3.789V333.009h2.539a1.25,1.25,0,0,1,1.25,1.25v13.905Z" transform="translate(-269.608 -333.009)"/><path class="d" d="M240.288,338.06h3.177a.938.938,0,0,0,.938-.938v-4.114H239.35v4.114A.938.938,0,0,0,240.288,338.06Z" transform="translate(-234.298 -333.008)"/></g><g transform="translate(49.649 0)"><path class="b" d="M121.3,15.155H106.147V1.25A1.25,1.25,0,0,1,107.4,0h12.655a1.25,1.25,0,0,1,1.25,1.25Z" transform="translate(-106.147 0)"/><path class="c" d="M184.862,15.155h-3.789V0h2.539a1.25,1.25,0,0,1,1.25,1.25V15.155Z" transform="translate(-169.706 0)"/><path class="d" d="M143.561,5.052h-3.177a.938.938,0,0,1-.938-.938V0H144.5V4.114A.938.938,0,0,1,143.561,5.052Z" transform="translate(-134.395 0)"/></g><g transform="translate(79.96 0)"><path class="b" d="M321.107,15.155H305.952V1.25A1.25,1.25,0,0,1,307.2,0h12.655a1.25,1.25,0,0,1,1.25,1.25Z" transform="translate(-305.952 0)"/><path class="c" d="M384.667,15.155h-3.789V0h2.539a1.25,1.25,0,0,1,1.25,1.25V15.155Z" transform="translate(-369.512 0)"/><path class="d" d="M343.366,5.052H340.19a.938.938,0,0,1-.938-.938V0H344.3V4.114A.938.938,0,0,1,343.366,5.052Z" transform="translate(-334.2 0)"/></g><g transform="translate(64.804 0)"><path class="b" d="M206.049,15.155H221.2V1.25A1.25,1.25,0,0,0,219.954,0H207.3a1.25,1.25,0,0,0-1.25,1.25Z" transform="translate(-206.049 0)"/><path class="c" d="M284.764,15.155h-3.789V0h2.539a1.25,1.25,0,0,1,1.25,1.25V15.155Z" transform="translate(-269.608 0)"/><path class="d" d="M240.288,5.052h3.177a.938.938,0,0,0,.938-.938V0H239.35V4.114A.938.938,0,0,0,240.288,5.052Z" transform="translate(-234.298 0)"/></g><path class="e" d="M72.846,432.911h55.57v5.052H72.846Z" transform="translate(-28.249 -367.237)"/><g transform="translate(44.597 65.674)"><path class="f" d="M414.179,432.911h3.789v5.052h-3.789Z" transform="translate(-362.398 -432.911)"/><path class="f" d="M72.846,432.911h3.789v5.052H72.846Z" transform="translate(-72.846 -432.911)"/></g></g></g></svg>