<svg xmlns="http://www.w3.org/2000/svg" width="120" height="120" viewBox="0 0 120 120"><defs><style>.a{fill:none;}.b{fill:#f8df9c;}.c{fill:#12263f;}.d{fill:#5aaae7;}.e{fill:#3d9ae2;}.f{fill:#1a6fb0;}.g{fill:#ffdaaa;}.h{fill:#ff805a;}.i{fill:#f6bf28;}</style></defs><g transform="translate(-0.239 0.262)"><rect class="a" width="120" height="120" transform="translate(0.239 -0.262)"/><g transform="translate(18.219 18.086)"><path class="b" d="M191.659,32.219,188.6,35.282H184v3.064a9.191,9.191,0,0,0,18.382,0V35.282h-9.191Zm0,0" transform="translate(-148.769 -26.092)"/><path class="c" d="M184,9.41h4.6l3.064-3.064,1.532,3.064h9.191A9.191,9.191,0,1,0,184,9.41Zm0,0" transform="translate(-148.769 -0.219)"/><path class="d" d="M145.022,135.34a15.406,15.406,0,0,0-7.491,7.292A15.152,15.152,0,0,0,136,149.294v10.723a1.532,1.532,0,0,0,1.532,1.532h16.85V144.7Zm0,0" transform="translate(-109.959 -109.468)"/><path class="b" d="M192.468,138.941l9.359-9.359a15.23,15.23,0,0,0-6.3-1.364H189.4a15.231,15.231,0,0,0-6.3,1.361Zm0,0" transform="translate(-148.045 -103.71)"/><path class="e" d="M248.85,142.619a15.409,15.409,0,0,0-7.488-7.295L232,144.686v16.85h16.85A1.532,1.532,0,0,0,250.382,160V149.282A15.152,15.152,0,0,0,248.85,142.619Zm0,0" transform="translate(-187.578 -109.455)"/><path class="f" d="M264,192.219h6.127v3.064H264Zm0,0" transform="translate(-213.451 -155.456)"/><path class="b" d="M153.618,309.166a6.109,6.109,0,0,0-8.134-2.956l-20.812,9.69a6.125,6.125,0,0,1-2.587.573h-3.79a6.127,6.127,0,1,0,0-12.254H95.318a9.162,9.162,0,0,0-8.655,6.127H80v19.913h41.533a6.137,6.137,0,0,0,2.588-.573l26.541-12.37a6.146,6.146,0,0,0,3.524-5.561A6.225,6.225,0,0,0,153.618,309.166Zm0,0" transform="translate(-64.682 -246.01)"/><path class="g" d="M227.086,352.219a6.1,6.1,0,0,1-5.3,3.064H208v-3.064Zm0,0" transform="translate(-168.173 -284.82)"/><path class="h" d="M15.318,304.219H0v30.636H15.318Zm0,0" transform="translate(0 -246.01)"/><g transform="translate(15.318 64.336)"><path class="i" d="M80,336.219h3.064v19.913H80Zm0,0" transform="translate(-80 -336.219)"/><path class="i" d="M227.086,352.219a6.1,6.1,0,0,1-5.3,3.064H208v-3.064Zm0,0" transform="translate(-183.491 -349.155)"/></g></g></g></svg>