<svg xmlns="http://www.w3.org/2000/svg" width="147" height="147" viewBox="0 0 147 147"><defs><style>.a{fill:#e68466;}.b{fill:#ff805a;}.c{fill:#2b74ca;}.d{fill:#3d98f7;}.e{fill:#4d5d7a;}.f{fill:#efbe9a;}.g{fill:#fff;}.h{fill:#c66b60;}.i{fill:none;}</style></defs><g transform="translate(-266 -1125)"><g transform="translate(279.887 1133)"><path class="a" d="M38.443,36.568l-3.5-8.158a13.443,13.443,0,1,1,6.99,0Z" transform="translate(21.17)"/><path class="b" d="M25,15.443a13.419,13.419,0,0,0,9.675,12.869c6.823-3.43,11.45-10.055,11.45-17.67a18.528,18.528,0,0,0-1.435-7.1A13.434,13.434,0,0,0,25,15.443Z" transform="translate(21.17)"/><path class="c" d="M58.443,36.568l-3.5-8.158a13.443,13.443,0,1,1,6.99,0Z" transform="translate(39.579)"/><path class="d" d="M45,15.443a13.419,13.419,0,0,0,9.675,12.869c6.823-3.43,11.45-10.055,11.45-17.67a18.528,18.528,0,0,0-1.435-7.1A13.434,13.434,0,0,0,45,15.443Z" transform="translate(39.579)"/><path class="c" d="M19.443,36.568l-3.5-8.158a13.443,13.443,0,1,1,6.99,0Z" transform="translate(3.682)"/><path class="d" d="M6,15.443a13.419,13.419,0,0,0,9.675,12.869c6.823-3.43,11.45-10.055,11.45-17.67a18.528,18.528,0,0,0-1.435-7.1A13.434,13.434,0,0,0,6,15.443Z" transform="translate(3.682)"/><path class="d" d="M49.682,58.886A7.682,7.682,0,0,1,42,51.2V39.682A7.682,7.682,0,0,1,49.682,32H72.727a7.682,7.682,0,0,1,7.682,7.682V51.2a7.682,7.682,0,0,1-7.682,7.682" transform="translate(36.818 27.613)"/><path class="e" d="M46,44V70.886h7.682v-19.2h7.682v19.2h7.682V44" transform="translate(40.499 38.659)"/><path class="f" d="M54.761,37.364A5.761,5.761,0,0,1,49,31.6V27.761a5.761,5.761,0,0,1,11.523,0V31.6A5.761,5.761,0,0,1,54.761,37.364Z" transform="translate(43.261 18.409)"/><path class="f" d="M58,49.682V42h7.682A7.682,7.682,0,0,1,58,49.682Z" transform="translate(51.545 36.818)"/><path class="f" d="M49.682,49.682V42H42A7.682,7.682,0,0,0,49.682,49.682Z" transform="translate(36.818 36.818)"/><path class="d" d="M44,65.682H55.523V58H47.841A3.84,3.84,0,0,0,44,61.841Z" transform="translate(38.659 51.545)"/><path class="d" d="M65.523,65.682H54V58h7.682a3.84,3.84,0,0,1,3.841,3.841Z" transform="translate(47.863 51.545)"/><g transform="translate(15.443 7.761)"><path class="g" d="M31,5h3.841v9.6H31Z" transform="translate(11.25 -5)"/><path class="g" d="M31,12h3.841v3.841H31Z" transform="translate(11.25 1.443)"/><path class="g" d="M56.682,18.443H52.841V14.6a1.921,1.921,0,0,1,1.92-1.92,1.92,1.92,0,1,0-1.92-1.92H49a5.761,5.761,0,1,1,7.682,5.433Z" transform="translate(27.818 -5)"/><path class="g" d="M51,13h3.841v3.841H51Z" transform="translate(29.659 2.364)"/><path class="g" d="M16.682,18.443H12.841V14.6a1.921,1.921,0,0,1,1.92-1.92,1.92,1.92,0,1,0-1.92-1.92H9a5.761,5.761,0,1,1,7.682,5.433Z" transform="translate(-9 -5)"/><path class="g" d="M11,13h3.841v3.841H11Z" transform="translate(-7.159 2.364)"/></g><path class="f" d="M34.761,37.364A5.761,5.761,0,0,1,29,31.6V27.761a5.761,5.761,0,0,1,11.523,0V31.6A5.761,5.761,0,0,1,34.761,37.364Z" transform="translate(24.852 18.409)"/><path class="h" d="M24,65.682H35.523V58H27.841A3.84,3.84,0,0,0,24,61.841Z" transform="translate(20.25 51.545)"/><path class="h" d="M45.523,65.682H34V58h7.682a3.84,3.84,0,0,1,3.841,3.841Z" transform="translate(29.454 51.545)"/><path class="e" d="M54.568,91.136V48.886h3.841A7.682,7.682,0,0,0,66.091,41.2V22H58.409V41.2H27.682V22H20V41.2a7.682,7.682,0,0,0,7.682,7.682h3.841v42.25H39.2v-19.2h7.682v19.2" transform="translate(16.568 18.409)"/><path class="b" d="M31.523,64.25V48.886H27.682A7.682,7.682,0,0,1,20,41.2V22h7.682V41.2H58.409V22h7.682V41.2a7.682,7.682,0,0,1-7.682,7.682H54.568V64.25" transform="translate(16.568 18.409)"/><path class="d" d="M9.682,58.886A7.682,7.682,0,0,1,2,51.2V39.682A7.682,7.682,0,0,1,9.682,32H32.727a7.682,7.682,0,0,1,7.682,7.682V51.2a7.682,7.682,0,0,1-7.682,7.682" transform="translate(0 27.613)"/><path class="e" d="M6,44V70.886h7.682v-19.2h7.682v19.2h7.682V44" transform="translate(3.682 38.659)"/><path class="f" d="M14.761,37.364A5.761,5.761,0,0,1,9,31.6V27.761a5.761,5.761,0,0,1,11.523,0V31.6A5.761,5.761,0,0,1,14.761,37.364Z" transform="translate(6.443 18.409)"/><path class="f" d="M18,49.682V42h7.682A7.682,7.682,0,0,1,18,49.682Z" transform="translate(14.727 36.818)"/><path class="f" d="M9.682,49.682V42H2A7.682,7.682,0,0,0,9.682,49.682Z" transform="translate(0 36.818)"/><path class="d" d="M4,65.682H15.523V58H7.841A3.84,3.84,0,0,0,4,61.841Z" transform="translate(1.841 51.545)"/><path class="d" d="M25.523,65.682H14V58h7.682a3.84,3.84,0,0,1,3.841,3.841Z" transform="translate(11.045 51.545)"/></g><path class="i" d="M0,0H147V147H0Z" transform="translate(266 1125)"/></g></svg>