<svg xmlns="http://www.w3.org/2000/svg" xmlns:xlink="http://www.w3.org/1999/xlink" width="457.469" height="376.135" viewBox="0 0 457.469 376.135"><defs><style>.a{opacity:0.997;}.b{fill:#ff805a;}.c{opacity:0.1;}.d{fill:#f6bf28;}.e{fill:#1a1a1a;}.f{fill:#fac2b0;}.g{fill:#f69265;}.h{fill:#383838;}.i{fill:#caeaf8;}.j{fill:#060707;}.k{fill:#f4a986;}.l{fill:#ea643c;}.m{fill:url(#a);}.n{fill:#12263f;}</style><linearGradient id="a" x1="0.5" x2="0.5" y2="1" gradientUnits="objectBoundingBox"><stop offset="0" stop-color="#5277f7"/><stop offset="0.005" stop-color="#ff805a"/><stop offset="1" stop-color="#f6bf28"/></linearGradient></defs><g transform="translate(-921.463 -2985.026)"><g class="a" transform="translate(921.463 3068.406)"><g transform="translate(0)"><path class="b" d="M1561.531,1826.061c-23.514-13.576-61.521-13.576-84.882,0-.111.065-.218.126-.325.193-15.041,8.87-20.163,21.271-15.4,32.568,2.532,6.014,7.866,11.718,15.994,16.411,23.519,13.578,61.533,13.578,84.9,0s23.233-35.593-.285-49.172Z" transform="translate(-1290.494 -1719.901)"/><path class="b" d="M1518.679,1785.042c-29.558-17.065-77.488-17.065-106.853,0-.789.458-1.557.922-2.3,1.394l1.5.6c.67-.425,1.363-.841,2.075-1.255,28.661-16.656,75.461-16.656,104.31,0s29.009,43.768.348,60.424-75.468,16.661-104.325,0c-10.584-6.11-17.312-13.628-20.16-21.523l-1.814.064c2.892,8.145,9.8,15.9,20.706,22.2,29.561,17.068,77.5,17.067,106.869,0s29.205-44.83-.356-61.9Z" transform="translate(-1236.691 -1685.246)"/><path class="b" d="M1470.621,1745.019c-35.475-20.481-93.023-20.481-128.267,0q-2.17,1.261-4.164,2.589l4,1.584q1.718-1.125,3.574-2.206c33.379-19.4,87.879-19.4,121.476,0s33.782,50.969.4,70.367-87.886,19.4-121.491,0c-12.765-7.37-20.7-16.494-23.81-26.043l-4.827.177c3.209,10.2,11.625,19.966,25.252,27.834,35.482,20.486,93.03,20.485,128.282,0s35.057-53.816-.425-74.3Z" transform="translate(-1177.962 -1651.425)"/><path class="b" d="M1367.25,1663.107c-47.6-27.479-124.793-27.479-172.079,0s-47.042,72.2.553,99.679c20.031,11.564,45.3,18.264,71.378,20.091l-.251-5.971c-23.372-1.819-45.954-7.918-63.935-18.3-43.6-25.174-43.833-66.141-.506-91.32s114.046-25.175,157.648,0c28.251,16.311,38.3,39.244,30.1,60.219l9.667,2.023c9.45-23.081-1.43-48.439-32.574-66.42Z" transform="translate(-1052.757 -1582.201)"/><path class="b" d="M1135.552,1737.009c-51.945-29.99-52.224-78.788-.616-108.779s135.856-29.992,187.8,0,52.216,78.788.609,108.779-135.849,29.992-187.794,0Zm188.875-109.763c-25.618-14.791-59.614-22.937-95.725-22.937s-70.016,8.146-95.468,22.938-39.405,34.456-39.284,55.371,14.289,40.585,39.908,55.375,59.618,22.935,95.729,22.935,70.012-8.145,95.464-22.936,39.4-34.458,39.287-55.374-14.293-40.582-39.911-55.373Z" transform="translate(-1000.407 -1551.872)"/><path class="b" d="M1218.163,1541.358l-4.136.712c18.412,30.015,12.243,63.971-18.562,91.241l3.457,1.427c19.461-17.125,29.848-37.2,29.726-58.2-.068-12.169-3.661-24.026-10.485-35.177Zm-49.911-43.2c-33.76-17.722-77.05-27.42-122.848-27.419-48.786,0-94.6,11-128.978,30.985s-53.237,46.556-53.075,74.813,19.3,54.829,53.913,74.81,80.545,30.991,129.331,30.986c29.213,0,57.35-3.943,82.614-11.4l-2.105-2.164c-66.835,19.594-150.84,13.211-206.878-19.142-69.8-40.3-70.172-105.876-.819-146.18,67.244-39.078,175.722-40.267,245.88-3.563l2.966-1.724Z" transform="translate(-817.265 -1445.791)"/><path class="b" d="M1089.666,1430.4c-20.069-11.587-43.458-20.561-69.494-26.67a354.372,354.372,0,0,0-157.755,0c-25.967,6.109-49.255,15.083-69.193,26.67s-35.356,25.106-45.821,40.169c-10.1,14.548-15.183,29.921-15.091,45.689s5.336,31.146,15.605,45.689q1,1.417,2.056,2.815l4.052-.775c-33.072-43.565-19.064-96.274,42.18-131.865,79.828-46.391,210.149-46.391,290.5,0s80.778,121.88.951,168.27c-49.674,28.867-118.9,39.778-183.469,32.715l-1.025,2.425a358.831,358.831,0,0,0,39.451,2.144,344.814,344.814,0,0,0,78.831-8.889c25.971-6.111,49.247-15.083,69.193-26.674s35.359-25.1,45.821-40.165c10.1-14.549,15.175-29.92,15.087-45.691s-5.335-31.141-15.6-45.689c-10.627-15.059-26.2-28.577-46.273-40.168Z" transform="translate(-713.193 -1385.508)"/><path class="b" d="M1029.358,1386.568c-21.9-12.645-47.415-22.439-75.829-29.1a364.485,364.485,0,0,0-48.941-7.958l.3.8c45.246,4.339,88.7,16.591,123.622,36.754,89.006,51.388,89.477,135,1.057,186.388s-232.784,51.389-321.79,0-89.469-135-1.041-186.388A243.834,243.834,0,0,1,740.8,1370.79l-.283-.759a246.453,246.453,0,0,0-34.625,16.539c-21.766,12.649-38.593,27.4-50,43.833-11.026,15.872-16.562,32.648-16.469,49.855s5.829,33.98,17.03,49.855c11.6,16.435,28.587,31.183,50.488,43.828s47.422,22.439,75.837,29.105a386.651,386.651,0,0,0,172.14,0c28.335-6.664,53.742-16.457,75.509-29.106s38.582-27.394,49.995-43.828c11.022-15.876,16.566-32.651,16.469-49.855s-5.825-33.982-17.03-49.855c-11.6-16.439-28.587-31.183-50.5-43.832Z" transform="translate(-639.415 -1349.509)"/></g></g><g transform="translate(993.015 2985.026)"><ellipse class="c" cx="43.395" cy="15.487" rx="43.395" ry="15.487" transform="translate(0 249.213)"/><path class="d" d="M1821.138,3363.357s-2.119,9.477-1.294,11.242,5.592,4.886,10.947,4.415,12.48-5.3,16.248-5.475,12.361-6.357,7.3-9.476-15.6.234-21.544-2.414Z" transform="translate(-1801.823 -3110.466)"/><path class="e" d="M1817.986,3235.473s-3,7.2-3.4,20.206,7.2,46.813,7.2,46.813-4.817,10-3.608,15.8,5.01,33.211,4.41,39.012-1.8,11.4-1.8,11.4,11.512,4.389,17.881-1.2l12.127-72.221-3.8-57.616Z" transform="translate(-1802.017 -3115.288)"/><path class="d" d="M1840.176,3365.876s-2.962,8.376-2.3,11.082,3.83,5.82,8.273,6.027,7.3-2.708,9.6-2.656,19.2,4.186,22.368-9.244c0,0,.255-2.961-3.474-3.574s-17.515,0-19.66-2.145Z" transform="translate(-1801.13 -3110.325)"/><path d="M1868.434,3241.257s4.613,9.391-1.978,72a294.094,294.094,0,0,1-8.238,58.655s-10.875,5.767-18.126-1.153c0,0,2.472-17.959,1.979-21.584s-6.262-26.527,2.636-35.424c0,0-6.755-29.493-8.238-33.612s-10.239-18.639-7.674-33.7Z" transform="translate(-1801.492 -3115.067)"/><path class="f" d="M1870.575,3175.759s6.918-1.694,10.191-7.739l-8.236-6.093-6.368,6.915Z" transform="translate(-1800.045 -3118.099)"/><path class="g" d="M1853.066,3174.765l12.355-6.719a8.543,8.543,0,0,1,5.653,7.479l-9.893,10.22S1858.43,3177.375,1853.066,3174.765Z" transform="translate(-1800.547 -3117.863)"/><path class="h" d="M1870.982,3166.163l36.462,22.741a1.384,1.384,0,0,0,2.012-.647l12.913-31.368a1.383,1.383,0,0,0-.593-1.727l-38.3-21.895a1.383,1.383,0,0,0-1.987.729l-11.073,30.52A1.382,1.382,0,0,0,1870.982,3166.163Z" transform="translate(-1799.887 -3119.199)"/><path class="i" d="M1882.922,3135.583l-10.6,28.871a.739.739,0,0,0,.3.881l34.125,21.323a.74.74,0,0,0,1.078-.345l12.146-29.593a.739.739,0,0,0-.314-.921l-35.674-20.6A.741.741,0,0,0,1882.922,3135.583Z" transform="translate(-1799.812 -3119.123)"/><path class="f" d="M1864.967,3168.466l1.92-7.826s2.552-3.165,4.384-3.388,7.27-.387,7.158.557-2.583,2.331-6.729,3.218c0,0,1.847,5.328,1.125,7.826s-2.2,7.089-2.2,7.089S1868.1,3170.186,1864.967,3168.466Z" transform="translate(-1800.091 -3118.282)"/><path class="f" d="M1846.991,3124.5c4.522,1.119,8.818,4.409,9.029,9.03s-.525,23.52-3.36,24.046-12.6-5.46-16.066-11.657S1835.545,3121.667,1846.991,3124.5Z" transform="translate(-1801.231 -3119.539)"/><path class="f" d="M1826.559,3147.556l1.078,16.374s5.122,4.583,19.271,3.437a36.556,36.556,0,0,1,.832-7.614,58.83,58.83,0,0,1,3.818-7.866S1833.9,3145.266,1826.559,3147.556Z" transform="translate(-1801.559 -3118.664)"/><path class="b" d="M1834.872,3162.015s-11.3-7-16.906-6.3-12,15.1-10.4,25.809,8.8,25.507,8.6,30.81-2,25.807-.2,27.607,8,10.6,25.909,12.8,27.208-3.5,28.508-7.3-.7-12.9-1.9-15.6-4.5-17.106-2.6-29.11,2.244-23.5-12.483-32.208Z" transform="translate(-1802.294 -3118.338)"/><path class="j" d="M1823.234,3131.318a8.9,8.9,0,0,1,5.952-8.966c6.687-2.718,20.428-5,26.968,2.021,0,0,2.646,3.051-6.467,6.945,0,0-.587,2.277,1.691,5.51s-2.128,5.408-2.939,7.714-3.454,13.816-7.2,13.816-14.476-1.543-15.21-2.865S1814.2,3136.976,1823.234,3131.318Z" transform="translate(-1801.821 -3119.711)"/><path class="f" d="M1849.852,3142.052s-.515-4.334-3.968-3.084-.735,7.127,2.5,8.156Z" transform="translate(-1800.882 -3118.984)"/><path class="k" d="M1824.056,3160.266l2.483-3.613s2.436,6.3,26.929,6.808a1.451,1.451,0,0,1,.609,1.674c-.406,1.016-1.318,3.348-1.318,3.348a13.716,13.716,0,0,0-3.564-.53C1847.878,3168.053,1829.735,3169.75,1824.056,3160.266Z" transform="translate(-1801.655 -3118.299)"/><path class="f" d="M1896.615,3187.948s-.976-6.661,0-9.541,2.924-3.642,3.686-5.759,1.864-11.6,3.9-11.519.764,9.909,1.694,11.094,6.861,6.523,6.607,8.386-1.1,6.462-2.541,7.339-5.614,6.468-5.614,6.468A48.2,48.2,0,0,0,1896.615,3187.948Z" transform="translate(-1798.899 -3118.129)"/><path class="l" d="M1853.838,3182.62c5.042-5.531,9.7-4.044,11.826-1.01s16.981,27.695,16.981,27.695,8.793-16.678,15.667-22.036c0,0,7.48,2.223,8.187,5.762s-15.262,35.377-19.305,35.275-6.773,1.718-13.747-4.548-17.415-23.148-20.332-28.91A12.035,12.035,0,0,1,1853.838,3182.62Z" transform="translate(-1800.594 -3117.449)"/></g><g transform="translate(1091 3055.838)"><ellipse class="c" cx="47.699" cy="17.023" rx="47.699" ry="17.023" transform="translate(0 271.277)"/><g transform="translate(18.425)"><path class="f" d="M1245.79,2508.505c-6.039,1.272-12,1.417-12.384,9.933s.774,26.576,9.16,22.188,15.609-9.7,16-19.363S1251.91,2507.213,1245.79,2508.505Z" transform="translate(-1217.964 -2501.884)"/><path class="f" d="M1237.5,2550.6l-5.126-17.33,15.643-4.725,3.845,22.054Z" transform="translate(-1210.203 -2500.102)"/><path class="m" d="M1211.477,2543.224c2.436-1.93,10.778,6.369,13.35,11.513s12.369,20.33,11.268,31.965-22.78,18.126-22.78,18.126l-6.123-11.144Z" transform="translate(-1167.116 -2498.838)"/><path class="f" d="M1247.93,2775.71c4.792-2.452,10.185-6.855,11.649-10.124l1.958,9.8h3.6l2.444-14.21s4.414-4.733,0-13.211v-.009s-2.444-18.623.5-29.4,7.177-23.676,2.444-33.8l.979-15.187-16.643,8.331c.156.5.765,10.262.931,11.241s.863,53.422-.125,57.991c-.5,2.377-3.172,8.187-6.082,13.424-2.687,4.849-5.577,9.225-7.149,9.933C1239.171,2771.948,1243.148,2778.156,1247.93,2775.71Z" transform="translate(-1240.624 -2487.707)"/><path class="f" d="M1231.27,2768.14c6.973-1.668,14.054-12.95,14.054-12.95l1.532,12.95h2.5l2.782-16.984c3.211-6.965-.417-11.98-.417-11.98-.688-6.682,0-35.082,1.115-43.713s-4.035-16.575-4.035-16.575v-12.667l-15.18-1.533s.563,14.762,1.387,20.465,6.218,56.994,6.218,56.994c-1.222,5.043-5.819,11-9.951,15.594-3.4,3.785-6.489,6.646-7.12,7.334C1222.763,2766.607,1224.3,2769.809,1231.27,2768.14Z" transform="translate(-1202.354 -2488.136)"/><path class="n" d="M1231.27,2762.125c6.973-1.666,14.054-12.948,14.054-12.948s1.3-2.7,6.818-4.033c3.211-6.965-.417-11.98-.417-11.98a5.322,5.322,0,0,0-5.033,1.834c-1.834,2.484-7.682,15.433-12.319,16.315-.96.184-2.017.318-3.094.415-3.4,3.783-6.489,6.646-7.12,7.334C1222.763,2760.593,1224.3,2763.8,1231.27,2762.125Z" transform="translate(-1202.354 -2482.122)"/><path class="n" d="M1224.909,2748.2l1.531,12.949h2.5l2.783-16.985C1226.208,2745.5,1224.909,2748.2,1224.909,2748.2Z" transform="translate(-1181.938 -2481.147)"/><g transform="translate(0.618 260.256)"><path class="n" d="M1250.78,2769.379c4.792-2.454,10.186-6.857,11.649-10.126l1.96,9.8h3.6l2.444-14.209s4.414-4.732,0-13.211c-2.133.446-5.344,1.418-6.634,3.891-1.677,3.229-4.616,9.6-8.652,9.6a5.079,5.079,0,0,1-2.716-.9c-2.685,4.85-5.577,9.225-7.148,9.933C1242.022,2765.616,1246,2771.823,1250.78,2769.379Z" transform="translate(-1244.093 -2741.627)"/><path class="n" d="M1245.9,2758.183l1.96,9.8h3.6l2.445-14.21A12.667,12.667,0,0,0,1245.9,2758.183Z" transform="translate(-1227.561 -2740.559)"/></g><path class="n" d="M1264.887,2597.518s5.4,11.608,2.1,21.274-11.1,40.557-9.2,57.06c0,0-11.249,11.789-33.8,10.847,0,0-15.835-49.441,1.44-76.238Z" transform="translate(-1210.046 -2494.039)"/><path class="m" d="M1245.374,2542.669c-5.623,2.143-22.2,12.464-24.693,15.907s2.019,17.57,3.681,25.048,3.461,28.73,2.679,31.816,16.79,5.579,27.592-2.255S1266.5,2602.5,1266.5,2602.5a262.965,262.965,0,0,0-.831-38.344C1263.655,2544.806,1260.331,2536.97,1245.374,2542.669Z" transform="translate(-1211.664 -2499.021)"/><path class="m" d="M1249.64,2570.725c.853,4.288,6.857,25.471,5.383,34.045a97.711,97.711,0,0,1-3.347,11.873c5.675,2.783,9.68,3.608,12.222,3.762a42.227,42.227,0,0,0,3.374-14.528c.612-16.169-2.453-34.665-5.14-40.913s-5.955-8.68-9.476-6.848C1249.485,2559.775,1248.776,2566.437,1249.64,2570.725Z" transform="translate(-1244.099 -2497.556)"/><path class="f" d="M1258.064,2653.51c4.114.127,4.966-2.938,4.114-8.572s-2.086-6.489-.5-10.525c1.086-2.733,6.809-9.61,10.592-18.788-2.542-.153-6.547-.979-12.222-3.761-3.181,9.669-7.391,20.853-7.555,23.4C1252.255,2639.061,1253.952,2653.4,1258.064,2653.51Z" transform="translate(-1252.475 -2492.778)"/><path d="M1226.844,2513.515c-.375,2.964,1.514,9.325,4.463,12.989s6.614,17.133,3.985,22.473c0,0,5.578-6.693,6.614-15.06,0,0-1.274,17.69,6.057,17.69s13.866-2.949,12.432-10.916-6.137-10.44-6.137-10.44,9.882-6.694,3.427-20.162S1228.2,2502.837,1226.844,2513.515Z" transform="translate(-1212.859 -2502.401)"/></g></g></g></svg>