<svg xmlns="http://www.w3.org/2000/svg" width="412.409" height="280.173" viewBox="0 0 412.409 280.173"><defs><style>.a{opacity:0.57;}.b,.d{fill:#00638c;}.b{opacity:0.37;}.c{fill:#dfffff;}.d{opacity:0.25;}.e{fill:#c3f5f7;}.f{opacity:0.456;}.f,.s{isolation:isolate;}.g,.h,.i,.j,.l,.m,.n,.o,.p,.q,.r,.u,.v{fill:#fff;}.g{opacity:0.94;}.i{opacity:0.49;}.j{opacity:0.84;}.k{fill:#7dccd5;}.l{opacity:0.63;}.m{opacity:0.33;}.n{opacity:0.52;}.o{opacity:0.45;}.p{opacity:0.79;}.q{opacity:0.91;}.r{opacity:0.36;}.s{fill:#ebe2df;mix-blend-mode:multiply;}.t{fill:#e57d00;}.u{opacity:0.4;}.v{opacity:0.7;}.w{fill:#f6bf28;}.x{fill:#ee5c24;}.y{fill:#d0341a;}.z{fill:#ff805a;}.aa{opacity:0.997;}.ab{fill:#2b2b2b;}.ac{opacity:0.1;}.ad{fill:#1a1a1a;}.ae{fill:#fac2b0;}.af{fill:#f69265;}.ag{fill:#383838;}.ah{fill:#caeaf8;}.ai{fill:#060707;}.aj{fill:#f4a986;}.ak{fill:#ea643c;}</style></defs><g transform="translate(-800 -135.358)"><g transform="translate(800 135.358)"><g class="a" transform="translate(132.069 156.068)"><g transform="translate(0)"><path class="b" d="M2037.908,1361.982v6.205l63.179-16.624,6.165,16.624,78.33-12.674L2100,1344.6Z" transform="translate(-1978.388 -1276.977)"/><path class="c" d="M1895.86,1227l59.52,47.425,139.491-43.785-59.52-47.425Z" transform="translate(-1895.86 -1183.214)"/><path class="d" d="M2148,1280.641l15.9,30.916,2.42-2.936-12.619-27.981Z" transform="translate(-2042.35 -1239.818)"/><path class="e" d="M2152.546,1251.8l19.779,48.963,142.75-13.446-20.158-49.9Z" transform="translate(-2044.992 -1214.705)"/></g></g><g class="f" transform="translate(21.992)"><path class="g" d="M359.265,840.665l-55.55-26.811a4.027,4.027,0,0,0-1.913-.514,4.514,4.514,0,0,0-1.886.39L244.9,840.283c-.433.209-.691.47-.691.7,0,.214.231.37.425.464l55.55,26.811a4.358,4.358,0,0,0,3.275-.129l55.017-26.553c.432-.208.69-.47.69-.7C359.167,840.663,358.935,840.506,359.265,840.665Z" transform="translate(-208.891 -695.71)"/><path class="h" d="M348.244,81.724,282.45,49.968a6.3,6.3,0,0,0-4.881.152L212.409,81.57c-.839.406-1.321.972-1.321,1.554a1.5,1.5,0,0,0,1.006,1.276l65.793,31.756a5.09,5.09,0,0,0,2.156.423,6.472,6.472,0,0,0,2.725-.575l65.162-31.45c.839-.406,1.32-.972,1.32-1.554A1.5,1.5,0,0,0,348.244,81.724Zm-.805,2.119-65.162,31.45a5.194,5.194,0,0,1-3.9.152L212.584,83.689c-.235-.113-.515-.3-.515-.565s.31-.592.83-.843l65.16-31.45a5.2,5.2,0,0,1,3.9-.152l65.794,31.756c.235.113.515.3.515.565C348.269,83.277,347.959,83.592,347.439,83.843Z" transform="translate(-180.559 -42.381)"/><g transform="translate(0 215.515)"><path class="h" d="M44.2,1811.05,0,1789.717v1.016l42.094,20.317Z" transform="translate(0 -1746.392)"/><path class="h" d="M60.53,1491.365l70.573,34.063c.252.121.552.325.552.606,0,.3-.333.635-.89.9l-57.743,27.87h2.105l56.163-27.107c.9-.435,1.416-1.042,1.416-1.667a1.606,1.606,0,0,0-1.077-1.368L61.056,1490.6a6.757,6.757,0,0,0-5.235.163L0,1517.708v1.016l56.346-27.2A5.571,5.571,0,0,1,60.53,1491.365Z" transform="translate(0 -1490.151)"/></g><path class="h" d="M1843.263,375.6a5.5,5.5,0,0,1-4.127.161l-69.622-33.6c-.248-.12-.544-.32-.544-.6,0-.293.328-.627.878-.893l68.953-33.28a5.5,5.5,0,0,1,4.127-.161l55.8,26.93v-1l-55.276-26.679a6.664,6.664,0,0,0-5.165.161l-68.953,33.28c-.887.429-1.4,1.028-1.4,1.644a1.585,1.585,0,0,0,1.064,1.35l69.622,33.6a5.389,5.389,0,0,0,2.281.447,6.849,6.849,0,0,0,2.884-.608l54.94-26.517v-1Z" transform="translate(-1512.242 -261.767)"/><path class="h" d="M1180.411,560.559l-51.619-24.914a4.95,4.95,0,0,0-3.846.12l-51.124,24.674c-.663.321-1.044.77-1.044,1.232a1.188,1.188,0,0,0,.8,1.013L1125.2,587.6a4.011,4.011,0,0,0,1.7.333,5.085,5.085,0,0,0,2.146-.453l51.123-24.674c.664-.32,1.044-.768,1.044-1.231A1.188,1.188,0,0,0,1180.411,560.559Zm-.648,1.662L1128.641,586.9a4.052,4.052,0,0,1-3.044.12L1073.978,562.1c-.18-.087-.395-.233-.395-.431s.24-.456.642-.65l51.124-24.674a4.19,4.19,0,0,1,1.752-.362,3.078,3.078,0,0,1,1.291.243l51.619,24.914c.181.087.4.233.4.431S1180.166,562.028,1179.763,562.221Z" transform="translate(-917.627 -457.892)"/><path class="h" d="M30.112,1238.522a1.011,1.011,0,0,0-.678-.862L0,1223.453v.66l29.092,14.042c.154.074.336.2.336.367s-.2.388-.546.553L0,1253.014v.66l29.224-14.105C29.789,1239.3,30.112,1238.915,30.112,1238.522Z" transform="translate(0 -1046.51)"/><path class="i" d="M1129.206,1334.594l-51.619-24.914a3.743,3.743,0,0,0-1.777-.478,4.2,4.2,0,0,0-1.753.363l-51.123,24.674c-.4.194-.642.437-.642.65s.215.344.395.431l51.619,24.914a4.049,4.049,0,0,0,3.043-.12l51.124-24.674c.4-.194.642-.436.642-.65S1128.9,1334.446,1129.206,1334.594Z" transform="translate(-874.443 -1119.857)"/><path class="j" d="M1206.323,1051.813,1154.7,1026.9a3.744,3.744,0,0,0-1.777-.478,4.191,4.191,0,0,0-1.753.363l-51.123,24.674c-.4.194-.642.437-.642.65s.214.344.4.431l51.619,24.914a4.05,4.05,0,0,0,3.043-.12l51.123-24.674c.4-.193.642-.436.642-.649S1206.017,1051.665,1206.323,1051.813Z" transform="translate(-940.407 -877.974)"/><path class="k" d="M1224.908,575.029,1176.579,551.7a3.5,3.5,0,0,0-1.664-.447,3.924,3.924,0,0,0-1.641.34l-47.865,23.1c-.377.182-.6.409-.6.609s.2.322.37.4l48.33,23.326a3.792,3.792,0,0,0,2.849-.112l47.866-23.1c.376-.181.6-.409.6-.608S1224.621,574.891,1224.908,575.029Z" transform="translate(-962.131 -471.529)"/><path class="j" d="M635.7,1779.635l-20.25-9.774a1.471,1.471,0,0,0-.7-.187,1.641,1.641,0,0,0-.688.142l-20.056,9.68c-.158.076-.252.171-.252.255s.084.135.155.169l20.25,9.774a1.589,1.589,0,0,0,1.194-.047l20.056-9.68c.157-.076.252-.171.252-.255S635.583,1779.577,635.7,1779.635Z" transform="translate(-507.887 -1513.732)"/><path class="l" d="M2016.592,1020.963l-41.857-20.2a3.035,3.035,0,0,0-1.441-.387,3.4,3.4,0,0,0-1.421.294l-41.454,20.008c-.326.158-.52.354-.52.527s.174.279.32.349l41.857,20.2a3.285,3.285,0,0,0,2.467-.1L2016,1021.648c.326-.157.521-.354.521-.527S2016.344,1020.843,2016.592,1020.963Z" transform="translate(-1650.785 -855.693)"/><path class="l" d="M1663.872,1395.733l-43.534-21.012a3.155,3.155,0,0,0-1.5-.4,3.537,3.537,0,0,0-1.479.306l-43.116,20.809c-.339.164-.541.369-.541.548s.181.29.333.363l43.534,21.012a3.415,3.415,0,0,0,2.567-.1l43.116-20.81c.339-.163.541-.368.541-.548S1663.613,1395.608,1663.872,1395.733Z" transform="translate(-1346.105 -1175.556)"/><path class="m" d="M1235.744,10.459c0,.218.235.377.433.472l56.591,27.314a4.441,4.441,0,0,0,3.336-.131l56.048-27.051c.44-.212.7-.478.7-.712,0-.218-.236-.377.1-.215L1331.956,0h-75.315l-20.193,9.746C1236.007,9.959,1235.744,10.225,1235.744,10.459Z" transform="translate(-1057.023)"/><path class="m" d="M2116.792,1381.134a4.1,4.1,0,0,0-1.948-.524,4.6,4.6,0,0,0-1.922.4l-56.047,27.05c-.441.213-.7.479-.7.713,0,.218.236.377.433.472l56.591,27.314a4.44,4.44,0,0,0,3.336-.131l28.744-13.873v-27.671Z" transform="translate(-1758.796 -1180.938)"/><path class="n" d="M1315.059,564.533l-26.034-12.565a1.553,1.553,0,0,0-.651-.123,2.117,2.117,0,0,0-.884.183l-25.783,12.444c-.2.1-.324.22-.324.328s.108.173.2.217l26.034,12.565a2.042,2.042,0,0,0,1.534-.06l25.784-12.444c.2-.1.324-.22.324-.328S1315.149,564.577,1315.059,564.533Z" transform="translate(-1078.953 -472.034)"/><path class="i" d="M2350.635,622.176l-22.727-10.97a1.356,1.356,0,0,0-.569-.107,1.844,1.844,0,0,0-.771.16l-22.51,10.864c-.177.086-.282.193-.282.286s.095.151.174.19l22.728,10.97a1.783,1.783,0,0,0,1.34-.053l22.51-10.864c.177-.085.283-.192.283-.286S2350.714,622.214,2350.635,622.176Z" transform="translate(-1970.589 -522.718)"/><path class="o" d="M1716.044,362.858l-22.728-10.97a1.358,1.358,0,0,0-.569-.107,1.849,1.849,0,0,0-.772.16l-22.51,10.864c-.177.085-.283.193-.283.286s.094.151.174.19l22.728,10.97a1.784,1.784,0,0,0,1.34-.053l22.51-10.864c.177-.085.282-.192.282-.286S1716.123,362.9,1716.044,362.858Z" transform="translate(-1427.776 -300.904)"/><path class="p" d="M339.708,215.22,313.05,202.353a1.588,1.588,0,0,0-.667-.125,2.169,2.169,0,0,0-.905.187l-26.4,12.743c-.208.1-.331.226-.331.336s.111.178.2.223l26.658,12.866a2.092,2.092,0,0,0,1.572-.062l26.4-12.743c.207-.1.331-.225.331-.335S339.8,215.265,339.708,215.22Z" transform="translate(-243.564 -172.981)"/><path class="q" d="M393.536,1514.541l-26.261-12.675a1.563,1.563,0,0,0-.657-.124,2.126,2.126,0,0,0-.892.185l-26.009,12.552c-.2.1-.326.222-.326.331s.109.175.2.219l26.261,12.675a2.06,2.06,0,0,0,1.548-.061l26.009-12.553c.2-.1.327-.222.327-.33S393.627,1514.585,393.536,1514.541Z" transform="translate(-290.306 -1284.551)"/><path class="q" d="M1738.643,648.316l-26.261-12.675a1.562,1.562,0,0,0-.656-.124,2.133,2.133,0,0,0-.892.185l-26.009,12.553c-.2.1-.327.223-.327.331s.109.175.2.219l26.261,12.675a2.061,2.061,0,0,0,1.548-.061l26.009-12.553c.2-.1.326-.222.326-.33S1738.734,648.36,1738.643,648.316Z" transform="translate(-1440.875 -543.605)"/><path class="q" d="M662.011,1284.293l-26.261-12.675a1.569,1.569,0,0,0-.657-.123,2.137,2.137,0,0,0-.892.184l-26.009,12.553c-.2.1-.326.222-.326.331s.109.175.2.219l26.261,12.675a2.062,2.062,0,0,0,1.548-.061l26.009-12.553c.2-.1.327-.222.327-.33S662.1,1284.337,662.011,1284.293Z" transform="translate(-519.953 -1087.603)"/><path class="r" d="M2081.418,425.227l-22.727-10.97a1.353,1.353,0,0,0-.568-.107,1.846,1.846,0,0,0-.772.16l-22.509,10.864c-.177.086-.283.193-.283.286s.094.151.174.19l22.728,10.97a1.784,1.784,0,0,0,1.34-.053l22.51-10.864c.177-.085.282-.192.282-.286S2081.5,425.265,2081.418,425.227Z" transform="translate(-1740.308 -354.253)"/><path class="h" d="M62.657,410.771a7.309,7.309,0,0,0,3.092-.6l107.2-51.74a2,2,0,0,0,1.351-1.684c0-.777-.666-1.544-1.828-2.1l-169.84-82A8.711,8.711,0,0,0,0,271.886v.682a7.73,7.73,0,0,1,2.232.648l169.84,82c.906.437,1.425.993,1.425,1.523,0,.421-.328.8-.948,1.1l-107.2,51.74a8.177,8.177,0,0,1-6.242-.23L0,380.815v.776l58.705,28.345A9.375,9.375,0,0,0,62.657,410.771Z" transform="translate(0 -232.564)"/><path class="h" d="M1456.228,765.111,1395.3,735.669l-.4.582,60.929,29.442a.789.789,0,0,1,.3.617c0,.182-.112.163-.3.253l-135.052,65.182a3.021,3.021,0,0,1-2.576,0l-30.234-14.593-.4.582,30.235,14.593a3.971,3.971,0,0,0,3.379,0l135.052-65.182a1.088,1.088,0,0,0,0-2.034Z" transform="translate(-1101.348 -629.272)"/><path class="h" d="M594.66,1267.71l63.231,30.518,63.226-30.517-63.228-30.518Zm63.231,28.855-59.783-28.855,59.781-28.853,59.781,28.855Z" transform="translate(-508.657 -1058.263)"/></g><g transform="translate(0 49.932)"><g transform="translate(0 0)"><path class="s" d="M389.039,699.732c-46.968-23.293-124.621-22.267-173.4,2.286-24.428,12.279-37.008,28.118-37.6,43.8-.466,12.256,6.394,24.416,20.638,34.7l-28.543,14.367-11.366-4.518L46.4,846.975l47,23.244,24.175,4.1,108.016-54.29-22.069-11.871,25.256-12.713c47.172,16.05,113.534,12.844,156.986-9.061,24.424-12.277,37.008-28.116,37.6-43.8S412.56,711.378,389.039,699.732Zm5.1,43.236c-.453,11.951-10.026,24.024-28.613,33.381-37.171,18.711-96.361,19.492-132.15,1.742-17.9-8.875-26.567-20.706-26.113-32.658s10.026-24.025,28.613-33.38c37.171-18.711,96.361-19.492,132.15-1.744C385.923,719.185,394.589,731.016,394.139,742.968Z" transform="translate(-46.395 -661.908)"/><path class="t" d="M1099.958,655.207c-46.968-23.292-128.154-34.551-207.318,2.256-24.791,11.526-18.486,31.624-19.079,47.305-.464,12.255,6.394,24.415,20.639,34.7l-29.51,14.856,30.092,14.923,29.511-14.854c47.174,16.048,113.536,12.843,156.987-9.061,24.427-12.277,37.008-28.116,37.6-43.8S1123.48,666.853,1099.958,655.207Zm-10.3,46.711c-.453,11.951-12.293,14.577-30.879,23.933-37.171,18.712-92.4,18.46-128.191.71-17.9-8.875-28.257-10.226-27.805-22.178S912.808,680.359,931.4,671c37.171-18.712,96.359-19.492,132.151-1.744C1081.443,678.135,1090.11,689.967,1089.657,701.918Z" transform="translate(-724.681 -621.094)"/><ellipse class="u" cx="96.477" cy="46.521" rx="96.477" ry="46.521" transform="translate(177.298 24.474)"/><path class="v" d="M1111.219,716.816c-21.678,10.452-30.814,24.641-27.544,38.267,24.948,2.538,58.947,6.091,80.01-15.488,28.068-28.757,91.957-17.6,93.933-17.057a81.435,81.435,0,0,0-9.959-5.722C1209.98,698.647,1148.893,698.647,1111.219,716.816Z" transform="translate(-905.662 -678.716)"/><path class="w" d="M1084.56,576.972c-46.968-23.292-124.62-22.266-173.4,2.286-24.427,12.278-37.007,28.119-37.6,43.8-.464,12.255,6.394,24.415,20.639,34.7l-29.51,14.856,30.092,14.923,29.511-14.855c47.174,16.048,113.536,12.844,156.987-9.061,24.427-12.277,37.008-28.117,37.6-43.8S1108.082,588.618,1084.56,576.972Zm5.1,43.236c-.453,11.952-10.025,24.024-28.61,33.381-37.171,18.712-96.36,19.493-132.152,1.743-17.9-8.875-26.565-20.706-26.113-32.659s10.026-24.024,28.613-33.379c37.171-18.712,96.359-19.492,132.151-1.744C1081.443,596.424,1090.11,608.257,1089.657,620.208Z" transform="translate(-724.681 -560.152)"/><path class="x" d="M463.223,1413.286l108.025-54.377v-25.884L463.223,1387.4Z" transform="translate(-391.904 -1200.788)"/><path class="y" d="M172.55,1532.244l49.734,24.609V1530.77l-49.734-24.544Z" transform="translate(-150.965 -1344.354)"/><path class="z" d="M172.55,1242.6l50.244,24.963,108.025-54.377-50.243-25Z" transform="translate(-150.965 -1080.733)"/></g></g></g><g class="aa" transform="translate(927.07 168.537)"><g transform="translate(0)"><path class="ab" d="M1523.029,1822.23c-14.667-8.468-38.373-8.468-52.944,0-.069.04-.136.079-.2.12-9.382,5.533-12.576,13.267-9.606,20.314,1.579,3.751,4.906,7.309,9.976,10.236,14.669,8.469,38.38,8.469,52.954,0s14.491-22.2-.177-30.67Z" transform="translate(-1353.974 -1756.015)"/><path class="ab" d="M1470.811,1780.227c-18.436-10.644-48.332-10.644-66.648,0-.492.286-.971.575-1.434.869l.936.373c.418-.265.85-.524,1.294-.783,17.877-10.389,47.067-10.389,65.061,0s18.094,27.3.217,37.689-47.072,10.392-65.071,0c-6.6-3.811-10.8-8.5-12.574-13.425l-1.131.04c1.8,5.08,6.112,9.917,12.915,13.844,18.438,10.646,48.339,10.645,66.657,0s18.216-27.962-.222-38.608Z" transform="translate(-1294.926 -1717.98)"/><path class="ab" d="M1413.011,1739.239c-22.127-12.775-58.021-12.775-80,0q-1.354.787-2.6,1.615l2.493.988q1.071-.7,2.229-1.376c20.819-12.1,54.813-12.1,75.768,0s21.071,31.791.252,43.89-54.818,12.1-75.778,0c-7.962-4.6-12.911-10.288-14.851-16.244l-3.011.11c2,6.364,7.251,12.454,15.751,17.361,22.131,12.778,58.026,12.778,80.014,0s21.866-33.567-.266-46.344Z" transform="translate(-1230.47 -1680.861)"/><path class="ab" d="M1289.218,1655.352c-29.687-17.14-77.838-17.14-107.332,0s-29.342,45.033.345,62.173c12.494,7.213,28.256,11.392,44.521,12.532l-.157-3.725c-14.578-1.134-28.663-4.939-39.878-11.414-27.2-15.7-27.34-41.254-.316-56.959s71.134-15.7,98.33,0c17.621,10.174,23.889,24.478,18.774,37.56l6.03,1.261c5.894-14.4-.892-30.213-20.318-41.428Z" transform="translate(-1093.057 -1604.889)"/><path class="ab" d="M1119.9,1687.078c-32.4-18.706-32.574-49.143-.384-67.849s84.738-18.707,117.138,0,32.569,49.143.38,67.849-84.733,18.707-117.133,0Zm117.808-68.463c-15.979-9.225-37.183-14.306-59.707-14.306s-43.671,5.081-59.546,14.307-24.578,21.491-24.5,34.537,8.913,25.314,24.892,34.539S1156.026,1702,1178.55,1702s43.669-5.08,59.544-14.306,24.576-21.493,24.5-34.538-8.915-25.312-24.894-34.538Z" transform="translate(-1035.604 -1571.602)"/><path class="ab" d="M1084.659,1514.787l-2.58.444c11.484,18.722,7.636,39.9-11.578,56.91l2.156.89c12.138-10.681,18.617-23.2,18.541-36.3a42.186,42.186,0,0,0-6.54-21.941Zm-31.131-26.945c-21.057-11.054-48.058-17.1-76.625-17.1-30.429,0-59,6.863-80.448,19.326s-33.206,29.039-33.1,46.663,12.041,34.2,33.627,46.661,50.239,19.33,80.668,19.327a183.1,183.1,0,0,0,51.529-7.111l-1.313-1.35c-41.687,12.222-94.084,8.24-129.037-11.939-43.539-25.137-43.769-66.038-.511-91.177,41.942-24.374,109.6-25.116,153.363-2.223l1.85-1.075Z" transform="translate(-834.605 -1455.178)"/><path class="ab" d="M955.2,1417.016a159.484,159.484,0,0,0-43.345-16.635,221.035,221.035,0,0,0-98.4,0,157.707,157.707,0,0,0-43.158,16.635c-12.441,7.23-22.052,15.66-28.58,25.054-6.3,9.074-9.47,18.662-9.412,28.5s3.328,19.427,9.733,28.5q.623.884,1.282,1.756l2.528-.483c-20.628-27.173-11.891-60.049,26.309-82.248,49.791-28.936,131.077-28.936,181.194,0s50.384,76.02.593,104.956c-30.983,18.005-74.161,24.811-114.436,20.406l-.639,1.513a223.813,223.813,0,0,0,24.607,1.337,215.069,215.069,0,0,0,49.17-5.544,157.688,157.688,0,0,0,43.158-16.638c12.436-7.227,22.055-15.658,28.58-25.052,6.3-9.075,9.465-18.662,9.41-28.5s-3.328-19.424-9.733-28.5c-6.629-9.393-16.339-17.825-28.862-25.054Z" transform="translate(-720.387 -1389.018)"/><path class="ab" d="M882.635,1372.624c-13.66-7.887-29.574-14-47.3-18.151a227.335,227.335,0,0,0-30.526-4.964l.189.5c28.222,2.706,55.325,10.349,77.107,22.925,55.516,32.053,55.81,84.207.659,116.256s-145.195,32.053-200.711,0-55.805-84.2-.649-116.257a152.091,152.091,0,0,1,21.242-10.149l-.176-.473a153.708,153.708,0,0,0-21.6,10.316c-13.576,7.89-24.072,17.087-31.188,27.34-6.877,9.9-10.33,20.364-10.272,31.1s3.636,21.194,10.622,31.1c7.234,10.251,17.831,19.45,31.491,27.337s29.579,14,47.3,18.154a241.164,241.164,0,0,0,107.37,0c17.674-4.157,33.521-10.265,47.1-18.155s24.065-17.086,31.183-27.337c6.875-9.9,10.333-20.365,10.272-31.1s-3.633-21.2-10.622-31.1c-7.234-10.254-17.83-19.45-31.5-27.34Z" transform="translate(-639.415 -1349.509)"/></g></g><g transform="translate(1053.744 144.17)"><ellipse class="ac" cx="17.757" cy="6.337" rx="17.757" ry="6.337" transform="translate(0 101.977)"/><path class="w" d="M1820.26,3362.349s-.867,3.878-.53,4.6,2.288,2,4.479,1.807,5.107-2.168,6.648-2.24,5.058-2.6,2.987-3.877-6.383.1-8.816-.988Z" transform="translate(-1812.357 -3258.867)"/><path class="ad" d="M1815.967,3235.472a25.444,25.444,0,0,0-1.392,8.268c-.164,5.321,2.947,19.156,2.947,19.156s-1.971,4.093-1.477,6.467,2.05,13.59,1.8,15.964-.737,4.666-.737,4.666,4.711,1.8,7.317-.491l4.962-29.552-1.555-23.576Z" transform="translate(-1809.433 -3186.293)"/><path class="w" d="M1838.76,3365.575s-1.212,3.427-.941,4.535a3.654,3.654,0,0,0,3.385,2.466c1.818.083,2.988-1.108,3.928-1.087s7.857,1.713,9.153-3.783c0,0,.1-1.211-1.421-1.462s-7.167,0-8.045-.877Z" transform="translate(-1822.783 -3261.005)"/><path d="M1844.738,3241.257s1.888,3.843-.809,29.463a120.341,120.341,0,0,1-3.371,24s-4.45,2.36-7.417-.472c0,0,1.012-7.349.809-8.832s-2.562-10.855,1.078-14.5c0,0-2.764-12.069-3.371-13.754s-4.19-7.627-3.14-13.792Z" transform="translate(-1817.346 -3189.621)"/><path class="ae" d="M1867.968,3167.587a7.1,7.1,0,0,0,4.17-3.167l-3.37-2.493-2.606,2.83Z" transform="translate(-1839.108 -3143.993)"/><path class="af" d="M1853.066,3170.8l5.056-2.749a3.5,3.5,0,0,1,2.313,3.06l-4.048,4.182S1855.261,3171.863,1853.066,3170.8Z" transform="translate(-1831.575 -3147.511)"/><path class="ag" d="M1870.6,3146.621l14.92,9.306a.566.566,0,0,0,.823-.265l5.284-12.835a.566.566,0,0,0-.243-.707l-15.673-8.959a.566.566,0,0,0-.813.3l-4.531,12.489A.565.565,0,0,0,1870.6,3146.621Z" transform="translate(-1841.505 -3127.403)"/><path class="ah" d="M1876.635,3135.3l-4.336,11.814a.3.3,0,0,0,.124.361l13.964,8.725a.3.3,0,0,0,.441-.141l4.97-12.109a.3.3,0,0,0-.129-.377l-14.6-8.43A.3.3,0,0,0,1876.635,3135.3Z" transform="translate(-1842.626 -3128.561)"/><path class="ae" d="M1864.967,3161.74l.786-3.2s1.044-1.295,1.794-1.386,2.975-.158,2.929.228-1.057.954-2.754,1.317a7.656,7.656,0,0,1,.46,3.2c-.3,1.021-.9,2.9-.9,2.9S1866.248,3162.444,1864.967,3161.74Z" transform="translate(-1838.42 -3141.205)"/><path class="ae" d="M1839.987,3124.324c1.851.458,3.609,1.8,3.695,3.7s-.215,9.624-1.375,9.839-5.156-2.234-6.574-4.77S1835.3,3123.165,1839.987,3124.324Z" transform="translate(-1821.262 -3122.294)"/><path class="ae" d="M1826.559,3147.271l.441,6.7s2.1,1.875,7.886,1.406a14.968,14.968,0,0,1,.34-3.116,24.081,24.081,0,0,1,1.562-3.219S1829.565,3146.334,1826.559,3147.271Z" transform="translate(-1816.329 -3135.449)"/><path class="z" d="M1818.59,3158.262s-4.625-2.865-6.918-2.579-4.912,6.181-4.257,10.561,3.6,10.438,3.52,12.607-.819,10.56-.082,11.3,3.275,4.339,10.6,5.24,11.133-1.433,11.665-2.988-.286-5.281-.778-6.385a28.5,28.5,0,0,1-1.064-11.912c.778-4.911.918-9.617-5.108-13.179Z" transform="translate(-1805.26 -3140.39)"/><path class="ai" d="M1821.15,3124.46a3.643,3.643,0,0,1,2.435-3.669c2.736-1.112,8.359-2.045,11.035.827,0,0,1.083,1.248-2.646,2.842a2.955,2.955,0,0,0,.692,2.255c.932,1.323-.871,2.213-1.2,3.157s-1.413,5.653-2.947,5.653-5.923-.631-6.224-1.172S1817.452,3126.775,1821.15,3124.46Z" transform="translate(-1812.388 -3119.711)"/><path class="ae" d="M1846.558,3140.1s-.211-1.773-1.624-1.262-.3,2.917,1.022,3.337Z" transform="translate(-1826.52 -3130.657)"/><path class="aj" d="M1824.056,3158.131l1.016-1.479s1,2.578,11.019,2.786a.594.594,0,0,1,.25.685c-.166.416-.54,1.37-.54,1.37a5.617,5.617,0,0,0-1.458-.217C1833.8,3161.317,1826.38,3162.012,1824.056,3158.131Z" transform="translate(-1814.89 -3140.958)"/><path class="ae" d="M1896.359,3172.1a12.151,12.151,0,0,1,0-3.9c.4-1.179,1.2-1.49,1.508-2.357s.763-4.749,1.594-4.714.312,4.055.693,4.54,2.807,2.669,2.7,3.432-.451,2.644-1.04,3a19.183,19.183,0,0,0-2.3,2.647A19.722,19.722,0,0,0,1896.359,3172.1Z" transform="translate(-1856.374 -3143.533)"/><path class="ak" d="M1852.628,3180.422c2.063-2.263,3.97-1.655,4.839-.413s6.949,11.333,6.949,11.333,3.6-6.824,6.411-9.017c0,0,3.061.909,3.35,2.358s-6.245,14.476-7.9,14.434-2.771.7-5.625-1.861-7.126-9.472-8.32-11.83A4.925,4.925,0,0,1,1852.628,3180.422Z" transform="translate(-1830.841 -3153.755)"/></g><g transform="translate(1053.744 144.171)"><ellipse class="ac" cx="17.757" cy="6.337" rx="17.757" ry="6.337" transform="translate(0 101.977)"/><path class="w" d="M1820.26,3362.349s-.867,3.878-.53,4.6,2.288,2,4.479,1.807,5.107-2.168,6.648-2.24,5.058-2.6,2.987-3.877-6.383.1-8.816-.988Z" transform="translate(-1812.357 -3258.867)"/><path class="ad" d="M1815.967,3235.472a25.444,25.444,0,0,0-1.392,8.268c-.164,5.321,2.947,19.156,2.947,19.156s-1.971,4.093-1.477,6.467,2.05,13.59,1.8,15.964-.737,4.666-.737,4.666,4.711,1.8,7.317-.491l4.962-29.552-1.555-23.576Z" transform="translate(-1809.433 -3186.293)"/><path class="w" d="M1838.76,3365.575s-1.212,3.427-.941,4.535a3.654,3.654,0,0,0,3.385,2.466c1.818.083,2.988-1.108,3.928-1.087s7.857,1.713,9.153-3.783c0,0,.1-1.211-1.421-1.462s-7.167,0-8.045-.877Z" transform="translate(-1822.783 -3261.005)"/><path d="M1844.738,3241.257s1.888,3.843-.809,29.463a120.341,120.341,0,0,1-3.371,24s-4.45,2.36-7.417-.472c0,0,1.012-7.349.809-8.832s-2.562-10.855,1.078-14.5c0,0-2.764-12.069-3.371-13.754s-4.19-7.627-3.14-13.792Z" transform="translate(-1817.346 -3189.621)"/><path class="ae" d="M1867.968,3167.587a7.1,7.1,0,0,0,4.17-3.167l-3.37-2.493-2.606,2.83Z" transform="translate(-1839.108 -3143.993)"/><path class="af" d="M1853.066,3170.8l5.056-2.749a3.5,3.5,0,0,1,2.313,3.06l-4.048,4.182S1855.261,3171.863,1853.066,3170.8Z" transform="translate(-1831.575 -3147.511)"/><path class="ag" d="M1870.6,3146.621l14.92,9.306a.566.566,0,0,0,.823-.265l5.284-12.835a.566.566,0,0,0-.243-.707l-15.673-8.959a.566.566,0,0,0-.813.3l-4.531,12.489A.565.565,0,0,0,1870.6,3146.621Z" transform="translate(-1841.505 -3127.403)"/><path class="ah" d="M1876.635,3135.3l-4.336,11.814a.3.3,0,0,0,.124.361l13.964,8.725a.3.3,0,0,0,.441-.141l4.97-12.109a.3.3,0,0,0-.129-.377l-14.6-8.43A.3.3,0,0,0,1876.635,3135.3Z" transform="translate(-1842.626 -3128.561)"/><path class="ae" d="M1864.967,3161.74l.786-3.2s1.044-1.295,1.794-1.386,2.975-.158,2.929.228-1.057.954-2.754,1.317a7.656,7.656,0,0,1,.46,3.2c-.3,1.021-.9,2.9-.9,2.9S1866.248,3162.444,1864.967,3161.74Z" transform="translate(-1838.42 -3141.205)"/><path class="ae" d="M1839.987,3124.324c1.851.458,3.609,1.8,3.695,3.7s-.215,9.624-1.375,9.839-5.156-2.234-6.574-4.77S1835.3,3123.165,1839.987,3124.324Z" transform="translate(-1821.262 -3122.294)"/><path class="ae" d="M1826.559,3147.271l.441,6.7s2.1,1.875,7.886,1.406a14.968,14.968,0,0,1,.34-3.116,24.081,24.081,0,0,1,1.562-3.219S1829.565,3146.334,1826.559,3147.271Z" transform="translate(-1816.329 -3135.449)"/><path class="z" d="M1818.59,3158.262s-4.625-2.865-6.918-2.579-4.912,6.181-4.257,10.561,3.6,10.438,3.52,12.607-.819,10.56-.082,11.3,3.275,4.339,10.6,5.24,11.133-1.433,11.665-2.988-.286-5.281-.778-6.385a28.5,28.5,0,0,1-1.064-11.912c.778-4.911.918-9.617-5.108-13.179Z" transform="translate(-1805.26 -3140.39)"/><path class="ai" d="M1821.15,3124.46a3.643,3.643,0,0,1,2.435-3.669c2.736-1.112,8.359-2.045,11.035.827,0,0,1.083,1.248-2.646,2.842a2.955,2.955,0,0,0,.692,2.255c.932,1.323-.871,2.213-1.2,3.157s-1.413,5.653-2.947,5.653-5.923-.631-6.224-1.172S1817.452,3126.775,1821.15,3124.46Z" transform="translate(-1812.388 -3119.711)"/><path class="ae" d="M1846.558,3140.1s-.211-1.773-1.624-1.262-.3,2.917,1.022,3.337Z" transform="translate(-1826.52 -3130.657)"/><path class="aj" d="M1824.056,3158.131l1.016-1.479s1,2.578,11.019,2.786a.594.594,0,0,1,.25.685c-.166.416-.54,1.37-.54,1.37a5.617,5.617,0,0,0-1.458-.217C1833.8,3161.317,1826.38,3162.012,1824.056,3158.131Z" transform="translate(-1814.89 -3140.958)"/><path class="ae" d="M1896.359,3172.1a12.151,12.151,0,0,1,0-3.9c.4-1.179,1.2-1.49,1.508-2.357s.763-4.749,1.594-4.714.312,4.055.693,4.54,2.807,2.669,2.7,3.432-.451,2.644-1.04,3a19.183,19.183,0,0,0-2.3,2.647A19.722,19.722,0,0,0,1896.359,3172.1Z" transform="translate(-1856.374 -3143.533)"/><path class="ak" d="M1852.628,3180.422c2.063-2.263,3.97-1.655,4.839-.413s6.949,11.333,6.949,11.333,3.6-6.824,6.411-9.017c0,0,3.061.909,3.35,2.358s-6.245,14.476-7.9,14.434-2.771.7-5.625-1.861-7.126-9.472-8.32-11.83A4.925,4.925,0,0,1,1852.628,3180.422Z" transform="translate(-1830.841 -3153.755)"/></g></g></svg>