<svg xmlns="http://www.w3.org/2000/svg" width="175" height="175" viewBox="0 0 175 175"><defs><style>.a{fill:#fff;opacity:0.949;}.b{fill:#979fef;}.c{fill:#737ee6;}.d{fill:#ff641a;}.e{fill:#f03800;}.f{fill:#ffda2d;}.g{fill:#fdbf00;}.h{fill:#47568c;}.i{fill:#2c3b73;}</style></defs><g transform="translate(5343 5581)"><g transform="translate(-5602 -6039)"><g transform="translate(259 458)"><rect class="a" width="175" height="175"/></g></g><g transform="translate(2.867 -10.011)"><g transform="translate(-5331.696 -5545.989)"><path class="b" d="M291.468,177.815s-3.222,5.712-3.662,6.371a3.682,3.682,0,0,1-4.98,1.391c-.732-.439-5.639-3.222-6.224-3.662a22.148,22.148,0,0,1-6.884,4.028v4.98a3.626,3.626,0,0,1-3.662,3.662h-7.323a3.626,3.626,0,0,1-3.662-3.662v-4.98a22.146,22.146,0,0,1-6.884-4.028l-11.424,6.152-10.619,1.684,3.222-14.28,11.424-6.152a24.25,24.25,0,0,1-.366-4.028,18.363,18.363,0,0,1,.439-4.028l-11.424-6.152-3.735-13.475,11.132.879,11.351,6.151a22.411,22.411,0,0,1,6.884-4.028v-4.979A3.626,3.626,0,0,1,258.734,136h7.323a3.626,3.626,0,0,1,3.662,3.662v4.98a21.784,21.784,0,0,1,6.811,4.028h.073c.732-.439,5.639-3.222,6.224-3.662a3.746,3.746,0,0,1,4.98,1.318s3.222,5.712,3.662,6.371a3.7,3.7,0,0,1-1.318,5.053c-.806.366-5.639,3.076-6.224,3.515a18.362,18.362,0,0,1,.439,4.028,24.25,24.25,0,0,1-.366,4.028c.806.366,5.566,3.076,6.151,3.515A3.613,3.613,0,0,1,291.468,177.815Z" transform="translate(-159.401 -102.801)"/><path class="c" d="M405.079,177.815s-3.222,5.712-3.662,6.371a3.682,3.682,0,0,1-4.98,1.391c-.732-.439-5.639-3.222-6.224-3.662a22.148,22.148,0,0,1-6.884,4.028v4.98a3.626,3.626,0,0,1-3.662,3.662h-3.662V136h3.662a3.626,3.626,0,0,1,3.662,3.662v4.98a21.784,21.784,0,0,1,6.811,4.028h.073c.732-.439,5.639-3.222,6.224-3.662a3.746,3.746,0,0,1,4.98,1.318s3.222,5.712,3.662,6.371a3.7,3.7,0,0,1-1.318,5.053c-.806.366-5.639,3.076-6.225,3.515a18.363,18.363,0,0,1,.439,4.028,24.256,24.256,0,0,1-.366,4.028c.806.366,5.566,3.076,6.151,3.515A3.613,3.613,0,0,1,405.079,177.815Z" transform="translate(-273.012 -102.801)"/><path class="d" d="M73.482,278.8s-3.222,5.712-3.662,6.371a3.682,3.682,0,0,1-4.98,1.391c-.732-.439-5.639-3.222-6.224-3.662a23.674,23.674,0,0,1-6.884,4.028v5.224a3.626,3.626,0,0,1-3.662,3.662H40.747a3.626,3.626,0,0,1-3.662-3.662v-5.224A23.67,23.67,0,0,1,30.2,282.9c-.732.439-5.639,3.222-6.224,3.662A3.682,3.682,0,0,1,19,285.17c-.44-.732-3.222-5.712-3.662-6.3a3.655,3.655,0,0,1,1.245-4.98c.073,0,5.566-3.149,6.224-3.588a24.988,24.988,0,0,1-.366-4.028,18.361,18.361,0,0,1,.439-4.028c-.806-.366-5.639-3.076-6.224-3.515a3.7,3.7,0,0,1-1.318-5.053c.439-.732,3.222-5.712,3.662-6.3A3.6,3.6,0,0,1,23.9,245.99s5.639,3.222,6.3,3.662a22.411,22.411,0,0,1,6.884-4.028v-12.3L44.409,226l7.323,7.323v12.3a22.407,22.407,0,0,1,6.884,4.028L69.967,243.5l7.4,12.6-11.424,6.152a18.361,18.361,0,0,1,.439,4.028,24.253,24.253,0,0,1-.366,4.028c.806.366,5.566,3.076,6.151,3.515A3.613,3.613,0,0,1,73.482,278.8Z" transform="translate(0 -170.83)"/><path class="e" d="M165.079,278.8s-3.222,5.712-3.662,6.371a3.682,3.682,0,0,1-4.98,1.391c-.732-.439-5.639-3.222-6.224-3.662a23.674,23.674,0,0,1-6.884,4.028v5.224a3.626,3.626,0,0,1-3.662,3.662h-3.662V226l7.323,7.323v12.3a22.405,22.405,0,0,1,6.884,4.028l11.351-6.151,7.4,12.6-11.424,6.152a18.362,18.362,0,0,1,.439,4.028,24.255,24.255,0,0,1-.366,4.028c.806.366,5.566,3.075,6.151,3.515A3.613,3.613,0,0,1,165.079,278.8Z" transform="translate(-91.597 -170.832)"/><path class="f" d="M77.437,39.716l-7.4,12.6L58.616,46.16A32.642,32.642,0,0,1,55.394,48.5a23.544,23.544,0,0,1-3.662,1.685v12.3H37.086v-12.3A22.146,22.146,0,0,1,30.2,46.16c-.732.439-5.639,3.222-6.224,3.662A3.682,3.682,0,0,1,19,48.43c-.44-.732-3.222-5.712-3.662-6.3a3.655,3.655,0,0,1,1.245-4.98c.073,0,5.566-3.149,6.224-3.588a24.253,24.253,0,0,1-.366-4.028,18.362,18.362,0,0,1,.439-4.028c-.806-.366-5.639-3.076-6.224-3.515a3.7,3.7,0,0,1-1.318-5.053c.439-.732,3.222-5.712,3.662-6.3A3.6,3.6,0,0,1,23.9,9.251s5.639,3.222,6.3,3.662a22.411,22.411,0,0,1,6.884-4.028V3.662A3.626,3.626,0,0,1,40.747,0H48.07a3.626,3.626,0,0,1,3.662,3.662V8.885a22.047,22.047,0,0,1,6.811,4.028h.073c.732-.439,5.639-3.222,6.224-3.662a3.746,3.746,0,0,1,4.98,1.318s3.222,5.712,3.662,6.371a3.7,3.7,0,0,1-1.318,5.053c-.806.366-5.639,3.076-6.224,3.515a18.362,18.362,0,0,1,.439,4.028,24.252,24.252,0,0,1-.366,4.028Z" transform="translate(0)"/><path class="g" d="M169.034,39.716l-7.4,12.6L150.213,46.16a32.643,32.643,0,0,1-3.222,2.343,23.545,23.545,0,0,1-3.662,1.685v12.3h-7.323V0h3.662a3.626,3.626,0,0,1,3.662,3.662V8.885a22.047,22.047,0,0,1,6.811,4.028h.073c.732-.439,5.639-3.222,6.224-3.662a3.746,3.746,0,0,1,4.98,1.318s3.222,5.712,3.662,6.371a3.7,3.7,0,0,1-1.318,5.053c-.806.366-5.639,3.076-6.224,3.515a18.362,18.362,0,0,1,.439,4.028,24.253,24.253,0,0,1-.366,4.028Z" transform="translate(-91.597)"/><path class="h" d="M344.2,212.1a3.54,3.54,0,0,0-5.126,0l-8.422,8.348-3.662,3.662-4.76-4.687a3.625,3.625,0,0,0-5.126,5.126l7.323,7.323a3.538,3.538,0,0,0,5.126,0l1.1-1.1L344.2,217.224A3.539,3.539,0,0,0,344.2,212.1Z" transform="translate(-227.657 -159.493)"/><path class="h" d="M104.2,347.1a3.54,3.54,0,0,0-5.126,0l-8.422,8.348-3.662,3.662-4.76-4.687a3.625,3.625,0,1,0-5.126,5.126l7.323,7.323a3.539,3.539,0,0,0,5.126,0l1.1-1.1L104.2,352.224A3.539,3.539,0,0,0,104.2,347.1Z" transform="translate(-46.243 -261.539)"/><path class="h" d="M104.2,77.1a3.54,3.54,0,0,0-5.126,0l-8.422,8.348L86.99,89.108l-4.76-4.687A3.625,3.625,0,0,0,77.1,89.548l7.323,7.323a3.538,3.538,0,0,0,5.126,0l1.1-1.1L104.2,82.224A3.539,3.539,0,0,0,104.2,77.1Z" transform="translate(-46.243 -57.448)"/><path class="i" d="M149.554,82.224,136.006,95.772V85.447l8.422-8.348a3.625,3.625,0,1,1,5.126,5.126Z" transform="translate(-91.597 -57.448)"/><path class="i" d="M149.554,352.224l-13.548,13.548V355.447l8.422-8.348a3.625,3.625,0,1,1,5.126,5.126Z" transform="translate(-91.597 -261.539)"/><path class="i" d="M389.554,217.224l-13.548,13.548V220.447l8.422-8.348a3.625,3.625,0,1,1,5.126,5.126Z" transform="translate(-273.012 -159.493)"/></g></g></g></svg>