<svg xmlns="http://www.w3.org/2000/svg" width="175" height="175" viewBox="0 0 175 175"><defs><style>.a{fill:#fff;opacity:0.949;}.b{fill:#666;}.c{fill:#ff9f1c;}.d{fill:#ffbf69;}.e{fill:#60c4c2;}.f{fill:#cbf3f0;}.g{fill:#e8eded;}</style></defs><g transform="translate(5101 5590)"><g transform="translate(-5360 -12357)"><g transform="translate(259 6767)"><rect class="a" width="175" height="175"/></g></g><g transform="translate(-5076 -5565)"><g transform="translate(8.499 16.667)"><path class="b" d="M169.746,88.713,135.38,68.5,100.648,88.688l-2.1-3.6,35.786-20.8a2.078,2.078,0,0,1,2.1.006l35.416,20.833Z" transform="translate(-81.387 -64.002)"/><path class="b" d="M67.084,232.335l-15.039-18.8-15.039,18.8-3.254-2.6L50.418,208.9a2.155,2.155,0,0,1,3.254,0l16.666,20.833Z" transform="translate(-33.462 -170.619)"/><rect class="b" width="4.722" height="13.221" transform="translate(33.052 76.823)"/><path class="b" d="M339.084,232.335l-15.039-18.8-15.039,18.8-3.254-2.6L322.418,208.9a2.155,2.155,0,0,1,3.254,0l16.666,20.833Z" transform="translate(-234.631 -170.619)"/><rect class="b" width="3.777" height="13.221" transform="translate(70.826 76.823)"/><rect class="b" width="4.722" height="13.221" transform="translate(103.878 76.823)"/><rect class="b" width="3.777" height="13.221" transform="translate(0 76.823)"/></g><path class="c" d="M20.833,400H0v20.833H20.833Z" transform="translate(0 -295.837)"/><path class="d" d="M128,420.833h20.833V400H128Z" transform="translate(-94.668 -295.837)"/><path class="e" d="M272,420.833h20.833V400H272Z" transform="translate(-201.169 -295.837)"/><path class="f" d="M400,420.833h20.833V400H400Z" transform="translate(-295.837 -295.837)"/><path class="c" d="M20.833,288H0v20.833H20.833Z" transform="translate(0 -213.002)"/><path class="d" d="M128,308.833h20.833V288H128Z" transform="translate(-94.668 -213.002)"/><path class="c" d="M84.833,144H64v20.833H84.833Z" transform="translate(-47.334 -106.501)"/><path class="g" d="M239.8,71.911h.1l-.052-.031Z" transform="translate(-177.354 -53.162)"/><g transform="translate(52.082)"><path class="e" d="M220.833,0H200V20.833h10.352l.065-.038.065.038h10.352Z" transform="translate(-200)"/><path class="e" d="M356.833,144H336v20.833h20.833Z" transform="translate(-300.584 -106.501)"/><path class="e" d="M272,308.833h20.833V288H272Z" transform="translate(-253.251 -213.002)"/></g><path class="f" d="M400,288v20.833h20.833V288H400Z" transform="translate(-295.837 -213.002)"/></g></g></svg>